<svg xmlns="http://www.w3.org/2000/svg" width="19.49" height="21.251" viewBox="0 0 19.49 21.251">
  <g id="Group_494" data-name="Group 494" transform="translate(-21.221)">
    <path id="Path_286" data-name="Path 286" d="M39.808,13.124C39.3,11.776,34.7,0,30.983,0s-8.314,11.776-8.816,13.1c-1.144,2.589-1.5,4.723.5,6.721a4.87,4.87,0,0,0,6.886,0c.427-.426.92-.943,1.426-1.52.506.576,1,1.093,1.426,1.52a4.87,4.87,0,0,0,6.886,0C41.295,17.825,40.943,15.691,39.808,13.124ZM28.327,11.511a2.436,2.436,0,0,1,2.656-2.656,2.436,2.436,0,0,1,2.656,2.656c0,1.4-.945,3.31-2.656,5.422C29.272,14.82,28.327,12.915,28.327,11.511ZM38.671,19.2a3.984,3.984,0,0,1-5.634,0q-.8-.8-1.474-1.575c1.511-1.841,2.963-4.125,2.963-6.112a3.293,3.293,0,0,0-3.542-3.542,3.293,3.293,0,0,0-3.542,3.542c0,1.987,1.452,4.271,2.964,6.109q-.675.775-1.474,1.575a3.984,3.984,0,0,1-5.634,0c-1.462-1.461-1.545-2.963-.312-5.755C24.834,8.589,28.64.885,30.983.885s6.149,7.7,8.007,12.573C40.216,16.235,40.132,17.736,38.671,19.2Z" transform="translate(-0.018)" fill="#001f4e"/>
    <path id="Path_287" data-name="Path 287" d="M35.835,21.25a4.855,4.855,0,0,1-3.443-1.424c-.427-.427-.92-.942-1.426-1.52-.506.577-1,1.094-1.426,1.52a4.875,4.875,0,0,1-6.887,0c-2-2-1.648-4.136-.5-6.722.5-1.324,5.1-13.1,8.817-13.1S39.28,11.781,39.79,13.124c1.135,2.568,1.488,4.7-.512,6.7A4.855,4.855,0,0,1,35.835,21.25Zm-4.291-3.63q.674.775,1.473,1.575a3.984,3.984,0,0,0,5.635,0h0c1.462-1.462,1.545-2.964.319-5.738C37.115,8.589,33.309.885,30.965.885s-6.15,7.7-8,12.554c-1.235,2.8-1.151,4.3.311,5.755a3.984,3.984,0,0,0,5.635,0h0q.8-.8,1.473-1.575c-1.511-1.836-2.963-4.121-2.963-6.109a3.293,3.293,0,0,1,3.542-3.542,3.293,3.293,0,0,1,3.542,3.542C34.507,13.5,33.055,15.783,31.545,17.62Zm-.579-8.766a2.437,2.437,0,0,0-2.656,2.656c0,1.405.946,3.311,2.656,5.423,1.711-2.113,2.656-4.018,2.656-5.423a2.437,2.437,0,0,0-2.656-2.656Z" transform="translate(0)" fill="#001f4e"/>
  </g>
</svg>
