<?xml version="1.0" encoding="UTF-8"?>
<svg id="Layer_1" xmlns="http://www.w3.org/2000/svg" viewBox="0 0 512 512">
  <path d="M486.62,255.96c0,126.8-103.67,229.38-230.86,227.6-123.95-1.73-224.52-103.92-224.37-227.88.15-123.34,98.41-223.7,220.96-227.23.2,0,.48-.02.8-.02.34-.02.68-.02,1.04-.02,4.35.06,13.99,1.04,22.37,8.46,4.25,3.76,6.93,8.07,8.61,12.17,2.62,6.37,3.11,13.44,1.79,20.2-2.72,13.89-5.57,40.26,5.03,70.22,9.64,27.22,25.85,44.61,34.81,52.97,9.14,7.94,26.05,20.58,50.58,28.14,14.99,4.62,28.77,6.1,40.17,6.18,9.83.07,19.53-1.65,29.08-3.98,11.59-2.83,23.38-.1,31.08,7.48,7.52,7.42,8.64,17,8.84,20.48,0,.12.02.22.02.32.04,1.64.06,3.27.06,4.91Z" fill="none" stroke="#17234c" stroke-miterlimit="10" stroke-width="11"/>
  <circle cx="259.01" cy="257.14" r="71.38" fill="none" stroke="#17234c" stroke-miterlimit="10" stroke-width="11"/>
  <circle cx="93.47" cy="206.13" r="13.7" fill="none" stroke="#17234c" stroke-miterlimit="10" stroke-width="11"/>
  <circle cx="259.01" cy="405.63" r="9.69" fill="none" stroke="#17234c" stroke-miterlimit="10" stroke-width="11"/>
  <circle cx="188.89" cy="415.59" r="17.76" fill="none" stroke="#17234c" stroke-miterlimit="10" stroke-width="11"/>
</svg>