<?xml version="1.0" encoding="UTF-8"?>
<svg id="Layer_2" data-name="Layer 2" xmlns="http://www.w3.org/2000/svg" viewBox="0 0 508.35 465.52">
  <defs>
    <style>
      .cls-1 {
        fill-rule: evenodd;
      }

      .cls-1, .cls-2 {
        fill: #16224c;
      }
    </style>
  </defs>
  <g id="Layer_1-2" data-name="Layer 1">
    <g>
      <path class="cls-1" d="m241.41,0C112.95,0,8.65,104.3,8.65,232.76s104.3,232.76,232.76,232.76,232.76-104.3,232.76-232.76S369.87,0,241.41,0Zm0,31.03c111.34,0,201.72,90.39,201.72,201.72s-90.39,201.72-201.72,201.72S39.68,344.09,39.68,232.76,130.07,31.03,241.41,31.03Z"/>
      <path class="cls-1" d="m241.41,303.12l-46.91-46.91-23.45,23.46,58.64,58.64c6.48,6.48,16.97,6.48,23.45,0l58.64-58.64-23.45-23.46-46.91,46.91Zm-93.82-93.81l-11.73,11.73c-6.48,6.48-6.48,16.97,0,23.45l11.73,11.73,23.46-23.45-23.46-23.45Zm187.64,0l-23.46,23.45,23.46,23.45,11.73-11.73c6.48-6.48,6.48-16.97,0-23.45l-11.73-11.73Zm-93.82,0l-23.45,23.45,23.45,23.45,23.45-23.45-23.45-23.45Zm-70.36-23.46l23.45,23.46,46.91-46.91,46.91,46.91,23.45-23.46-58.64-58.64c-6.48-6.48-16.97-6.48-23.45,0l-58.64,58.64Z"/>
    </g>
    <path class="cls-2" d="m401.3,196.7c-6.67.02-13.08-2.63-17.78-7.36l-31.89-31.9c-4.67-4.67-4.67-12.24,0-16.91s12.24-4.67,16.91,0l31.89,31.89c.23.23.54.36.87.36.33,0,.65-.13.88-.36l81.88-81.87c.48-.48.49-1.26,0-1.74,0,0,0,0,0,0l-45.92-45.93c-.23-.23-.55-.36-.88-.36-.33,0-.64.13-.87.36l-26.89,26.91c-4.67,4.67-12.24,4.67-16.91,0-4.67-4.67-4.67-12.24,0-16.91l26.91-26.91c9.82-9.82,25.74-9.82,35.56,0,0,0,0,0,0,0l45.93,45.92c9.8,9.83,9.8,25.74,0,35.56l-81.91,81.88c-4.71,4.73-11.11,7.38-17.78,7.36Z"/>
    <path class="cls-2" d="m67.27,460.07c-6.32.02-12.38-2.49-16.83-6.96l-43.48-43.47c-9.28-9.3-9.28-24.36,0-33.66l77.52-77.51c9.3-9.3,24.37-9.3,33.66,0,0,0,0,0,0,0l30.19,30.19c4.42,4.42,4.42,11.59,0,16-4.42,4.42-11.59,4.42-16,0l-30.19-30.19c-.21-.22-.51-.35-.82-.34-.31,0-.61.12-.83.34l-77.51,77.51c-.46.45-.46,1.19,0,1.65,0,0,0,0,0,0l43.47,43.48c.22.22.52.34.83.33.31,0,.61-.11.82-.33l25.45-25.47c4.42-4.42,11.58-4.42,16,0,4.42,4.42,4.42,11.58,0,16h0l-25.47,25.47c-4.45,4.47-10.5,6.98-16.81,6.96Z"/>
  </g>
</svg>