<?xml version="1.0" encoding="UTF-8"?><svg id="Layer_1" xmlns="http://www.w3.org/2000/svg" viewBox="0 0 18.85 18.85"><defs><style>.cls-1{fill:#001f4e;}</style></defs><path class="cls-1" d="m12.48.51c-.16-.06-.34.03-.4.2-.06.16.03.34.2.4,3.55,1.22,5.94,4.56,5.94,8.32,0,4.85-3.95,8.8-8.8,8.8S.63,14.28.63,9.43,4.57.63,9.43.63c.17,0,.31-.14.31-.31s-.14-.31-.31-.31C4.19,0,0,4.24,0,9.43s4.22,9.43,9.43,9.43,9.43-4.25,9.43-9.43c0-4.03-2.56-7.61-6.37-8.92Z"/><path class="cls-1" d="m9.65,7.95c-.12-.12-.32-.12-.44,0l-1.25,1.25c-.12.12-.12.32,0,.44l1.25,1.25c.12.12.32.12.44,0l1.25-1.25c.12-.12.12-.32,0-.44-.12-.12-.32-.12-.44,0l-1.03,1.03-.81-.81,1.03-1.03c.12-.12.12-.32,0-.44h0Z"/><path class="cls-1" d="m9.2,15.38c.12.12.32.12.44,0l3.49-3.49c.12-.12.12-.32,0-.44s-.32-.12-.44,0l-3.27,3.27-3.05-3.05.81-.81,2.02,2.02c.12.12.32.12.44,0l2.24-2.24c.12-.12.12-.32,0-.44-.12-.12-.32-.12-.44,0l-2.02,2.02-2.02-2.02c-.12-.12-.32-.12-.44,0l-1.25,1.25c-.12.12-.12.32,0,.44l3.49,3.49Z"/><path class="cls-1" d="m9.65,3.47c-.12-.12-.32-.12-.44,0l-3.49,3.49c-.12.12-.12.32,0,.44l1.25,1.25c.12.12.32.12.44,0l.96-.96c.12-.12.12-.32,0-.44-.12-.12-.32-.12-.44,0l-.74.74-.81-.81,3.05-3.05,3.05,3.05-.81.81-2.02-2.02c-.12-.12-.32-.12-.44,0s-.12.32,0,.44l2.24,2.24c.12.12.32.12.44,0l1.25-1.25c.12-.12.12-.32,0-.44l-3.49-3.49Z"/><path class="cls-1" d="m4.72,10.9c.12.12.32.12.44,0l1.25-1.25c.12-.12.12-.32,0-.44l-1.25-1.25c-.12-.12-.32-.12-.44,0l-1.25,1.25c-.12.12-.12.32,0,.44.12.12.32.12.44,0l1.03-1.03.81.81-1.03,1.03c-.12.12-.12.32,0,.44Z"/><path class="cls-1" d="m12.88,9.2c-.12-.12-.32-.12-.44,0-.12.12-.12.32,0,.44l1.25,1.25c.12.12.32.12.44,0l1.25-1.25c.12-.12.12-.32,0-.44l-1.25-1.25c-.12-.12-.32-.12-.44,0s-.12.32,0,.44l1.03,1.03-.81.81-1.03-1.03Z"/><path class="cls-1" d="m7.05,16.83c3.86,1.24,7.83-.7,9.43-4.12,1.37-2.94.79-6.58-1.73-8.94-1.45-1.36-3.34-2.11-5.33-2.11C5.14,1.65,1.65,5.14,1.65,9.43c0,2.6,1.28,4.91,3.26,6.33.14.1.34.07.44-.07s.07-.34-.07-.44c-1.88-1.34-3-3.52-3-5.82,0-3.94,3.21-7.15,7.15-7.15s6.89,2.93,7.13,6.68c.32,5.12-4.6,8.79-9.32,7.27-.17-.05-.34.04-.4.2-.05.17.04.34.2.4h0Z"/></svg>