<svg xmlns="http://www.w3.org/2000/svg" width="21.496" height="23.522" viewBox="0 0 21.496 23.522">
  <g id="Group_487" data-name="Group 487" transform="translate(0)">
    <g id="Group_468" data-name="Group 468" transform="translate(7.705 0)">
      <g id="Group_467" data-name="Group 467">
        <path id="Path_289" data-name="Path 289" d="M173.21.328l-.653-.293A.406.406,0,0,0,172,.525l1.331,4.326a17.762,17.762,0,0,1-.552,11.959l-.362.879a.405.405,0,0,0,.375.56.4.4,0,0,0,.085-.009l.9-.194a21.672,21.672,0,0,1,9.355.074l.515.119a.406.406,0,0,0,.487-.3.41.41,0,0,0,.01-.078A18.466,18.466,0,0,0,173.21.328Zm.407,16.925-.15.032.069-.166a18.577,18.577,0,0,0,.576-12.507l-1.069-3.47a17.653,17.653,0,0,1,10.309,16.193l-.026-.007A22.519,22.519,0,0,0,173.617,17.254Z" transform="translate(-171.986 0)" fill="#001f4e"/>
      </g>
    </g>
    <g id="Group_470" data-name="Group 470" transform="translate(0.811 1.215)">
      <g id="Group_469" data-name="Group 469" transform="translate(0)">
        <path id="Path_290" data-name="Path 290" d="M42.462,24.968l-.449-.788a.406.406,0,0,0-.749.118l-.791,3.8a46.336,46.336,0,0,1-3.915,11.264l-.532,1.065a.406.406,0,0,0,.523.554,6.832,6.832,0,0,1,5.358,0,.406.406,0,0,0,.511-.17A15.938,15.938,0,0,0,42.462,24.968ZM41.888,40.1a7.662,7.662,0,0,0-4.688-.2l.084-.173a47.156,47.156,0,0,0,3.983-11.46l.572-2.745A15.127,15.127,0,0,1,41.888,40.1Z" transform="translate(-35.983 -23.976)" fill="#001f4e"/>
      </g>
    </g>
    <g id="Group_472" data-name="Group 472" transform="translate(0 18.25)">
      <g id="Group_471" data-name="Group 471">
        <path id="Path_291" data-name="Path 291" d="M41.3,360.072a.405.405,0,0,0-.221-.065H36.369a19.662,19.662,0,0,0-4.407.5l-1.014.234a18.8,18.8,0,0,1-4.223.481H20.395a.406.406,0,0,0-.344.62l1.432,2.291a2.419,2.419,0,0,0,2.063,1.144H36.68a3.23,3.23,0,0,0,2.737-1.5l2-3.146A.405.405,0,0,0,41.3,360.072Zm-2.566,3.27a2.422,2.422,0,0,1-2.053,1.127H23.546a1.613,1.613,0,0,1-1.376-.762l-1.046-1.671h5.6a19.659,19.659,0,0,0,4.407-.5l1.014-.234a18.8,18.8,0,0,1,4.223-.481h3.97Z" transform="translate(-19.989 -360.007)" fill="#001f4e"/>
      </g>
    </g>
  </g>
</svg>
