<?xml version="1.0" encoding="UTF-8"?>
<svg id="Layer_1" xmlns="http://www.w3.org/2000/svg" viewBox="0 0 512 512">
  <path d="M412.44,198.35v-.11c0-11.85-7.99-21.85-18.87-24.92v-3.57c0-3.85-3.12-6.98-6.98-6.98s-6.98,3.12-6.98,6.98v2.59h-4.91v-2.59c0-3.85-3.12-6.98-6.98-6.98s-6.98,3.12-6.98,6.98v2.59h-2.81c-3.86,0-6.98,3.12-6.98,6.98s3.12,6.98,6.98,6.98h2.81v61.97h-2.81c-3.86,0-6.98,3.12-6.98,6.98s3.12,6.98,6.98,6.98h2.81v2.59c0,3.85,3.12,6.98,6.98,6.98s6.98-3.12,6.98-6.98v-2.59h4.91v2.59c0,3.85,3.12,6.98,6.98,6.98s6.98-3.12,6.98-6.98v-3.57c10.87-3.07,18.87-13.08,18.87-24.92v-.11c0-7.46-3.18-14.19-8.24-18.93,5.07-4.73,8.24-11.46,8.24-18.93ZM398.48,236.31c0,6.59-5.36,11.95-11.95,11.95h-11.83v-24h11.83c6.59,0,11.95,5.36,11.95,11.95v.11ZM398.48,198.35c0,6.59-5.36,11.95-11.95,11.95h-11.83v-24h11.83c6.59,0,11.95,5.36,11.95,11.95v.11Z" fill="#16224c"/>
  <path d="M381.7,137.72c-43.87,0-79.56,35.69-79.56,79.56s35.69,79.56,79.56,79.56,79.56-35.69,79.56-79.56-35.69-79.56-79.56-79.56ZM381.7,282.87c-36.17,0-65.6-29.43-65.6-65.6s29.43-65.6,65.6-65.6,65.6,29.43,65.6,65.6-29.43,65.6-65.6,65.6Z" fill="#16224c"/>
  <path d="M487.23,119.45c-3.86,0-6.98,3.12-6.98,6.98v203.54H31.75v-24.66c0-3.85-3.12-6.98-6.98-6.98s-6.98,3.12-6.98,6.98v59.55c0,14.11,11.48,25.59,25.59,25.59h154.46v28.85h-32.1c-11.54,0-20.94,9.39-20.94,20.94v10.24c0,5.9,4.8,10.7,10.7,10.7h200.99c5.9,0,10.7-4.8,10.7-10.7v-10.24c0-11.54-9.39-20.94-20.94-20.94h-32.1v-28.85h31.64c3.86,0,6.98-3.12,6.98-6.98s-3.12-6.98-6.98-6.98H43.38c-6.41,0-11.63-5.22-11.63-11.63v-20.94h448.49v20.94c0,6.41-5.22,11.63-11.63,11.63h-93.05c-3.86,0-6.98,3.12-6.98,6.98s3.12,6.98,6.98,6.98h93.05c14.11,0,25.59-11.48,25.59-25.59V126.43c0-3.85-3.12-6.98-6.98-6.98ZM346.26,433.26c3.85,0,6.98,3.13,6.98,6.98v6.98h-194.47v-6.98c0-3.85,3.13-6.98,6.98-6.98h180.51ZM211.8,390.46h88.4v28.85h-88.4v-28.85Z" fill="#16224c"/>
  <path d="M468.62,50.83H43.38c-14.11,0-25.59,11.48-25.59,25.59v198.81c0,3.85,3.12,6.98,6.98,6.98s6.98-3.12,6.98-6.98V76.42c0-6.41,5.22-11.63,11.63-11.63h425.23c6.41,0,11.63,5.22,11.63,11.63v20.35c0,3.85,3.12,6.98,6.98,6.98s6.98-3.12,6.98-6.98v-20.35c0-14.11-11.48-25.59-25.59-25.59Z" fill="#16224c"/>
  <path d="M120.15,218.98h-55.83c-3.86,0-6.98,3.12-6.98,6.98v74.44c0,3.85,3.12,6.98,6.98,6.98h55.83c3.86,0,6.98-3.12,6.98-6.98v-74.44c0-3.85-3.12-6.98-6.98-6.98ZM113.17,293.42h-41.87v-60.48h41.87v60.48Z" fill="#16224c"/>
  <path d="M194.59,172.45h-55.83c-3.86,0-6.98,3.12-6.98,6.98v120.96c0,3.85,3.12,6.98,6.98,6.98h55.83c3.86,0,6.98-3.12,6.98-6.98v-120.96c0-3.85-3.12-6.98-6.98-6.98ZM187.61,293.42h-41.87v-107.01h41.87v107.01Z" fill="#16224c"/>
  <path d="M269.03,191.06h-55.83c-3.86,0-6.98,3.12-6.98,6.98v102.35c0,3.85,3.12,6.98,6.98,6.98h55.83c3.86,0,6.98-3.12,6.98-6.98v-102.35c0-3.85-3.12-6.98-6.98-6.98ZM262.05,293.42h-41.87v-88.4h41.87v88.4Z" fill="#16224c"/>
  <path d="M276.59,148.52l-12.68-14.73c-2.52-2.92-6.92-3.25-9.84-.74-2.92,2.51-3.25,6.92-.74,9.84l2.75,3.2h-13.79l-69.55-24.35c-2.19-.77-4.62-.39-6.48.99l-87.82,65.56c-3.09,2.3-3.72,6.68-1.42,9.77,1.37,1.84,3.47,2.8,5.6,2.8,1.45,0,2.92-.45,4.17-1.39l84.85-63.34,67.17,23.52c.74.26,1.52.39,2.31.39h14.98l-2.76,3.21c-2.51,2.92-2.18,7.33.74,9.84,1.32,1.13,2.94,1.69,4.55,1.69,1.96,0,3.91-.82,5.29-2.43l12.68-14.73c2.25-2.62,2.25-6.49,0-9.1Z" fill="#16224c"/>
  <circle cx="449.54" cy="360.21" r="6.98" fill="#16224c"/>
  <circle cx="427.67" cy="360.21" r="6.98" fill="#16224c"/>
  <circle cx="405.81" cy="360.21" r="6.98" fill="#16224c"/>
  <circle cx="97.51" cy="84.79" r="6.98" fill="#16224c"/>
  <circle cx="75.64" cy="84.79" r="6.98" fill="#16224c"/>
  <circle cx="53.77" cy="84.79" r="6.98" fill="#16224c"/>
</svg>