<svg xmlns="http://www.w3.org/2000/svg" width="23.551" height="20.874" viewBox="0 0 23.551 20.874">
  <path id="CliqBuy_-_Amazon_Clone" data-name="CliqBuy - Amazon Clone" d="M24.256,51.639c1.179,0,1.463-1.222,1.632-1.951l.033-.142a6.812,6.812,0,1,0-8.044-7.077H13.636L12.9,38.633A1.586,1.586,0,0,0,11.4,37.2H8.319a.38.38,0,0,0,0,.76H11.4c.441,0,.679.424.755.82l2.78,14.514A1.882,1.882,0,1,0,17.5,55.409h4.97a1.882,1.882,0,1,0,0-.76H17.5a1.885,1.885,0,0,0-1.817-1.5l-.289-1.508h8.863Zm.056,2.267a1.122,1.122,0,1,1-1.122,1.122A1.123,1.123,0,0,1,24.312,53.907Zm6.407-11.438H28.34a11.938,11.938,0,0,0-.32-2.456h2A6.008,6.008,0,0,1,30.718,42.469ZM24.3,46.444v2.4a3.588,3.588,0,0,1-1.941-2.4Zm-2.176-.76a11.128,11.128,0,0,1-.345-2.456H24.3v2.456Zm2.936,3.162v-2.4H27A3.588,3.588,0,0,1,25.059,48.846Zm0-3.162V43.228H27.58a11.125,11.125,0,0,1-.345,2.456Zm3.281-2.456h2.379a6.008,6.008,0,0,1-.695,2.456h-2A11.938,11.938,0,0,0,28.34,43.228Zm-.76-.76H25.059V40.013h2.176A11.13,11.13,0,0,1,27.58,42.469Zm-2.521-3.216v-2.4A3.588,3.588,0,0,1,27,39.253Zm-.76-2.4v2.4H22.358A3.588,3.588,0,0,1,24.3,36.851Zm0,3.162v2.456H21.778a11.125,11.125,0,0,1,.345-2.456Zm-3.281,2.456H18.639a6.009,6.009,0,0,1,.695-2.456h2A11.937,11.937,0,0,0,21.018,42.469Zm0,.76a11.938,11.938,0,0,0,.32,2.456h-2a6.007,6.007,0,0,1-.695-2.456Zm.537,3.216a7.956,7.956,0,0,0,.463,1.121,5.53,5.53,0,0,0,.633.985,6.08,6.08,0,0,1-2.837-2.106Zm5.152,2.106a5.53,5.53,0,0,0,.633-.985,7.956,7.956,0,0,0,.463-1.121h1.741a6.08,6.08,0,0,1-2.837,2.106Zm2.837-9.3H27.8a7.957,7.957,0,0,0-.463-1.121,5.53,5.53,0,0,0-.633-.985A6.08,6.08,0,0,1,29.543,39.253Zm-6.893-2.106a5.531,5.531,0,0,0-.633.985,7.959,7.959,0,0,0-.463,1.121H19.814A6.08,6.08,0,0,1,22.651,37.147Zm-4.773,6.082a6.82,6.82,0,0,0,6.8,6.432c.148,0,.294-.005.439-.015-.175.729-.357,1.234-.862,1.234H15.248l-1.466-7.651h4.1Zm-1.1,11.8a1.122,1.122,0,1,1-1.122-1.122A1.123,1.123,0,0,1,16.778,55.029Z" transform="translate(-7.939 -36.037)" fill="#001f4e"/>
</svg>
