<?xml version="1.0" encoding="UTF-8"?><svg id="Layer_1" xmlns="http://www.w3.org/2000/svg" viewBox="0 0 19.62 19.62"><defs><style>.cls-1{fill:none;stroke:#001f4e;stroke-miterlimit:10;}.cls-2{fill:#001f4e;}</style></defs><path class="cls-2" d="m6.81,19.15c4.87,1.56,9.88-.88,11.9-5.2,1.73-3.71.99-8.3-2.18-11.28-1.83-1.72-4.21-2.66-6.72-2.66C4.4,0,0,4.4,0,9.81c0,3.27,1.61,6.2,4.11,7.98.18.13.43.09.55-.09s.09-.43-.09-.55c-2.37-1.69-3.78-4.43-3.78-7.34C.79,4.84,4.84.79,9.81.79s8.69,3.7,9,8.43c.41,6.46-5.81,11.08-11.75,9.17-.21-.07-.43.05-.5.26-.07.21.05.43.26.5h0Z"/><path class="cls-1" d="m6.87,15.86c3.34,1.62,7.36.23,8.98-3.11,1-2.05.85-4.36-.17-6.21l-2.06,1.27c.62,1.17.68,2.6.06,3.88-1.04,2.14-3.61,3.03-5.75,1.99s-3.03-3.61-1.99-5.75,3.61-3.03,5.75-1.99c.24.12.46.24.66.39l2.15-1.33c-.5-.5-1.08-.91-1.75-1.24-3.34-1.62-7.36-.23-8.98,3.11s-.23,7.36,3.11,8.98Z"/></svg>