<?xml version="1.0" encoding="UTF-8"?>
<svg id="Layer_1" xmlns="http://www.w3.org/2000/svg" viewBox="0 0 512 512">
  <g>
    <g>
      <path d="M260.22,334.99s.02.03.03.04h-.06s.02-.03.04-.04ZM154.68,297.97c-.3-.46-.65-.92-1.03-1.36-.08-.1-.17-.19-.26-.28.59-.23,1.15-.51,1.67-.83-.11.82-.24,1.64-.39,2.47ZM124.08,296.98c-.66-.86-1.33-1.55-1.88-2.1,0-.09.02-.19.02-.28.74.64,1.57,1.16,2.48,1.56-.22.27-.43.54-.62.82Z" fill="#17234c"/>
      <path d="M342.58,218.1c-18.59,0-37.18.01-55.77.03-9.43.01-15.18,4.47-16.93,13.85-2.33,12.47-4.09,25.04-6.36,39.2-2.1-6.13-3.84-10.82-5.31-15.58-2.83-9.15-8.51-15.76-17.14-19.88-7.96-3.8-15.84-7.78-23.86-11.43-2.43-1.11-4.64-1.65-6.71-1.65-3.72,0-6.98,1.77-10.19,5.29-3.75,4.11-7.25,6.16-10.76,6.16s-6.89-1.98-10.57-5.95c-3.45-3.71-6.66-5.51-10.38-5.51-2.27,0-4.73.67-7.55,1.99-7.81,3.66-15.55,7.47-23.32,11.22-6.59,3.18-12.06,7.76-14.78,14.58-5.79,14.54-7.81,29.9-9.08,45.41-.34,4.11,4.35,4.94,4.54,8.35.52,9.58,2.48,18.92,5.16,28.37-1.42.1-2.39.21-3.36.23-8.35.18-9.61,1.41-9.64,9.54-.02,4.33-.01,8.66,0,13,.03,8.49.95,9.4,9.5,9.4,50.43,0,100.84,0,151.27,0,44.89,0,89.8,0,134.69,0,.76,0,1.52-.01,2.27-.01.42,0,.85,0,1.27.01.09,0,.18,0,.26,0,3.72,0,5.58-1.92,5.59-5.7.01-6.7.03-13.39,0-20.09-.02-4.1-2.16-6.13-6.24-6.14-1.45,0-2.9,0-4.37,0-2.29,0-4.61,0-7.01,0,4.88-32.05,9.75-63.64,14.48-95.24,1.62-10.83-5.82-19.4-16.75-19.41-17.65-.02-35.29-.03-52.94-.03h0ZM270.7,331.5c-3.44,0-4.48-.75-3.88-4.57,4.8-30.2,9.43-60.43,13.97-90.67.79-5.24,2.78-7.78,8.59-7.78.05,0,.09,0,.14,0,17,.12,33.99.14,50.99.14,15.71,0,31.43-.02,47.15-.02,1.73,0,3.47,0,5.2,0,7.24,0,8.36,1.03,7.29,8.32-4.02,27.18-8.22,54.33-12.4,81.49-.65,4.22-.18,10.27-2.69,12.12-1.35.99-3.25,1.26-5.34,1.26-2.5,0-5.28-.39-7.73-.39-.02,0-.05,0-.07,0-6.87.02-13.74.03-20.62.03-8.48,0-16.97,0-25.45,0-9.51,0-19.02-.02-28.54-.02-8.79,0-17.59.02-26.38.1-.08,0-.15,0-.23,0h0ZM129.92,288.93c-2.65,0-3.3-1.04-2.99-3.76,1.19-10.35,2.96-20.58,6.59-30.38,1.65-4.45,5.19-7.39,9.3-9.45,7.52-3.78,15.22-7.2,22.73-11,.9-.46,1.63-.68,2.29-.68,1.11,0,2.01.63,3.15,1.84,5.86,6.24,12.32,9.37,18.75,9.37s12.77-3.1,18.46-9.3c1.13-1.23,2.03-1.87,3.14-1.87.65,0,1.38.22,2.26.67,7.87,3.99,15.86,7.73,23.78,11.63,4.46,2.2,7.38,5.82,9,10.46,4,11.46,7.69,23.03,11.97,34.39,1.98,5.25.14,10.07-.15,15.08-.12,2.01-1.65,1.89-3.02,1.9-10.24.05-20.48.04-30.72.16-.03,0-.06,0-.1,0-2.32,0-3.2-1.04-4.03-3.18-3.75-9.71-11.43-15.13-20.91-15.13-2.44,0-4.99.36-7.63,1.09-9.61,2.68-19.08,5.84-29.09,8.94,1.77-9.46.87-18.26.78-27.02-.03-3.16-2.18-5.18-5.6-5.18-.12,0-.24,0-.36,0-3.58.14-5.43,2.23-5.63,5.57-.23,3.93-.24,7.88-.02,11.81.16,2.85-.58,4.07-3.42,4.07-.15,0-.31,0-.48-.01-2.86-.12-5.72-.17-8.58-.17-3.05,0-6.1.06-9.14.16-.13,0-.25,0-.37,0h0ZM137.16,300.83c.94,0,1.88-.05,2.81-.17,1.02-.13,1.97-.21,2.84-.21,4.22,0,6.51,1.8,5.68,8-.49,3.66,2.12,5.95,5.58,5.95.74,0,1.52-.11,2.32-.32,6.39-1.75,12.71-3.75,20.31-6.02-4.64,8.8-1.39,15.79,1.88,23.36-6.96,0-13.8-.01-20.59-.01-6.2,0-12.35.01-18.5.05-.01,0-.02,0-.04,0-2.6,0-3.26-1.83-3.97-3.58-3.04-7.53-4.02-15.51-4.94-23.51-.29-2.53.43-3.75,2.7-3.75.26,0,.53.02.83.05,1.02.11,2.05.17,3.08.17h0ZM179.45,307.84c6.45-3.37,13.18-5.85,20.55-5.91.04,0,.08,0,.12,0,3.63,0,6.76,1.3,8.57,5.84-5.2.29-10.27.43-15.29.43-4.68,0-9.31-.12-13.94-.36-.06.03-.12.06-.18.09-.11,0-.21.01-.32.02-.53.29-1.06.59-1.59.88-.09-.26-.17-.53-.26-.79.62-.03,1.23-.06,1.85-.09.07-.04.15-.08.22-.12.09,0,.18,0,.27.01h0ZM242.35,320.23c3.12,0,6.24-.05,9.36-.22.29-.02.56-.02.81-.02,3.56,0,3.07,1.62,2.93,4.72-.26,5.65-2.74,6.88-7.58,6.88-.28,0-.56,0-.86-.01-6.28-.16-12.55-.2-18.83-.2-7.28,0-14.56.06-21.84.06-1.6,0-3.21,0-4.81,0-6.88-.03-11.51-3.57-14.21-11.33,8.03,0,15.94,0,23.79,0,5.31,0,10.59,0,15.87,0,5.12,0,10.25.15,15.37.15h0ZM125.08,351.81c-1.44,0-2.66-.61-2.79-3.54-.18-4.31,1.35-5.1,5.26-5.1.03,0,.06,0,.09,0,26.08.08,52.16.09,78.25.09,19.02,0,38.05,0,57.08,0h.32c18.27,0,36.55,0,54.83,0,26.73,0,53.45-.01,80.18-.07.07,0,.15,0,.22,0,3.49,0,5.74.22,5.32,4.84-.23,2.51-.9,3.6-2.9,3.6-.28,0-.59-.02-.93-.06-.21-.03-.43-.04-.64-.04-.38,0-.75.03-1.13.03-20.76,0-41.52,0-62.29,0-69.26,0-138.52,0-207.78-.07,0,0,0,0,0,0-.93,0-2.07.31-3.09.31h0Z" fill="#17234c"/>
    </g>
    <g>
      <path d="M189.34,129.63c5.51,0,11.04-.27,16.54.06,13.94.85,21.64,13.04,16.35,25.94-1.25,3.06-1.43,5.76-1.11,9.01,1.04,10.38,1.54,20.88-1.04,31.09-2.94,11.64-8.86,21.23-21.52,24.13-14.01,3.2-25.71-1.15-34.21-12.76-8.84-12.08-14.86-25.34-14.87-40.72,0-5.11-1.78-10.12-.97-15.27,2.04-13.01,11.43-20.97,25.47-21.46,5.11-.18,10.24-.03,15.36-.02ZM193.89,164.71s0-.08,0-.11c-2.36,0-4.77.31-7.06-.06-5.59-.91-9.4.76-11.69,6.23-1.57,3.73-4.82,6.11-8.52,7.77-1.53.68-3.41.74-2.3,3.57,3.02,7.72,6.59,15.02,12.37,21.14,7.88,8.33,26.85,8.43,31.09-7.49,2.33-8.77,1.79-17.49,2.03-26.28.11-3.92-1.56-5.13-5.31-4.81-3.51.3-7.07.06-10.61.06ZM161.68,167.22c3.23-.93,3.68-3.46,4.85-5.39,3.85-6.38,9.38-10.28,16.96-9.6,7.28.66,14.54.12,21.79.5,3.74.2,6.91-.24,6.8-4.9-.1-4.28-2.81-6.4-6.9-6.44-10.62-.1-21.25-.3-31.86.05-8.88.29-13.79,6.61-12.76,15.47.38,3.28.72,6.57,1.13,10.3Z" fill="#17234c"/>
      <path d="M199.66,129.53c-3.36,0-6.72.1-10.08.1-.08,0-.16,0-.25,0-3.23,0-6.46-.07-9.68-.07-1.89,0-3.78.02-5.67.09-14.05.49-23.44,8.45-25.47,21.46-.81,5.15.97,10.16.97,15.27,0,15.38,6.03,28.65,14.87,40.72,6.69,9.13,15.36,13.78,25.58,13.78,2.76,0,5.64-.34,8.63-1.02,12.66-2.9,18.58-12.49,21.52-24.13,2.58-10.21,2.08-20.71,1.04-31.09-.33-3.25-.15-5.95,1.11-9.01,5.29-12.9-2.41-25.08-16.35-25.94-2.07-.13-4.14-.17-6.22-.17h0ZM161.68,167.22c-.41-3.73-.74-7.02-1.13-10.3-1.03-8.86,3.87-15.18,12.76-15.47,4.54-.15,9.07-.2,13.61-.2,6.08,0,12.17.09,18.25.15,4.09.04,6.8,2.15,6.9,6.44.1,4.12-2.36,4.94-5.51,4.94-.42,0-.85-.01-1.29-.04-2.47-.13-4.94-.15-7.41-.15-1.38,0-2.76,0-4.14,0-3.41,0-6.82-.04-10.23-.35-.58-.05-1.14-.08-1.69-.08-6.71,0-11.71,3.78-15.27,9.67-1.17,1.94-1.61,4.46-4.85,5.39h0ZM190.64,208.8c-5.33,0-10.63-2.05-13.96-5.56-5.79-6.11-9.35-13.41-12.37-21.14-1.11-2.83.78-2.89,2.3-3.57,3.7-1.65,6.95-4.04,8.52-7.77,1.91-4.54,4.86-6.46,9-6.46.85,0,1.74.08,2.69.23.86.14,1.74.18,2.62.18,1.47,0,2.97-.12,4.44-.12,0,.04,0,.08,0,.11,2.16,0,4.33.09,6.49.09,1.38,0,2.75-.04,4.11-.15.38-.03.73-.05,1.07-.05,3,0,4.34,1.34,4.24,4.86-.25,8.79.3,17.51-2.03,26.28-2.45,9.21-9.82,13.06-17.13,13.06h0Z" fill="#17234c"/>
    </g>
    <g>
      <path d="M311.99,267.38c-6.95,7.03-13.82,13.78-20.45,20.77-3.13,3.3-6.44,4.14-9.64.92-3.11-3.12-1.8-6.41,1.06-9.25,8.09-8.05,16.2-16.09,24.21-24.21,3.56-3.62,6.69-3.14,10.07.28,11.08,11.19,22.33,22.2,33.32,33.48,2.65,2.72,4.18,2.97,6.87.06,5.74-6.21,11.89-12.03,17.84-18.05,2.49-2.51,5.15-3.87,8.19-1.1,3.14,2.86,3.45,6.16.39,9.26-8.27,8.42-16.57,16.82-25.02,25.06-3.76,3.67-7.39,2.4-10.78-1.02-11.9-12.02-23.87-23.98-36.05-36.2Z" fill="#17234c"/>
      <path d="M312,253.1c-1.56,0-3.15.79-4.84,2.5-8.01,8.13-16.12,16.16-24.21,24.21-2.86,2.84-4.17,6.13-1.06,9.25,1.39,1.39,2.8,2.03,4.2,2.03,1.83,0,3.66-1.08,5.44-2.95,6.63-6.99,13.51-13.74,20.45-20.77,12.18,12.22,24.15,24.18,36.05,36.2,1.96,1.98,4,3.23,6.1,3.23,1.53,0,3.1-.67,4.68-2.22,8.45-8.24,16.75-16.64,25.02-25.06,3.05-3.1,2.75-6.4-.39-9.26-1.19-1.08-2.32-1.53-3.4-1.53-1.69,0-3.28,1.1-4.79,2.63-5.95,6.02-12.1,11.84-17.84,18.05-1.31,1.41-2.34,2.08-3.36,2.08-1.08,0-2.14-.75-3.51-2.14-10.98-11.28-22.24-22.29-33.32-33.48-1.78-1.8-3.49-2.79-5.23-2.79h0Z" fill="#17234c"/>
    </g>
  </g>
  <circle cx="260.39" cy="256" r="213.47" fill="none" stroke="#18234c" stroke-miterlimit="10" stroke-width="10.82"/>
</svg>