<?xml version="1.0" encoding="utf-8"?>
<!-- Generator: Adobe Illustrator 27.7.0, SVG Export Plug-In . SVG Version: 6.00 Build 0)  -->
<svg version="1.1" id="Layer_1" xmlns="http://www.w3.org/2000/svg" xmlns:xlink="http://www.w3.org/1999/xlink" x="0px" y="0px"
	 viewBox="0 0 20 20" style="enable-background:new 0 0 20 20;" xml:space="preserve">
<style type="text/css">
	.st0{fill:#001F4E;}
</style>
<path class="st0" d="M3.5,10.4c0.7,0.4,1.5,0.5,2.3,0.5s1.6-0.2,2.3-0.5c1.1-0.5,1.9-1.4,2.4-2.5c0.3-0.6,0.4-1.3,0.4-2
	c0-2.8-2.3-5.1-5.1-5.1S0.7,3,0.7,5.8c0,0.7,0.1,1.4,0.4,2C1.6,8.9,2.4,9.8,3.5,10.4z M5.8,1.2c2.5,0,4.5,2,4.5,4.5
	c0,0.6-0.1,1.2-0.4,1.8c-0.4,1-1.2,1.8-2.1,2.3c-0.6,0.3-1.3,0.5-2,0.5s-1.4-0.2-2-0.5c-1-0.5-1.7-1.3-2.1-2.3
	C1.4,7,1.3,6.4,1.3,5.8C1.3,3.3,3.3,1.2,5.8,1.2L5.8,1.2z"/>
<path class="st0" d="M5.8,9.4c2,0,3.6-1.6,3.6-3.6S7.8,2.2,5.8,2.2S2.1,3.8,2.1,5.8S3.8,9.4,5.8,9.4z M5.8,2.7
	c1.7,0,3.1,1.4,3.1,3.1S7.5,8.9,5.8,8.9S2.7,7.5,2.7,5.8S4.1,2.7,5.8,2.7z"/>
<path class="st0" d="M5.8,7.1c-0.3,0-0.5-0.2-0.5-0.5c0-0.2-0.1-0.3-0.3-0.3S4.7,6.4,4.7,6.6c0,0.5,0.3,0.9,0.8,1v0.2
	c0,0.2,0.1,0.3,0.3,0.3c0.2,0,0.3-0.1,0.3-0.3V7.6c0.4-0.1,0.8-0.5,0.8-1c0-0.6-0.5-1.1-1.1-1.1C5.5,5.5,5.3,5.3,5.3,5
	c0-0.3,0.2-0.5,0.5-0.5c0.3,0,0.5,0.2,0.5,0.5c0,0.2,0.1,0.3,0.3,0.3c0.2,0,0.3-0.1,0.3-0.3c0-0.5-0.3-0.9-0.8-1V3.8
	c0-0.2-0.1-0.3-0.3-0.3c-0.2,0-0.3,0.1-0.3,0.3V4C5.1,4.1,4.7,4.5,4.7,5c0,0.6,0.5,1.1,1.1,1.1c0.3,0,0.5,0.2,0.5,0.5
	C6.3,6.8,6.1,7.1,5.8,7.1z"/>
<path class="st0" d="M14.2,9.1c-2.8,0-5.1,2.3-5.1,5.1c0,0.7,0.1,1.4,0.4,2c0.5,1.1,1.3,2,2.4,2.5c0.7,0.4,1.5,0.5,2.3,0.5
	c0.8,0,1.6-0.2,2.3-0.5c1.1-0.5,1.9-1.4,2.4-2.5c0.3-0.6,0.4-1.3,0.4-2C19.3,11.4,17,9.1,14.2,9.1L14.2,9.1z M18.4,16
	c-0.4,1-1.2,1.8-2.1,2.3c-0.6,0.3-1.3,0.5-2,0.5c-0.7,0-1.4-0.2-2-0.5c-1-0.5-1.7-1.3-2.1-2.3c-0.2-0.6-0.4-1.2-0.4-1.8
	c0-2.5,2-4.5,4.5-4.5s4.5,2,4.5,4.5C18.8,14.8,18.6,15.4,18.4,16L18.4,16z"/>
<path class="st0" d="M14.2,10.6c-2,0-3.6,1.6-3.6,3.6s1.6,3.6,3.6,3.6s3.6-1.6,3.6-3.6S16.2,10.6,14.2,10.6z M14.2,17.3
	c-1.7,0-3.1-1.4-3.1-3.1s1.4-3.1,3.1-3.1s3.1,1.4,3.1,3.1S15.9,17.3,14.2,17.3z"/>
<path class="st0" d="M14.1,0.7c-0.1,0-0.2,0-0.3,0l-2.5,1.9c-0.1,0.1-0.1,0.1-0.1,0.2c0,0.1,0,0.2,0.1,0.2l2.5,1.9
	C13.9,5,14,5,14.1,4.9c0.1,0,0.2-0.1,0.2-0.3V4.2c1.8-0.1,3.5,1,4.2,2.7c0.1,0.2,0.2,0.3,0.4,0.3c0,0,0.1,0,0.1,0
	c0.2-0.1,0.4-0.3,0.3-0.5c-0.4-2.6-2.4-4.6-5.1-5V1C14.2,0.8,14.2,0.8,14.1,0.7L14.1,0.7z M18.6,5.9c-0.9-1.4-2.5-2.3-4.1-2.3
	c-0.2,0-0.4,0-0.6,0c-0.1,0-0.2,0.1-0.2,0.3v0.2l-1.7-1.3l1.7-1.3v0.4c0,0.1,0.1,0.3,0.2,0.3C16.1,2.5,17.9,3.9,18.6,5.9L18.6,5.9z"
	/>
<path class="st0" d="M5.9,19.3c0,0,0.1,0,0.1,0c0.1,0,0.1,0,0.2-0.1l2.5-1.9c0.1-0.1,0.1-0.1,0.1-0.2s0-0.2-0.1-0.2l-2.5-1.9
	C6.1,15,6,15,5.9,15.1c-0.1,0-0.2,0.1-0.2,0.3v0.5c-1.8,0.1-3.5-1-4.2-2.7l0,0c-0.1-0.2-0.3-0.3-0.5-0.3c-0.2,0.1-0.4,0.3-0.3,0.5
	c0.4,2.6,2.4,4.6,5.1,5V19C5.8,19.2,5.8,19.3,5.9,19.3L5.9,19.3z M1,13.3L1,13.3L1,13.3L1,13.3z M1.4,14.1c1,1.6,2.9,2.5,4.7,2.3
	c0.1,0,0.2-0.1,0.2-0.3v-0.2l1.7,1.3l-1.7,1.3v-0.4c0-0.1-0.1-0.3-0.2-0.3C3.9,17.5,2.1,16.1,1.4,14.1L1.4,14.1z"/>
<path class="st0" d="M15.3,14.1c0.1-0.2,0.2-0.4,0.2-0.6c0-0.5-0.4-0.9-0.9-1v-0.3c0-0.2-0.1-0.3-0.3-0.3S14,12,14,12.2v0.3h-1
	c-0.2,0-0.3,0.1-0.3,0.3c0,0.2,0.1,0.3,0.3,0.3h0.1v2.3H13c-0.2,0-0.3,0.1-0.3,0.3s0.1,0.3,0.3,0.3h1v0.3c0,0.2,0.1,0.3,0.3,0.3
	s0.3-0.1,0.3-0.3v-0.3h0.2c0.5,0,1-0.4,1-1C15.7,14.6,15.5,14.3,15.3,14.1L15.3,14.1z M13.8,13.1h0.6c0.2,0,0.4,0.2,0.4,0.4
	c0,0.2-0.2,0.4-0.4,0.4h-0.8v-0.9H13.8L13.8,13.1z M14.7,15.4h-1.1v-0.9h1.1c0.2,0,0.4,0.2,0.4,0.4C15.1,15.2,14.9,15.4,14.7,15.4z"
	/>
</svg>
