<?xml version="1.0" encoding="UTF-8"?><svg id="Layer_1" xmlns="http://www.w3.org/2000/svg" viewBox="0 0 19.12 19.13"><defs><style>.cls-1,.cls-2{fill:#001f4e;}.cls-2{fill-rule:evenodd;}</style></defs><path class="cls-1" d="m6.63,18.66c4.75,1.53,9.63-.86,11.6-5.07,1.69-3.62.97-8.09-2.12-11-1.78-1.67-4.11-2.6-6.55-2.6C4.29,0,0,4.29,0,9.56c0,3.19,1.57,6.04,4.01,7.78.17.12.41.08.54-.09s.08-.41-.09-.54c-2.31-1.65-3.68-4.32-3.68-7.15C.77,4.71,4.71.77,9.56.77s8.47,3.61,8.77,8.21c.4,6.29-5.66,10.8-11.46,8.94-.2-.07-.42.05-.49.25-.07.2.05.42.25.49h0Z"/><g id="Layer_1-2"><path class="cls-2" d="m10.07,5.88c.34.03.66.12.97.24v-.64c0-.17.13-.31.31-.31h.76v-.06c-.35-.2-.48-.65-.28-1,.2-.35.65-.47,1-.27s.46.64.27.99c-.07.12-.16.21-.28.28v.47c0,.16-.14.3-.31.3h-.78v.65c.27.19.49.43.68.68h.64v-.78c0-.16.14-.31.31-.31h.47c.06-.11.15-.2.27-.27.35-.2.8-.08,1,.27.19.35.08.79-.27.99s-.8.08-1-.27h0s-.06-.01-.06-.01v.78c0,.16-.13.31-.31.31h-.64c.13.3.21.62.25.96h1.5c.12-.22.37-.37.63-.37.4,0,.72.33.72.72s-.33.72-.72.72c-.27,0-.51-.14-.63-.37h-1.5c-.04.34-.12.66-.25.97h.65c.16,0,.3.13.3.31v.76s.06.01.07-.01c.19-.35.64-.46.99-.27.35.2.47.65.27,1-.19.35-.64.46-.99.27-.11-.07-.2-.16-.28-.28h-.47c-.16,0-.3-.14-.3-.31v-.78h-.65c-.19.27-.42.49-.68.68v.64h.78c.16,0,.31.14.31.31v.47c.11.06.2.15.28.27.19.35.08.8-.27,1-.36.19-.8.08-1-.27s-.08-.8.27-1c.02-.01.01-.04.01-.06h-.78c-.16,0-.3-.13-.3-.31v-.64c-.31.13-.63.21-.97.25v1.5c.22.12.37.37.37.63,0,.4-.33.72-.72.72s-.72-.33-.72-.72c0-.27.14-.51.37-.63v-1.5c-.34-.04-.66-.12-.97-.25v.65c0,.16-.13.3-.3.3h-.78v.06c.36.2.48.65.28,1s-.64.47-.99.27c-.36-.19-.47-.64-.28-.99.07-.11.16-.2.28-.28v-.47c0-.16.14-.3.31-.3h.78v-.65c-.25-.19-.49-.42-.68-.68h-.64v.78c0,.16-.13.31-.31.31h-.47c-.06.11-.15.2-.27.28-.35.19-.8.08-1-.27-.19-.36-.08-.8.27-1,.36-.2.8-.08,1,.27.01.02.05.01.06.01v-.78c0-.16.14-.3.31-.3h.64c-.12-.31-.21-.63-.24-.97h-1.5c-.13.22-.37.37-.64.37-.4,0-.72-.33-.72-.72s.33-.72.72-.72c.28,0,.51.14.64.37h1.5c.03-.34.12-.66.24-.97h-.64c-.17,0-.31-.13-.31-.3v-.78h-.06c-.2.36-.65.48-1,.28s-.47-.64-.27-.99c.2-.36.64-.47.99-.28.12.07.21.16.28.28h.47c.16,0,.3.14.3.31v.78h.65c.19-.25.43-.49.68-.68v-.64h-.78c-.16,0-.31-.13-.31-.31v-.47c-.48-.27-.5-.98,0-1.26.35-.19.79-.08.99.27.2.36.08.8-.27,1-.02.01-.01.05-.01.06h.78c.16,0,.31.14.31.31v.64c.3-.12.62-.21.96-.24v-1.5c-.22-.13-.37-.37-.37-.64,0-.4.33-.72.72-.72s.72.33.72.72c0,.28-.14.51-.37.64v1.5h0Zm-.23.83c.61.03,1.16.28,1.59.66l.43-.44c-.53-.49-1.24-.81-2.02-.84v.61Zm1.75.83c.39.43.63.98.66,1.59h.61c-.03-.78-.35-1.49-.84-2.02l-.44.43Zm.66,1.84c-.03.61-.28,1.16-.66,1.59l.44.43c.49-.53.81-1.24.84-2.02h-.61Zm-.83,1.75c-.43.39-.98.63-1.59.66v.61c.78-.03,1.49-.35,2.02-.84l-.43-.44Zm-1.84.66c-.61-.03-1.16-.28-1.59-.66l-.43.44c.53.49,1.24.81,2.02.84v-.61Zm-1.75-.83c-.39-.43-.63-.98-.66-1.59h-.61c.03.78.35,1.49.84,2.02l.44-.43Zm-.66-1.84c.03-.61.28-1.16.66-1.59l-.43-.43c-.5.53-.82,1.24-.85,2.02h.61Zm.83-1.75c.43-.39.98-.63,1.59-.66v-.61c-.78.03-1.49.35-2.02.84l.43.44Zm1.71-.43c1.27,0,2.3,1.03,2.3,2.3s-1.03,2.3-2.3,2.3-2.3-1.03-2.3-2.3,1.03-2.3,2.3-2.3h0Zm.12-2.72v1.64h-.24v-1.64c-.21-.05-.37-.24-.37-.48,0-.27.22-.49.49-.49s.49.22.49.49c0,.23-.15.43-.37.48Zm4.91,5.15h-1.64v-.24h1.64c.05-.21.24-.37.48-.37.27,0,.49.22.49.49s-.22.49-.49.49c-.23,0-.43-.15-.48-.37Zm-3.47-3.13c.08.04.16.09.23.13v-.68s.02-.04.04-.04h.97s.07-.03.07-.06v-.63c.42-.1.51-.67.12-.9-.23-.13-.53-.05-.67.18-.16.28,0,.64.31.71v.43s-.01.03-.03.03h-.97s-.07.03-.07.07v.75Zm1.32,1.21c.05.08.09.15.13.23h.75s.07-.03.07-.06v-.98s.01-.03.03-.03h.42s.03.08.05.12c.14.23.44.32.67.18s.32-.44.18-.67c-.14-.23-.44-.32-.67-.17-.12.06-.2.17-.23.31h-.62s-.07.03-.07.06v.98s-.01.03-.03.03h-.68Zm-3,6.82v-1.64h.24v1.64c.21.05.37.24.37.48,0,.27-.21.49-.49.49s-.49-.22-.49-.49c0-.23.15-.43.37-.48Zm3.13-3.47c-.04.08-.08.16-.13.23h.69s.03.02.03.04v.97s.03.07.06.07h.63c.03.12.11.23.22.31.23.13.54.05.67-.18.14-.23.06-.53-.17-.67-.29-.16-.64,0-.72.31h-.42s-.04-.01-.04-.03v-.97s-.03-.07-.06-.07h-.76Zm-1.21,1.32c-.07.05-.15.09-.23.13v.75s.03.07.06.07h.98s.03.01.03.03v.42c-.32.08-.47.44-.31.72.13.23.44.32.67.18.39-.22.3-.8-.12-.91v-.62s-.03-.07-.07-.07h-.97s-.04-.01-.04-.03v-.68Zm-6.82-3h1.64v.24h-1.64c-.05.21-.24.37-.48.37-.27,0-.49-.21-.49-.49s.22-.49.49-.49c.23,0,.43.15.48.37Zm3.47,3.13c-.08-.04-.16-.08-.23-.13v.69s-.02.03-.03.03h-.98s-.06.03-.06.06v.63c-.13.03-.24.11-.31.22-.14.23-.06.54.17.67.23.14.54.06.67-.17.16-.29.01-.64-.31-.72v-.42s.01-.04.03-.04h.98s.06-.03.06-.06v-.76Zm-1.32-1.21c-.04-.07-.09-.15-.13-.23h-.75s-.07.03-.07.06v.98s-.01.03-.03.03h-.42c-.08-.32-.44-.47-.72-.31-.23.13-.32.44-.18.67.22.39.8.3.91-.12h.62s.07-.03.07-.07v-.97s.01-.04.03-.04h.68Zm-.13-3.36c.04-.08.09-.16.13-.23h-.68s-.04-.02-.04-.03v-.98s-.03-.06-.06-.06h-.63c-.03-.13-.11-.24-.22-.31-.23-.14-.54-.06-.67.17s-.05.54.18.67c.28.16.64.01.71-.31h.43s.03.01.03.03v.98s.03.06.07.06h.75Zm1.21-1.32c.08-.04.15-.09.23-.13v-.75s-.03-.07-.06-.07h-.98s-.03-.01-.03-.03v-.42c.32-.08.47-.44.31-.72-.13-.23-.44-.32-.67-.18-.39.22-.3.8.13.91v.62s.03.07.06.07h.98s.03.01.03.03v.68Z"/></g></svg>