<svg id="Doordash_Clone_-_Food_Ordering_Script" data-name="Doordash Clone - Food Ordering Script" xmlns="http://www.w3.org/2000/svg" width="19.489" height="25.985" viewBox="0 0 19.489 25.985">
  <g id="Group_537" data-name="Group 537" transform="translate(5.511 12.132)">
    <path id="Path_371" data-name="Path 371" d="M172.317,234.051h-.78v-.78h.78Zm-1.56,0h-.78v-.78h.78Zm-1.56,0h-.78v-.78h.78Z" transform="translate(-168.416 -233.271)" fill="#001f4e"/>
  </g>
  <g id="Group_538" data-name="Group 538" transform="translate(0)">
    <path id="Path_372" data-name="Path 372" d="M81.925,98.423a1.56,1.56,0,0,0-2.429-1.3,1.56,1.56,0,0,0-2.339-.778,1.56,1.56,0,0,0-2.254-.838V92.965a1.56,1.56,0,1,0-3.12,0v4.677l-.778.015a1.562,1.562,0,0,0-1.556,1.559l0,1.553H63.878a.651.651,0,0,1-.65-.65V82.437h-.78V100.12a1.432,1.432,0,0,0,1.43,1.43h5.567l0,1.022.847,1.563.686-.372-.752-1.388.006-3.157a.781.781,0,0,1,.78-.78l.774-.015v3.511h.78V92.965a.78.78,0,1,1,1.56,0V99.6h.78V96.863a.78.78,0,1,1,1.56,0V99.6h.78v-1.95a.78.78,0,1,1,1.56,0V99.6h.78V98.423a.78.78,0,1,1,1.56,0l.013,5.526.78,0Z" transform="translate(-62.448 -78.15)" fill="#001f4e"/>
    <path id="Path_373" data-name="Path 373" d="M63.228,1.43a.651.651,0,0,1,.65-.65h2.366v.806a1.432,1.432,0,0,0,1.43,1.43h4.268a1.432,1.432,0,0,0,1.43-1.43V.78H75.84a.651.651,0,0,1,.65.65V16.769h.78V1.43A1.432,1.432,0,0,0,75.84,0H63.878a1.432,1.432,0,0,0-1.43,1.43v2.08h.78ZM72.593.78v.806a.651.651,0,0,1-.65.65H67.675a.651.651,0,0,1-.65-.65V.78Z" transform="translate(-62.448)" fill="#001f4e"/>
    <path id="Path_374" data-name="Path 374" d="M119.922,106.012v-.78h-.538a4.417,4.417,0,0,0-4-4v-.462h-.78v.462a4.417,4.417,0,0,0-4,4h-.526v.78h9.849Zm-8.54-.78a3.631,3.631,0,0,1,7.219,0Z" transform="translate(-107.596 -95.526)" fill="#001f4e"/>
    <path id="Path_375" data-name="Path 375" d="M115.073,284.938h3.894v.78h-3.894Z" transform="translate(-112.336 -270.119)" fill="#001f4e"/>
    <path id="Path_376" data-name="Path 376" d="M115.073,314.938h3.894v.78h-3.894Z" transform="translate(-112.336 -298.559)" fill="#001f4e"/>
    <path id="Path_377" data-name="Path 377" d="M115.073,344.938h3.894v.78h-3.894Z" transform="translate(-112.336 -326.998)" fill="#001f4e"/>
  </g>
</svg>
