<?xml version="1.0" encoding="UTF-8"?>
<svg id="Layer_2" data-name="Layer 2" xmlns="http://www.w3.org/2000/svg" viewBox="0 0 511.36 511.37">
  <defs>
    <style>
      .cls-1 {
        fill: #16224c;
      }
    </style>
  </defs>
  <g id="Layer_1-2" data-name="Layer 1">
    <g>
      <path class="cls-1" d="m480.94,225.23c-14.76,0-27.08,10.6-29.82,24.6h-25.24c-.55-16.47-3.46-32.35-8.39-47.33h12.68c11.57,0,20.99-9.42,20.99-20.99v-24.3c13.98-2.74,24.57-15.09,24.57-29.9,0-16.78-13.65-30.42-30.42-30.42s-30.42,13.65-30.42,30.42c0,14.8,10.59,27.15,24.56,29.9v24.3c0,5.11-4.16,9.27-9.27,9.27h-17.01c-17.29-41.78-50.76-75.24-92.58-92.54v-17.05c0-5.11,4.16-9.27,9.27-9.27h24.3c2.75,13.98,15.09,24.57,29.89,24.57,16.78,0,30.42-13.65,30.42-30.42s-13.65-30.42-30.42-30.42c-14.8,0-27.15,10.59-29.89,24.56h-24.3c-11.57,0-20.99,9.42-20.99,20.99v12.73c-14.97-4.93-30.85-7.85-47.33-8.42v-25.25c14-2.72,24.6-15.05,24.6-29.84,0-16.77-13.65-30.42-30.42-30.42s-30.49,13.65-30.49,30.42c0,14.76,10.6,27.08,24.6,29.83v25.25c-16.47.55-32.35,3.44-47.33,8.37v-12.67c0-11.57-9.42-20.99-20.99-20.99h-24.3c-2.75-13.97-15.09-24.56-29.89-24.56-16.77,0-30.42,13.65-30.42,30.42s13.65,30.42,30.42,30.42c14.8,0,27.15-10.59,29.89-24.57h24.3c5.11,0,9.27,4.16,9.27,9.27v17c-41.84,17.28-75.32,50.76-92.62,92.59h-16.97c-5.11,0-9.27-4.16-9.27-9.27v-24.3c13.97-2.75,24.56-15.09,24.56-29.9,0-16.78-13.65-30.42-30.42-30.42s-30.42,13.65-30.42,30.42c0,14.8,10.59,27.15,24.56,29.9v24.3c0,11.57,9.42,20.99,20.99,20.99h12.65c-4.93,14.97-7.83,30.85-8.38,47.33h-25.2c-2.72-13.99-15.05-24.6-29.83-24.6-16.77,0-30.42,13.65-30.42,30.42s13.65,30.49,30.42,30.49c14.76,0,27.08-10.6,29.82-24.6h25.22c.56,16.47,3.47,32.35,8.41,47.33h-12.68c-11.57,0-20.99,9.42-20.99,20.99v24.3c-13.97,2.75-24.56,15.09-24.56,29.9,0,16.77,13.65,30.42,30.42,30.42s30.42-13.65,30.42-30.42c0-14.8-10.59-27.15-24.56-29.9v-24.3c0-5.11,4.16-9.27,9.27-9.27h17c17.3,41.85,50.78,75.33,92.59,92.62v16.96c0,5.11-4.16,9.27-9.27,9.27h-24.3c-2.75-13.97-15.09-24.56-29.89-24.56-16.77,0-30.42,13.65-30.42,30.42s13.65,30.42,30.42,30.42c14.8,0,27.15-10.59,29.89-24.56h24.3c11.57,0,20.99-9.42,20.99-20.99v-12.64c14.97,4.93,30.86,7.83,47.33,8.38v25.19c-14,2.72-24.6,15.05-24.6,29.83,0,16.77,13.65,30.42,30.42,30.42s30.49-13.65,30.49-30.42c0-14.76-10.6-27.08-24.6-29.82v-25.21c16.47-.57,32.35-3.48,47.33-8.42v12.69c0,11.57,9.42,20.99,20.99,20.99h24.3c2.75,13.97,15.09,24.56,29.89,24.56,16.78,0,30.42-13.65,30.42-30.42s-13.65-30.42-30.42-30.42c-14.8,0-27.15,10.59-29.89,24.56h-24.3c-5.11,0-9.27-4.16-9.27-9.27v-17.02c41.8-17.31,75.25-50.78,92.55-92.58h17.04c5.11,0,9.27,4.16,9.27,9.27v24.3c-13.98,2.75-24.56,15.1-24.56,29.9,0,16.77,13.65,30.42,30.42,30.42s30.42-13.65,30.42-30.42c0-14.81-10.59-27.15-24.57-29.9v-24.3c0-11.57-9.42-20.99-20.99-20.99h-12.7c4.94-14.97,7.85-30.85,8.42-47.33h25.23c2.72,14,15.05,24.6,29.83,24.6,16.77,0,30.42-13.65,30.42-30.42s-13.65-30.49-30.42-30.49h0Zm-54.35-97.91c0-10.32,8.39-18.71,18.71-18.71s18.71,8.39,18.71,18.71-8.39,18.78-18.71,18.78c-10.32,0-18.71-8.43-18.71-18.78Zm-42.55-79.97c10.32,0,18.71,8.39,18.71,18.71s-8.39,18.71-18.71,18.71-18.78-8.39-18.78-18.71,8.42-18.71,18.78-18.71ZM127.31,84.77c-10.31,0-18.71-8.39-18.71-18.71s8.39-18.71,18.71-18.71,18.78,8.39,18.78,18.71-8.42,18.71-18.78,18.71Zm-61.25,61.32c-10.31,0-18.71-8.42-18.71-18.78s8.39-18.71,18.71-18.71,18.71,8.39,18.71,18.71-8.39,18.78-18.71,18.78Zm-35.65,128.33c-10.31,0-18.71-8.42-18.71-18.78s8.39-18.71,18.71-18.71,18.71,8.39,18.71,18.71c0,10.36-8.38,18.78-18.71,18.78Zm54.35,109.63c0,10.31-8.39,18.71-18.71,18.71s-18.71-8.39-18.71-18.71,8.39-18.78,18.71-18.78,18.71,8.42,18.71,18.78Zm42.55,79.96c-10.31,0-18.71-8.39-18.71-18.71s8.39-18.71,18.71-18.71,18.78,8.39,18.78,18.71-8.42,18.71-18.78,18.71Zm256.73-37.42c10.32,0,18.71,8.39,18.71,18.71s-8.39,18.71-18.71,18.71-18.78-8.39-18.78-18.71,8.42-18.71,18.78-18.71Zm61.26-61.32c10.31,0,18.71,8.42,18.71,18.78s-8.39,18.71-18.71,18.71-18.71-8.39-18.71-18.71,8.39-18.78,18.71-18.78ZM236.93,30.42c0-10.31,8.42-18.71,18.78-18.71s18.71,8.39,18.71,18.71-8.39,18.71-18.71,18.71-18.78-8.39-18.78-18.71Zm37.49,450.53c0,10.31-8.42,18.71-18.78,18.71s-18.71-8.39-18.71-18.71,8.39-18.71,18.71-18.71c10.36,0,18.78,8.38,18.78,18.71Zm-18.85-66.59c-87.4,0-158.56-71.95-158.56-158.73S168.13,97.07,255.57,97.07s158.73,71.13,158.73,158.55-69.78,158.73-158.73,158.73Zm225.37-139.93c-10.31,0-18.71-8.39-18.71-18.71s8.39-18.78,18.71-18.78,18.71,8.42,18.71,18.78-8.39,18.71-18.71,18.71Z"/>
      <path class="cls-1" d="m202.24,261.5l51.76,17.5s.03,0,.05,0c.59.2,1.2.3,1.83.3s1.24-.11,1.83-.3c.02,0,.04,0,.05,0l51.36-17.5c3.5-1.2,5.03-5.46,3.04-8.63-.49-.79-50.66-75.53-51.45-76.31-2.97-3.27-6.36-3.62-9.7-.02l-51.76,76.12c-2.29,4.58.15,7.89,2.97,8.84Zm59.49-62.52l28.08,41.62-28.08-14.18v-27.44Zm0,40.55l30.43,15.37-30.43,10.38v-25.75Zm-11.71-40.68v27.55c-1.76.88-29.37,14.72-28.42,14.23l28.42-41.78Zm0,40.65v25.79l-30.74-10.4c.8-.41,32.76-16.41,30.74-15.4Z"/>
      <path class="cls-1" d="m305.18,277.61l-49.32,18.43-49.72-18.44c-2.51-.94-5.32-.05-6.85,2.15-1.52,2.19-1.37,5.14.37,7.16l51.76,59.99c2.37,2.75,6.6,2.65,8.88-.02l51.36-59.99c1.73-2.03,1.88-4.97.35-7.16-1.53-2.18-4.36-3.06-6.85-2.12Zm-55.17,49.72l-26.61-30.84,26.61,9.87v20.97Zm11.71-.09v-20.88l26.29-9.83-26.29,30.71Z"/>
      <path class="cls-1" d="m255.61,134.16c-66.99,0-121.49,54.49-121.49,121.49s54.49,121.61,121.49,121.61,121.61-54.56,121.61-121.61c0-66.99-54.56-121.49-121.61-121.49Zm0,231.39c-60.53,0-109.78-49.3-109.78-109.9s49.25-109.78,109.78-109.78,109.9,49.25,109.9,109.78c0,60.6-49.3,109.9-109.9,109.9Z"/>
    </g>
  </g>
</svg>