<svg id="_27-hiking_nature_travel_mountain_adventure" xmlns="http://www.w3.org/2000/svg" width="21.496" height="22.995" viewBox="0 0 21.496 22.995">
  <path id="Path_297" data-name="Path 297" d="M17.948,22.877l-.54,3.084a.5.5,0,0,0-.045.2.556.556,0,0,1-.12.3l-2.06,2.654A.5.5,0,0,0,15.5,30h.04l6.5-.5a.5.5,0,0,0,.45-.6l-.89-4.4a.5.5,0,0,0-.265-.345L18.693,22.6A.506.506,0,0,0,17.948,22.877ZM16.583,28.91l1.37-1.765a1.581,1.581,0,0,0,.325-.8.93.93,0,0,1,.05-.185l.41-2.374,1.925,1.13L21.4,28.54Zm14.652-3.349a.5.5,0,0,0-.5,0L27.5,27.611V20A1.375,1.375,0,0,0,29,18.76a1.353,1.353,0,0,0,0-.262,1.41,1.41,0,0,0-.625-1.235A1.567,1.567,0,0,0,27.546,17H27.5V14a.5.5,0,0,0-1,0v3.024h-3l-2.634-2a2.825,2.825,0,0,0-2.914-.33,4.678,4.678,0,0,0-.38-1.315,2.459,2.459,0,0,0-1.42-1.355,2.86,2.86,0,0,0-2.29.2A4.05,4.05,0,0,0,12,14.879c-.5,2-1,4.5-1,4.5a2.939,2.939,0,0,0,2.137,3.566c.087.022.174.039.263.053a2.96,2.96,0,0,0,.535.055,2.665,2.665,0,0,0,1.665-.615l-.5,3c-1.895,2.334-2.6,3.239-2.879,3.624l-1.84.435A.5.5,0,0,0,10,30v1.5a.5.5,0,0,0,.5.5H31a.5.5,0,0,0,.5-.5V26a.5.5,0,0,0-.26-.435ZM26.5,28h-1.61c-.83-3.254-1.065-4.179-1.145-4.464l-.025-.085a.173.173,0,0,0,0-.06,2.183,2.183,0,0,0-.74-1l-2.314-1.36.4-2.324,1.36.97a1.686,1.686,0,0,0,1,.315H26.5ZM15.933,20.462c-.465.77-1.215,1.77-2.334,1.545a1.97,1.97,0,0,1-1.63-2.258c.008-.05.018-.1.03-.151,0-.025.5-2.5,1-4.5a3.044,3.044,0,0,1,1.37-2,1.81,1.81,0,0,1,1.5-.13c1.065.355,1.19,2.139,1.17,2.419a.328.328,0,0,0,0,.07,1.738,1.738,0,0,0-.335.725l-.735,4.274ZM30.5,30.995H11v-.61l1.62-.39a.5.5,0,0,0,.325-.26c.195-.295,1.93-2.454,3-3.764a.539.539,0,0,0,.1-.245l1.615-9.353a1.027,1.027,0,0,1,.365-.54,1.8,1.8,0,0,1,2.245,0l2.764,2.1a.5.5,0,0,0,.3.1h4.229a.567.567,0,0,1,.32.13.469.469,0,0,1,.1.33c0,.45-.16.5-.5.5H23.377a.685.685,0,0,1-.395-.125l-2-1.435a.515.515,0,0,0-.8.32l-.595,3.449a.5.5,0,0,0,.24.5l2.614,1.535a1.757,1.757,0,0,1,.325.5c.06.22.77,3,1.24,4.859a.582.582,0,0,0,.13.23c.145.14.155.15,2.329.145v.445a.5.5,0,0,0,1,0v-.65l3-1.895Zm-10-17A2.5,2.5,0,1,0,18,11.5,2.5,2.5,0,0,0,20.5,14Zm0-4A1.5,1.5,0,1,1,19,11.5,1.5,1.5,0,0,1,20.5,10Z" transform="translate(-10 -9)" fill="#001f4e"/>
</svg>
