<?xml version="1.0" encoding="UTF-8"?>
<svg id="Layer_1" xmlns="http://www.w3.org/2000/svg" viewBox="0 0 512 512">
  <path d="M473.8,14.85H38.2C20.4,14.85,6,29.35,6,47.05v334c0,17.7,14.4,32.2,32.2,32.2h153.9v36.8l-33.9,25.2c-4.2,3.1-5.9,8.6-4.3,13.6,1.7,5,6.3,8.3,11.5,8.3h181.1c5.3,0,9.8-3.2,11.5-8.2s.1-10.3-4-13.5l-32.4-25.3v-37h152.2c17.7,0,32.2-14.4,32.2-32.2V47.05c0-17.7-14.4-32.2-32.2-32.2ZM490.3,381.05c0,9.1-7.4,16.5-16.5,16.5h-160c-4.3,0-7.8,3.5-7.8,7.8v48.7c0,2.4,1.1,4.7,3,6.2l27.4,21.4h-160.4l28.6-21.3c2-1.5,3.2-3.8,3.2-6.3v-48.7c0-4.3-3.5-7.8-7.8-7.8H38.2c-9.1,0-16.5-7.4-16.5-16.5V47.05c0-9.1,7.4-16.5,16.5-16.5h435.7c9.1,0,16.5,7.4,16.5,16.5v334h-.1Z" fill="#16224c"/>
  <path d="M124.9,271.75c4.5,0,8.1-3.6,8.1-8.1V105.55c0-4.5-3.6-8.1-8.1-8.1s-8.1,3.6-8.1,8.1v158.1c.1,4.5,3.7,8.1,8.1,8.1Z" fill="#16224c"/>
  <path d="M384.6,271.75c4.5,0,8.1-3.6,8.1-8.1V105.55c0-4.5-3.6-8.1-8.1-8.1s-8.1,3.6-8.1,8.1v158.1c.1,4.5,3.7,8.1,8.1,8.1Z" fill="#16224c"/>
  <path d="M162.7,228.05c1.6,0,3.2-.5,4.6-1.5l46.5-33.4,50.5,33.5c3,2,7,1.7,9.6-.8l64.9-59.8-.2,13.1c-.1,4.3,3.4,7.9,7.7,8h.1c4.3,0,7.8-3.4,7.8-7.7l.5-31.3v-.6c0-.3,0-.6-.1-.9,0-.2-.1-.4-.2-.6-.1-.3-.1-.6-.2-.8s-.2-.4-.3-.6c-.1-.3-.2-.5-.4-.8-.1-.2-.3-.4-.4-.6s-.2-.4-.4-.5l-.1-.1-.1-.1c-.1-.1-.3-.2-.4-.4-.2-.2-.4-.4-.7-.5l-.6-.3c-.3-.1-.5-.3-.8-.4-.2-.1-.4-.2-.6-.2-.3-.1-.5-.2-.8-.2-.2,0-.5-.1-.7-.1-.3,0-.5-.1-.8-.1h-.2l-31.3.8c-4.3.1-7.7,3.7-7.6,8,.1,4.3,3.6,7.8,8,7.6l10.5-.3-58.5,53.9-49.9-33.1c-2.7-1.8-6.2-1.7-8.9.2l-50.9,36.5c-3.5,2.5-4.3,7.4-1.8,10.9,1.3,2.1,3.7,3.2,6.2,3.2h0Z" fill="#16224c"/>
  <path d="M332.9,119.05c4.4-.1,7.9-3.7,7.9-8.1v-5.4c0-4.5-3.6-8.1-8.1-8.1s-8.1,3.6-8.1,8.1v5.4c0,4.6,3.8,8.2,8.3,8.1h0Z" fill="#16224c"/>
  <path d="M220.8,238.85v24.8c0,4.5,3.6,8.1,8.1,8.1s8.1-3.6,8.1-8.1v-24.8c0-2.7-1.4-5.2-3.6-6.7-5.5-3.6-12.6.2-12.6,6.7Z" fill="#16224c"/>
  <path d="M225,157.25c.1,0,.1.1.2.1,5.3,2.8,11.6-1.1,11.6-7.1v-44.8c0-4.4-3.6-8-8-8h-.2c-4.4,0-8,3.6-8,8v44.7c.2,3,1.8,5.7,4.4,7.1Z" fill="#16224c"/>
  <path d="M181.6,170.55c2.1-1.5,3.4-4,3.4-6.6v-58.4c0-4.5-3.6-8.1-8.1-8.1s-8.1,3.6-8.1,8.1v58.4c0,6.6,7.4,10.4,12.8,6.6h0Z" fill="#16224c"/>
  <path d="M173.4,247.05c-.1,0-.1.1-.2.1-2.7,1.3-4.4,4.1-4.4,7.1v9.5c0,4.4,3.6,8,8,8h.2c4.4,0,8-3.6,8-8v-9.6c0-6-6.3-9.8-11.6-7.1Z" fill="#16224c"/>
  <path d="M286.3,163.45c1.6-1.5,2.5-3.6,2.5-5.8v-52c0-4.5-3.6-8.1-8.1-8.1s-8.1,3.6-8.1,8.1v52c.1,7,8.6,10.7,13.7,5.8Z" fill="#16224c"/>
  <path d="M277.7,247.75c-.1,0-.1.1-.2.1-2.9,1.2-4.8,4.1-4.8,7.3v8.6c0,4.4,3.6,8,8,8h.2c4.4,0,8-3.6,8-8v-8.7c-.1-5.8-5.9-9.6-11.2-7.3h0Z" fill="#16224c"/>
  <path d="M332.7,208.05c-4.5,0-8.1,3.6-8.1,8.1v47.6c0,4.5,3.6,8.1,8.1,8.1s8.1-3.6,8.1-8.1v-47.7c0-4.4-3.6-8-8.1-8h0Z" fill="#16224c"/>
  <path d="M434.4,329.65H77.6c-4.3,0-7.8,3.5-7.8,7.8s3.5,7.8,7.8,7.8h356.8c4.3,0,7.8-3.5,7.8-7.8s-3.5-7.8-7.8-7.8Z" fill="#16224c"/>
</svg>