<svg id="Gabble_-_Whatsapp_Clone" data-name="Gabble - Whatsapp Clone" xmlns="http://www.w3.org/2000/svg" width="20.225" height="20.225" viewBox="0 0 20.225 20.225">
  <path id="Path_386" data-name="Path 386" d="M0,20.224l1.166-5.733A9.936,9.936,0,0,1,.137,10.043,10.044,10.044,0,1,1,10.181,20.087a9.935,9.935,0,0,1-4.442-1.034Zm5.877-2.176.149.078a8.992,8.992,0,0,0,4.155,1,9.087,9.087,0,1,0-9.087-9.087,8.992,8.992,0,0,0,1,4.155l.078.149L1.225,19Zm0,0" fill="#001f4e"/>
  <path id="Path_387" data-name="Path 387" d="M107.64,107.956H107.2a8.139,8.139,0,0,1-8.13-8.13v-.442a2.851,2.851,0,0,1,.843-2.027l.395-.395a1.672,1.672,0,0,1,2.308,0l1.238,1.231a1.62,1.62,0,0,1,.478,1.154,1.644,1.644,0,0,1-.478,1.154l-.114.113a1.249,1.249,0,0,0-.365.885,1.268,1.268,0,0,0,.365.885l.9.9a1.3,1.3,0,0,0,1.776,0l.113-.114a1.672,1.672,0,0,1,2.308,0l1.237,1.244a1.632,1.632,0,0,1,0,2.308l-.394.395a2.851,2.851,0,0,1-2.033.843Zm-6.182-10.522a.676.676,0,0,0-.478.2l-.395.395a1.9,1.9,0,0,0-.562,1.351v.448A7.18,7.18,0,0,0,107.2,107h.442a1.9,1.9,0,0,0,1.351-.562l.395-.395a.676.676,0,0,0,0-.956l-1.231-1.238a.694.694,0,0,0-.957,0l-.113.114a2.212,2.212,0,0,1-3.127,0l-.9-.9a2.224,2.224,0,0,1-.646-1.566,2.2,2.2,0,0,1,.646-1.56l.114-.113a.682.682,0,0,0,.2-.478.675.675,0,0,0-.2-.478l-1.238-1.237a.676.676,0,0,0-.478-.2Zm0,0" transform="translate(-94.625 -92.173)" fill="#001f4e"/>
</svg>
