<svg id="GoferDelivery_-_Delivery_Script" data-name="GoferDelivery - Delivery Script" xmlns="http://www.w3.org/2000/svg" width="19.489" height="18.443" viewBox="0 0 19.489 18.443">
  <path id="Path_337" data-name="Path 337" d="M16.838.844a.287.287,0,0,0-.224.528A3.789,3.789,0,1,1,15.588,1.1a.287.287,0,0,0,.068-.57,4.363,4.363,0,0,0-4.081,6.836H5.566a.486.486,0,0,0-.485.485v3.709L4.542,12.62a.883.883,0,0,1-.474.427.735.735,0,0,0-.735-.749H2.228a.736.736,0,0,0-.735.764H.782A.782.782,0,0,0,0,13.843v.347a.287.287,0,0,0,.573,0v-.347a.208.208,0,0,1,.208-.208h.711V17.6H.782A.208.208,0,0,1,.574,17.4V15.337a.287.287,0,1,0-.573,0V17.4a.782.782,0,0,0,.781.781h.711a.737.737,0,0,0,.735.764H3.334a.736.736,0,0,0,.707-.537c.353.094-.619.057,12.213.057a.537.537,0,0,0,.536-.536V8.894a4.365,4.365,0,0,0,.047-8.05ZM3.5,15.6v2.6a.164.164,0,0,1-.161.162H2.228a.164.164,0,0,1-.162-.162V13.033a.164.164,0,0,1,.162-.162H3.334a.163.163,0,0,1,.161.162ZM8.734,7.94H10.92v2.25l-.85-.665a.4.4,0,0,0-.487,0l-.85.665Zm-.066,9.946c-4.552,0-4.33.03-4.6-.076V13.644a1.462,1.462,0,0,0,1.012-.819l.651-1.278c.1-.19.632.29.379.787l-.277.544a.551.551,0,0,0,.491.8H9.916a.325.325,0,0,1,.328.315.312.312,0,0,1-.31.307H7.693a.287.287,0,0,0,0,.573h3.346a.354.354,0,0,1,.318.261.281.281,0,0,1-.3.36H7.668a.287.287,0,1,0,0,.573h2.875a.311.311,0,0,1,.208.531.307.307,0,0,1-.219.091H7.393a.287.287,0,0,0,0,.573c1.365,0,1.373-.03,1.495.091a.312.312,0,0,1-.22.531Zm7.549,0H14.573V12.376a.287.287,0,1,0-.573,0v5.512H9.494a.872.872,0,0,0,0-.624h1.034a.885.885,0,0,0,.811-1.237.868.868,0,0,0,.332-1.454,1.085,1.085,0,0,0-.914-.273.889.889,0,0,0-.844-1.2H6.361l.26-.511c.436-.857-.317-1.8-.967-1.648V7.94H8.16v2.616a.4.4,0,0,0,.4.4c.177,0,.141,0,1.271-.888,1.115.872,1.09.888,1.271.888a.4.4,0,0,0,.4-.4V7.94h.565A4.326,4.326,0,0,0,14,9.066v2.163a.287.287,0,1,0,.573,0V9.18a4.414,4.414,0,0,0,1.644-.1Zm0,0" transform="translate(-0.001 -0.498)" fill="#001f4e"/>
  <path id="Path_338" data-name="Path 338" d="M335.306,68.992a.287.287,0,1,0-.429.38l1.155,1.3a.559.559,0,0,0,.836,0l2.652-2.976a.287.287,0,0,0-.428-.381l-2.641,2.964Zm0,0" transform="translate(-322.06 -64.684)" fill="#001f4e"/>
</svg>
