<svg id="GoferAlcohol_-_Alcohol_Delivery_Script" data-name="GoferAlcohol - Alcohol Delivery Script" xmlns="http://www.w3.org/2000/svg" width="19.489" height="17.46" viewBox="0 0 19.489 17.46">
  <path id="Path_353" data-name="Path 353" d="M18.262,81.751H7.857A2.862,2.862,0,0,1,5,78.893V73.5a.233.233,0,1,1,.466,0v5.392a2.4,2.4,0,0,0,2.393,2.393h10.4a2.4,2.4,0,0,0,2.393-2.393V71.487a3.6,3.6,0,0,1-2.89-5.391H7.859a2.4,2.4,0,0,0-2.393,2.393v3.194a.233.233,0,1,1-.466,0V68.489A2.862,2.862,0,0,1,7.859,65.63H18.2a.233.233,0,0,1,.186.373,3.136,3.136,0,0,0,2.5,5.025.233.233,0,0,1,.233.233v7.631A2.862,2.862,0,0,1,18.262,81.751Z" transform="translate(-5 -64.291)" fill="#001f4e"/>
  <path id="Path_354" data-name="Path 354" d="M5.233,235.255A.233.233,0,0,1,5,235.022v-.349a.233.233,0,1,1,.466,0v.349A.233.233,0,0,1,5.233,235.255Z" transform="translate(-5 -226.547)" fill="#001f4e"/>
  <path id="Path_355" data-name="Path 355" d="M97.028,155.831H94.219a.841.841,0,0,1-.839-.839v-5.63a2.252,2.252,0,0,1,.929-1.818.611.611,0,0,0,.248-.5V144.7a.233.233,0,0,1,.233-.233h1.666a.233.233,0,0,1,.233.233v2.344a.612.612,0,0,0,.248.5,2.252,2.252,0,0,1,.931,1.818v5.63A.841.841,0,0,1,97.028,155.831Zm-2-10.9v2.111a1.079,1.079,0,0,1-.441.874,1.784,1.784,0,0,0-.738,1.44v5.63a.374.374,0,0,0,.373.374h2.808a.374.374,0,0,0,.373-.374v-5.63a1.786,1.786,0,0,0-.738-1.44,1.079,1.079,0,0,1-.441-.874v-2.111Z" transform="translate(-89.949 -140.07)" fill="#001f4e"/>
  <path id="Path_356" data-name="Path 356" d="M118.5,124.738h-1.386a.654.654,0,0,1,0-1.308H118.5a.654.654,0,0,1,0,1.308Zm-1.386-.842a.188.188,0,0,0,0,.376H118.5a.188.188,0,0,0,0-.376Z" transform="translate(-112.133 -119.847)" fill="#001f4e"/>
  <path id="Path_357" data-name="Path 357" d="M125.333,106.229h-1.69a.233.233,0,0,1-.233-.233v-.19a.757.757,0,0,1,.757-.757h.642a.758.758,0,0,1,.757.757V106A.233.233,0,0,1,125.333,106.229Zm-1.454-.466H125.1a.291.291,0,0,0-.288-.248h-.642A.291.291,0,0,0,123.879,105.764Z" transform="translate(-118.813 -102.18)" fill="#001f4e"/>
  <path id="Path_358" data-name="Path 358" d="M117.827,284.893c-.755,0-1.347-.854-1.347-1.946s.592-1.947,1.347-1.947,1.347.854,1.347,1.946S118.582,284.893,117.827,284.893Zm0-3.427c-.478,0-.881.678-.881,1.48s.4,1.48.881,1.48.881-.678.881-1.48-.4-1.481-.881-1.481Z" transform="translate(-112.152 -271.299)" fill="#001f4e"/>
  <path id="Path_359" data-name="Path 359" d="M225.407,333.043H223.46a.819.819,0,0,1-.81-.711l-.336-2.569a.815.815,0,0,1,.81-.922h2.619a.815.815,0,0,1,.809.922l-.336,2.569A.819.819,0,0,1,225.407,333.043Zm-2.281-3.737a.349.349,0,0,0-.349.4l.336,2.569a.352.352,0,0,0,.349.306h1.945a.352.352,0,0,0,.349-.306l.334-2.571a.349.349,0,0,0-.347-.4Z" transform="translate(-213.871 -317.282)" fill="#001f4e"/>
  <path id="Path_360" data-name="Path 360" d="M228.018,362.747h-3.165a.233.233,0,0,1-.231-.2l-.23-1.761a.233.233,0,0,1,.231-.263h3.626a.233.233,0,0,1,.233.263l-.23,1.761A.233.233,0,0,1,228.018,362.747Zm-2.961-.466h2.757l.171-1.3h-3.1Z" transform="translate(-215.871 -347.732)" fill="#001f4e"/>
  <path id="Path_361" data-name="Path 361" d="M325.062,38.344a3.6,3.6,0,1,1,3.6-3.6A3.6,3.6,0,0,1,325.062,38.344Zm0-6.738a3.136,3.136,0,1,0,3.136,3.136,3.136,3.136,0,0,0-3.136-3.136Z" transform="translate(-309.174 -31.14)" fill="#001f4e"/>
  <path id="Path_362" data-name="Path 362" d="M354.891,95.581h-.841a.29.29,0,0,1-.238-.455l.771-1.116a.266.266,0,0,0,.039-.2.2.2,0,0,0-.082-.134.07.07,0,0,0-.063-.013c-.112.027-.264.215-.331.334a.233.233,0,1,1-.407-.229,1.208,1.208,0,0,1,.627-.559.535.535,0,0,1,.43.078.664.664,0,0,1,.283.434.728.728,0,0,1-.113.551l-.58.84h.5a.233.233,0,0,1,0,.466Z" transform="translate(-340.169 -90.788)" fill="#001f4e"/>
  <path id="Path_363" data-name="Path 363" d="M391.742,94.8H390.5a.233.233,0,0,1-.209-.336l.548-1.111a.233.233,0,1,1,.418.206l-.382.776h.871a.233.233,0,0,1,0,.466Z" transform="translate(-375.305 -90.813)" fill="#001f4e"/>
  <path id="Path_364" data-name="Path 364" d="M416.713,95.911a.233.233,0,0,1-.233-.233v-1.9a.233.233,0,1,1,.466,0v1.9A.233.233,0,0,1,416.713,95.911Z" transform="translate(-400.504 -91.117)" fill="#001f4e"/>
  <path id="Path_365" data-name="Path 365" d="M439.233,95.6A.233.233,0,0,1,439,95.37V93.453a.233.233,0,0,1,.466,0V95.37A.233.233,0,0,1,439.233,95.6Z" transform="translate(-422.15 -90.81)" fill="#001f4e"/>
  <path id="Path_366" data-name="Path 366" d="M462.963,95.6a.233.233,0,0,1-.233-.233V93.453a.233.233,0,0,1,.466,0V95.37A.233.233,0,0,1,462.963,95.6Z" transform="translate(-444.959 -90.81)" fill="#001f4e"/>
  <path id="Path_367" data-name="Path 367" d="M440.154,118.376h-.921a.233.233,0,1,1,0-.466h.92a.233.233,0,1,1,0,.466Z" transform="translate(-422.15 -114.541)" fill="#001f4e"/>
</svg>
