<svg id="GoferHandy_-_Uber_For_Handyman_Service_App" data-name="GoferHandy - Uber For Handyman Service App" xmlns="http://www.w3.org/2000/svg" width="19.49" height="20.6" viewBox="0 0 19.49 20.6">
  <g id="Group_530" data-name="Group 530" transform="translate(0 0)">
    <g id="Group_526" data-name="Group 526" transform="translate(4.802 9.628)">
      <path id="Path_321" data-name="Path 321" d="M421.727,742.357a.308.308,0,0,1-.118-.023.322.322,0,0,1-.181-.417,3.743,3.743,0,0,0,.262-1.223,1.545,1.545,0,0,0-.025-.347.322.322,0,1,1,.632-.122,2.232,2.232,0,0,1,.038.484,4.308,4.308,0,0,1-.306,1.444A.322.322,0,0,1,421.727,742.357Z" transform="translate(-421.406 -739.964)" fill="#001f4e"/>
      <path id="Path_322" data-name="Path 322" d="M685.668,746.525a.324.324,0,0,1-.3-.2,4.072,4.072,0,0,1-.329-1.475,2.243,2.243,0,0,1,.013-.323.321.321,0,1,1,.638.072,1.841,1.841,0,0,0-.009.237,3.452,3.452,0,0,0,.28,1.243.322.322,0,0,1-.173.421A.358.358,0,0,1,685.668,746.525Z" transform="translate(-681.505 -744.185)" fill="#001f4e"/>
    </g>
    <g id="Group_528" data-name="Group 528" transform="translate(0 11.02)">
      <path id="Path_323" data-name="Path 323" d="M77,853.354H63.622a.321.321,0,0,1-.322-.322v-6.6a1.921,1.921,0,0,1,1.458-1.865l3.129-.779a.321.321,0,0,1,.338.123,2.578,2.578,0,0,0,4.17,0,.324.324,0,0,1,.338-.123l3.129.779a1.918,1.918,0,0,1,1.458,1.865v6.6A.324.324,0,0,1,77,853.354Zm-13.052-.644h12.73v-6.28a1.275,1.275,0,0,0-.97-1.24l-2.925-.729a3.17,3.17,0,0,1-1.042.822,3.238,3.238,0,0,1-2.859,0,3.167,3.167,0,0,1-1.042-.822l-2.925.729a1.277,1.277,0,0,0-.97,1.24Z" transform="translate(-63.3 -843.777)" fill="#001f4e"/>
      <g id="Group_527" data-name="Group 527" transform="translate(2.261 0.197)">
        <path id="Path_324" data-name="Path 324" d="M892.322,891.46a.321.321,0,0,1-.322-.322v-8.416a.322.322,0,0,1,.644,0v8.416A.321.321,0,0,1,892.322,891.46Z" transform="translate(-883.148 -882.08)" fill="#001f4e"/>
        <path id="Path_325" data-name="Path 325" d="M232.222,891.46a.321.321,0,0,1-.322-.322v-8.416a.322.322,0,0,1,.644,0v8.416A.321.321,0,0,1,232.222,891.46Z" transform="translate(-231.9 -882.08)" fill="#001f4e"/>
        <path id="Path_326" data-name="Path 326" d="M344.328,864.157h-6.006a.321.321,0,0,1-.322-.322v-5.013a.322.322,0,1,1,.644,0v4.691h5.363v-4.691a.322.322,0,1,1,.644,0v5.013A.323.323,0,0,1,344.328,864.157Z" transform="translate(-336.577 -858.5)" fill="#001f4e"/>
      </g>
    </g>
    <g id="Group_529" data-name="Group 529" transform="translate(2.799)">
      <path id="Path_327" data-name="Path 327" d="M339.9,416.513a3.233,3.233,0,0,1-2.415-1.1,3.9,3.9,0,0,1-.984-2.626v-1.562a.321.321,0,0,1,.322-.322h6.155a.321.321,0,0,1,.322.322v1.564a3.905,3.905,0,0,1-.984,2.626A3.239,3.239,0,0,1,339.9,416.513Zm-2.757-4.97v1.242a2.773,2.773,0,1,0,5.511,0v-1.242Z" transform="translate(-335.635 -405.685)" fill="#001f4e"/>
      <path id="Path_328" data-name="Path 328" d="M279.611,323.935h-6.694a.917.917,0,0,1,0-1.834h6.694a.917.917,0,0,1,0,1.834Zm-6.694-1.191a.274.274,0,0,0,0,.547h6.694a.274.274,0,1,0,0-.547Z" transform="translate(-272 -318.076)" fill="#001f4e"/>
      <path id="Path_329" data-name="Path 329" d="M617.118,95.564a.323.323,0,0,1-.322-.306,2.984,2.984,0,0,0-2.4-2.788.322.322,0,1,1,.125-.632,3.646,3.646,0,0,1,2.659,2.193,3.621,3.621,0,0,1,.264,1.2.322.322,0,0,1-.306.337Z" transform="translate(-609.544 -90.896)" fill="#001f4e"/>
      <path id="Path_330" data-name="Path 330" d="M319.389,95.564h-.016a.321.321,0,0,1-.306-.337,3.615,3.615,0,0,1,.888-2.207,3.66,3.66,0,0,1,2.036-1.181.322.322,0,1,1,.125.632,2.983,2.983,0,0,0-2.4,2.788A.322.322,0,0,1,319.389,95.564Z" transform="translate(-318.435 -90.896)" fill="#001f4e"/>
      <path id="Path_331" data-name="Path 331" d="M519.414,25.382a.321.321,0,0,1-.322-.322V22.968a.324.324,0,1,0-.649,0V25.06a.322.322,0,1,1-.644,0V22.968a.968.968,0,1,1,1.936,0V25.06A.322.322,0,0,1,519.414,25.382Z" transform="translate(-514.504 -22)" fill="#001f4e"/>
    </g>
  </g>
  <path id="Path_332" data-name="Path 332" d="M1168.562,509.188a.315.315,0,0,1-.125-.025,2.346,2.346,0,0,1-.2-4.232V499.19a2.346,2.346,0,0,1,.2-4.232.321.321,0,0,1,.447.3V496.8h.921v-1.542a.321.321,0,0,1,.447-.3,2.346,2.346,0,0,1,.2,4.232v5.742a2.346,2.346,0,0,1-.2,4.232.321.321,0,0,1-.447-.3v-1.544h-.921v1.541a.323.323,0,0,1-.144.268A.33.33,0,0,1,1168.562,509.188Zm0-2.509h1.565a.321.321,0,0,1,.322.322V508.3a1.7,1.7,0,0,0-.446-2.863.322.322,0,0,1-.2-.3v-6.149a.32.32,0,0,1,.2-.3,1.7,1.7,0,0,0,.446-2.863v1.294a.321.321,0,0,1-.322.322h-1.565a.321.321,0,0,1-.322-.322v-1.294a1.7,1.7,0,0,0,.447,2.863.322.322,0,0,1,.2.3v6.149a.32.32,0,0,1-.2.3,1.7,1.7,0,0,0-.447,2.863V507A.321.321,0,0,1,1168.562,506.679Z" transform="translate(-1152.199 -488.591)" fill="#001f4e"/>
</svg>
