<svg id="GoferGrocery_-_Grocery_Delivery_Script" data-name="GoferGrocery - Grocery Delivery Script" xmlns="http://www.w3.org/2000/svg" width="23.866" height="19.364" viewBox="0 0 23.866 19.364">
  <path id="Path_349" data-name="Path 349" d="M23.866,60.545V54.006l-1.4.7a2.944,2.944,0,0,0,.276-1.252,2.428,2.428,0,0,0-2.216-2.59,1.92,1.92,0,0,0-.351.033,1.145,1.145,0,0,1,1.1-.826v-.7a1.846,1.846,0,0,0-1.818,1.54,1.917,1.917,0,0,0-.422-.047,2.094,2.094,0,0,0-1.649.859,2.982,2.982,0,0,0-.514-.407,2.192,2.192,0,0,0,.688-.457,2.874,2.874,0,0,0,.7-1.89l-.005-.339-.339-.005a2.874,2.874,0,0,0-1.89.705,2.434,2.434,0,0,0-.608,1.14l-.535-1.606-.664.221.606,1.817a2.962,2.962,0,0,0-1.79,1.015V50.093a1.843,1.843,0,1,0-3.686,0v3.919h.7v-.583h1.516v-.7H10.055V51.563h1.516v-.7H10.055v-.77a1.143,1.143,0,1,1,2.286,0v4.473l-.77-.385-1.493.747-1.843-.922v2.083h-6v.7h6v3.779H0v.7H8.235v1.54H.747v.7H8.235v1.54H2.613v.7H8.235v.77a1.1,1.1,0,0,0,1.1,1.1H22.77a1.1,1.1,0,0,0,1.1-1.1V61.292h-.7v5.226a.4.4,0,0,1-.4.4H9.332a.4.4,0,0,1-.4-.4v-3.01h1.89v-.7H8.935V56.789h.77v-.7h-.77v-.95l1.143.572,1.493-.747,1.493.747,1.493-.747,1.493.747,1.493-.747,1.493.747,1.493-.747,1.493.747,1.143-.572v5.406ZM16.528,49.823a1.877,1.877,0,0,1,1-.463,1.6,1.6,0,0,1-1.466,1.466A1.877,1.877,0,0,1,16.528,49.823Zm-1.97,4.358-1.285.643a2.263,2.263,0,1,1,4.295-1,2.283,2.283,0,0,1-.029.358l-1.488.744Zm4.479.747-.848-.424A2.965,2.965,0,0,0,17.84,52.3a1.445,1.445,0,0,1,1.2-.733,1.247,1.247,0,0,1,.584.147l.163.085.163-.085a1.247,1.247,0,0,1,.584-.147,1.736,1.736,0,0,1,1.516,1.89,2.153,2.153,0,0,1-.406,1.284l-1.11-.555Z" transform="translate(0 -48.25)" fill="#001f4e"/>
  <path id="Path_350" data-name="Path 350" d="M320,272.25h.747v.7H320Z" transform="translate(-305.069 -261.798)" fill="#001f4e"/>
  <path id="Path_351" data-name="Path 351" d="M352,272.25h.747v.7H352Z" transform="translate(-335.576 -261.798)" fill="#001f4e"/>
  <path id="Path_352" data-name="Path 352" d="M16,264.25h6.346v.7H16Z" transform="translate(-15.253 -254.171)" fill="#001f4e"/>
</svg>
