<svg id="GoferClean_-_Uber_For_Laundry" data-name="GoferClean - Uber For Laundry" xmlns="http://www.w3.org/2000/svg" width="19.49" height="23.313" viewBox="0 0 19.49 23.313">
  <path id="Path_315" data-name="Path 315" d="M26.41,23.126V4.188A2.19,2.19,0,0,0,24.222,2H9.108A2.19,2.19,0,0,0,6.92,4.188V23.126a2.19,2.19,0,0,0,2.188,2.188H24.222A2.19,2.19,0,0,0,26.41,23.126ZM7.7,4.188a1.412,1.412,0,0,1,1.41-1.41H24.222a1.412,1.412,0,0,1,1.41,1.41V6.923H7.7Zm0,18.938V7.7H25.633V23.126a1.412,1.412,0,0,1-1.41,1.41H9.108a1.412,1.412,0,0,1-1.41-1.41Z" transform="translate(-6.92 -2)" fill="#001f4e"/>
  <path id="Path_316" data-name="Path 316" d="M21.638,21.389a6.585,6.585,0,1,0,6.584,6.585A6.592,6.592,0,0,0,21.638,21.389Zm0,12.392a5.807,5.807,0,1,1,5.807-5.807A5.814,5.814,0,0,1,21.638,33.781Z" transform="translate(-11.894 -13.855)" fill="#001f4e"/>
  <path id="Path_317" data-name="Path 317" d="M24.458,41.739a4.02,4.02,0,0,1-4.016-4.016.389.389,0,1,0-.777,0,4.8,4.8,0,0,0,4.793,4.793.389.389,0,0,0,0-.777Z" transform="translate(-14.713 -23.605)" fill="#001f4e"/>
  <path id="Path_318" data-name="Path 318" d="M15.018,6a1.3,1.3,0,1,0,1.3,1.3A1.3,1.3,0,0,0,15.018,6Zm0,1.813a.518.518,0,1,1,.518-.518A.519.519,0,0,1,15.018,7.814Z" transform="translate(-11.08 -4.446)" fill="#001f4e"/>
  <path id="Path_319" data-name="Path 319" d="M22.8,6a1.3,1.3,0,1,0,1.3,1.3A1.3,1.3,0,0,0,22.8,6Zm0,1.813a.518.518,0,1,1,.518-.518A.519.519,0,0,1,22.8,7.814Z" transform="translate(-15.835 -4.446)" fill="#001f4e"/>
  <path id="Path_320" data-name="Path 320" d="M40.168,8.335H34.556a.389.389,0,0,0,0,.777h5.612a.389.389,0,0,0,0-.777Z" transform="translate(-23.58 -5.873)" fill="#001f4e"/>
</svg>
