<svg id="GoferDeliveryAll_-_Delivery_All_Script" data-name="GoferDeliveryAll - Delivery All Script" xmlns="http://www.w3.org/2000/svg" width="31.369" height="16.98" viewBox="0 0 31.369 16.98">
  <path id="Path_339" data-name="Path 339" d="M39.785,34.439a2.687,2.687,0,1,1,2.685-2.687A2.687,2.687,0,0,1,39.785,34.439Zm0-4.394a1.707,1.707,0,1,0,1.705,1.707,1.707,1.707,0,0,0-1.705-1.707Z" transform="translate(-12.793 -17.458)" fill="#001f4e"/>
  <path id="Path_340" data-name="Path 340" d="M18.116,34.439A2.687,2.687,0,1,1,20.8,31.751,2.687,2.687,0,0,1,18.116,34.439Zm0-4.394a1.707,1.707,0,1,0,1.7,1.707A1.707,1.707,0,0,0,18.116,30.044Z" transform="translate(-5.285 -17.458)" fill="#001f4e"/>
  <path id="Path_341" data-name="Path 341" d="M42.445,28.384H41.1a.49.49,0,1,1,0-.98h1.2V24.8a2.065,2.065,0,0,0-.261-1l-2.653-4.757a.261.261,0,0,0-.228-.134H35.547v8.5h1.167a.49.49,0,1,1,0,.98H35.057a.49.49,0,0,1-.49-.49V18.419a.49.49,0,0,1,.49-.49h4.106a1.242,1.242,0,0,1,1.085.637L42.9,23.323a3.047,3.047,0,0,1,.385,1.481v2.738A.842.842,0,0,1,42.445,28.384Z" transform="translate(-11.917 -13.6)" fill="#001f4e"/>
  <path id="Path_342" data-name="Path 342" d="M13.432,31.408h-4.7a.49.49,0,0,1-.49-.49v-3.77a.49.49,0,1,1,.98,0v3.279h4.209a.49.49,0,0,1,0,.98Z" transform="translate(-2.796 -16.624)" fill="#001f4e"/>
  <path id="Path_343" data-name="Path 343" d="M8.732,22.483a.49.49,0,0,1-.49-.49V18.7a.49.49,0,1,1,.98,0v3.293a.49.49,0,0,1-.49.488Z" transform="translate(-2.796 -13.698)" fill="#001f4e"/>
  <path id="Path_344" data-name="Path 344" d="M25.936,26.089H17.821a.49.49,0,0,1,0-.98h7.625V12.285H9.222V14.3a.49.49,0,1,1-.98,0V12.2a.891.891,0,0,1,.891-.89h16.4a.891.891,0,0,1,.89.89V25.6A.49.49,0,0,1,25.936,26.089Z" transform="translate(-2.796 -11.305)" fill="#001f4e"/>
  <path id="Path_345" data-name="Path 345" d="M8.4,27.638H2.178a.49.49,0,0,1,0-.98H8.4a.49.49,0,0,1,0,.98Z" transform="translate(-0.525 -16.624)" fill="#001f4e"/>
  <path id="Path_346" data-name="Path 346" d="M14.68,24.227H6a.49.49,0,0,1,0-.98H14.68a.49.49,0,0,1,0,.98Z" transform="translate(-1.849 -15.442)" fill="#001f4e"/>
  <path id="Path_347" data-name="Path 347" d="M3.789,20.267H.4a.49.49,0,0,1,0-.98h3.39a.49.49,0,0,1,0,.98Z" transform="translate(0.091 -14.07)" fill="#001f4e"/>
  <path id="Path_348" data-name="Path 348" d="M10.731,16.124H4.747a.49.49,0,0,1,0-.98h5.984a.49.49,0,0,1,0,.98Z" transform="translate(-1.415 -12.635)" fill="#001f4e"/>
</svg>
