<svg xmlns="http://www.w3.org/2000/svg" width="28.766" height="16.981" viewBox="0 0 28.766 16.981">
  <g id="GoferTow_-_Uber_For_Tow_Truck" data-name="GoferTow - Uber For Tow Truck" transform="translate(-10971.228 -13195.51)">
    <path id="Path_313" data-name="Path 313" d="M300.834,218.857h1v.585h-1Z" transform="translate(10692.403 12986.67)" fill="#001f4e"/>
    <path id="GoferTow_-_Uber_For_Tow_Truck-2" data-name="GoferTow - Uber For Tow Truck" d="M1.708,89.287c1.689,0,2.146-2.283,1.21-2.206a.432.432,0,0,0-.394.466c0,.019,0,.037,0,.057a.819.819,0,1,1-.819-.82.432.432,0,0,0,.432-.436V84.96l5.567,5.724a2.367,2.367,0,0,0-1.425,1.752H3.51a.946.946,0,0,0-.945.945v2.4a.946.946,0,0,0,.945.945H5.277a2.634,2.634,0,0,0,5.2,0H21.678a2.634,2.634,0,0,0,5.2,0h.874a1.046,1.046,0,0,0,1.045-1.045V93.418c0-.47.086-.125-2.359-6.32a4.891,4.891,0,0,0-4.574-3.111H17.439a1.731,1.731,0,0,0-1.728,1.729v5.319a2.369,2.369,0,0,0-1.367-.542L3.26,82.235a1.358,1.358,0,0,0-1.984,1.8v1.942a1.683,1.683,0,0,0,.432,3.309Zm8.325,3.148H7.168a1.5,1.5,0,0,1,2.865,0ZM7.875,98.061A1.771,1.771,0,1,1,9.646,96.29a1.771,1.771,0,0,1-1.771,1.771Zm16.4,0a1.771,1.771,0,1,1,1.771-1.771,1.771,1.771,0,0,1-1.771,1.771Zm1.354-10.645.99,2.507H22.052a1.4,1.4,0,0,1-1.4-1.4V84.85H21.86a4.033,4.033,0,0,1,3.771,2.565Zm-9.057-1.7a.867.867,0,0,1,.866-.866h2.352v3.674a2.264,2.264,0,0,0,2.262,2.261h4.909l.9,2.286c.089.223.066.144.066,2.605a.182.182,0,0,1-.181.182h-.874a2.634,2.634,0,0,0-5.2,0H20.9V91.485h-.863v4.373H10.473a2.634,2.634,0,0,0-5.2,0H3.51a.082.082,0,0,1-.082-.082c0-2.544-.035-2.478.082-2.478H16.574Zm-.926,6.72H12.74a1.517,1.517,0,0,1,2.907,0ZM2.727,82.914l10.463,7.8a2.387,2.387,0,0,0-1.337,1.726h-.934a2.363,2.363,0,0,0-2.176-1.923L2.03,83.61A.5.5,0,0,1,2.727,82.914Z" transform="translate(10971.2 13113.567)" fill="#001f4e"/>
  </g>
</svg>
