<svg id="Gofer_-_Uber_Clone" data-name="Gofer - Uber Clone" xmlns="http://www.w3.org/2000/svg" width="19.49" height="19.49" viewBox="0 0 19.49 19.49">
  <g id="XMLID_2241_" transform="translate(0 0)">
    <g id="XMLID_2242_" transform="translate(16.242 16.891)">
      <path id="XMLID_1639_" d="M27.624,29.6h-.65A.976.976,0,0,1,26,28.624v-1.3a.325.325,0,1,1,.65,0v1.3a.325.325,0,0,0,.325.325h.65a.325.325,0,0,0,.325-.325v-1.3a.325.325,0,1,1,.65,0v1.3A.976.976,0,0,1,27.624,29.6Z" transform="translate(-26 -27)" fill="#001f4e"/>
    </g>
    <g id="XMLID_2243_" transform="translate(9.745 18.84)">
      <path id="XMLID_1638_" d="M25.42,30.65h-9.1a.325.325,0,0,1,0-.65h9.1a.325.325,0,0,1,0,.65Z" transform="translate(-16 -30)" fill="#001f4e"/>
    </g>
    <g id="XMLID_2244_" transform="translate(9.745 16.891)">
      <path id="XMLID_1637_" d="M25.42,27.65h-9.1a.325.325,0,0,1,0-.65h9.1a.325.325,0,0,1,0,.65Z" transform="translate(-16 -27)" fill="#001f4e"/>
    </g>
    <g id="XMLID_2245_" transform="translate(12.666 12.348)">
      <path id="XMLID_1636_" d="M27,23.373a.325.325,0,0,1-.325-.325v-.772c0-1.058-.876-1.571-5.852-1.62a.325.325,0,0,1,.006-.65c4.492.044,6.5.382,6.5,2.269v.772A.325.325,0,0,1,27,23.373Z" transform="translate(-20.497 -20.007)" fill="#001f4e"/>
    </g>
    <g id="XMLID_2246_" transform="translate(16.242 14.293)">
      <path id="XMLID_1633_" d="M28.923,24.949h-2.6A.325.325,0,0,1,26,24.624v-.65A.976.976,0,0,1,26.974,23h1.949a.325.325,0,0,1,.325.325v1.3A.325.325,0,0,1,28.923,24.949ZM26.65,24.3H28.6v-.65H26.974a.325.325,0,0,0-.325.325Z" transform="translate(-26 -23)" fill="#001f4e"/>
    </g>
    <g id="XMLID_2248_" transform="translate(11.369 14.293)">
      <path id="XMLID_1632_" d="M22.4,24.949a.325.325,0,0,1-.325-.325.976.976,0,0,0-.974-.975H18.825a.325.325,0,0,1,0-.65H21.1a1.626,1.626,0,0,1,1.624,1.624A.325.325,0,0,1,22.4,24.949Z" transform="translate(-18.5 -23)" fill="#001f4e"/>
    </g>
    <g id="XMLID_2249_" transform="translate(12.993 8.471)">
      <path id="XMLID_1631_" d="M25.917,19.02a.325.325,0,0,1-.309-.222l-1.136-3.415a.814.814,0,0,0-.584-.489c-.551-.07-1.445-.162-2.577-.206A.325.325,0,0,1,21,14.352a.331.331,0,0,1,.337-.312c1.154.045,2.069.139,2.633.21a1.457,1.457,0,0,1,1.118.926l1.137,3.417a.325.325,0,0,1-.206.411.305.305,0,0,1-.1.017Z" transform="translate(-21 -14.04)" fill="#001f4e"/>
    </g>
    <g id="XMLID_2260_">
      <g id="XMLID_2261_" transform="translate(10.395 1.312)">
        <path id="XMLID_1630_" d="M18.535,6.272a.325.325,0,0,1-.248-.536l.851-1a.649.649,0,1,0-.986-.845l-.581.68a.325.325,0,1,1-.494-.422l.581-.679a1.3,1.3,0,1,1,1.974,1.689l-.85,1A.326.326,0,0,1,18.535,6.272Z" transform="translate(-17 -3.019)" fill="#001f4e"/>
      </g>
      <g id="XMLID_2264_" transform="translate(5.846 12.838)">
        <path id="XMLID_1629_" d="M13.573,23.515H10.324a.325.325,0,0,1,0-.65h3.249a.976.976,0,0,0,.974-.975v-.806a.325.325,0,1,1,.65,0v.806A1.626,1.626,0,0,1,13.573,23.515Z" transform="translate(-9.999 -20.76)" fill="#001f4e"/>
      </g>
      <g id="XMLID_2265_" transform="translate(1.949)">
        <path id="XMLID_1628_" d="M4.325,10.42A.325.325,0,0,1,4,10.1V2.624A1.626,1.626,0,0,1,5.624,1h5.847A1.626,1.626,0,0,1,13.1,2.624V6.847a.325.325,0,1,1-.65,0V2.624a.976.976,0,0,0-.974-.975H5.624a.976.976,0,0,0-.974.975V10.1A.325.325,0,0,1,4.325,10.42Z" transform="translate(-4 -1)" fill="#001f4e"/>
      </g>
      <g id="XMLID_2266_" transform="translate(6.497 16.243)">
        <path id="XMLID_1627_" d="M11.325,29.249A.325.325,0,0,1,11,28.924v-1.34a.325.325,0,0,1,.283-.322,2.9,2.9,0,0,0,2-1.138.325.325,0,1,1,.509.4A3.479,3.479,0,0,1,11.65,27.86v1.064A.325.325,0,0,1,11.325,29.249Z" transform="translate(-11 -26.001)" fill="#001f4e"/>
      </g>
      <g id="XMLID_2267_" transform="translate(9.622 5.458)">
        <path id="XMLID_1624_" d="M17.11,12.142A1.3,1.3,0,0,1,16.123,10l.112-.137a1.3,1.3,0,1,1,1.972,1.683l-.1.129A1.28,1.28,0,0,1,17.11,12.142Zm.118-2.091-.054,0a.635.635,0,0,0-.439.225l-.114.14a.64.64,0,0,0-.157.475.65.65,0,0,0,.228.443.66.66,0,0,0,.91-.071l.108-.134a.655.655,0,0,0-.063-.926.645.645,0,0,0-.419-.154Z" transform="translate(-15.811 -9.401)" fill="#001f4e"/>
      </g>
      <g id="XMLID_2268_" transform="translate(9.467 7.645)">
        <path id="XMLID_1621_" d="M16.87,15.933a1.277,1.277,0,0,1-.841-.312,1.3,1.3,0,0,1-.452-.883,1.284,1.284,0,0,1,.307-.946l.494-.572a1.272,1.272,0,0,1,.875-.448,1.311,1.311,0,0,1,.952.309,1.295,1.295,0,0,1,.147,1.83l-.5.572A1.318,1.318,0,0,1,16.87,15.933Zm.489-2.516-.054,0a.63.63,0,0,0-.433.222l-.5.575a.639.639,0,0,0-.152.468.65.65,0,0,0,.228.443.666.666,0,0,0,.916-.071l.492-.569a.646.646,0,0,0-.074-.91l0,0a.653.653,0,0,0-.424-.157Z" transform="translate(-15.572 -12.768)" fill="#001f4e"/>
      </g>
      <g id="XMLID_2269_" transform="translate(9.435 10.318)">
        <path id="XMLID_1618_" d="M16.82,20.051a1.3,1.3,0,0,1-.987-2.147l.5-.568A1.3,1.3,0,1,1,18.3,19.029l-.5.568a1.278,1.278,0,0,1-.985.455Zm.5-2.52-.054,0a.65.65,0,0,0-.446.228l-.5.568a.65.65,0,0,0,.986.847l.5-.572a.651.651,0,0,0-.071-.917.634.634,0,0,0-.418-.156Z" transform="translate(-15.522 -16.882)" fill="#001f4e"/>
      </g>
      <g id="XMLID_2270_" transform="translate(0 5.206)">
        <path id="XMLID_1617_" d="M1.325,23.3A.325.325,0,0,1,1,22.973V9.354a.325.325,0,0,1,.325-.325l.092,0a2,2,0,0,1,1.555.437A2.454,2.454,0,0,1,3.6,11.323v2.906A6.668,6.668,0,0,1,6.165,19.05a.325.325,0,0,1-.648.051A6.054,6.054,0,0,0,3.1,14.672a.33.33,0,0,1-.149-.274V11.323a1.862,1.862,0,0,0-.421-1.387,1.219,1.219,0,0,0-.878-.273v13.31a.325.325,0,0,1-.325.325Z" transform="translate(-1 -9.013)" fill="#001f4e"/>
      </g>
    </g>
    <g id="XMLID_2202_" transform="translate(3.923 3.248)">
      <g id="XMLID_2274_">
        <path id="XMLID_1614_" d="M9.612,13.146a.324.324,0,0,1-.242-.108c-.095-.106-2.332-2.614-2.332-4.551a2.575,2.575,0,0,1,5.148,0c0,1.937-2.237,4.445-2.332,4.551A.324.324,0,0,1,9.612,13.146Zm0-6.5A1.885,1.885,0,0,0,7.688,8.488c0,1.344,1.359,3.142,1.924,3.832.565-.689,1.924-2.488,1.924-3.832A1.885,1.885,0,0,0,9.612,6.65Z" transform="translate(-7.038 -6)" fill="#001f4e"/>
      </g>
      <g id="XMLID_2275_" transform="translate(1.599 1.588)">
        <path id="XMLID_1611_" d="M10.474,10.393a.975.975,0,1,1,.974-.975A.976.976,0,0,1,10.474,10.393Zm0-1.3a.325.325,0,1,0,.325.325A.325.325,0,0,0,10.474,9.094Z" transform="translate(-9.5 -8.444)" fill="#001f4e"/>
      </g>
    </g>
    <g id="XMLID_3098_" transform="translate(12.668 7.146)">
      <path id="XMLID_1610_" d="M22.449,12.65H20.825a.325.325,0,0,1,0-.65h1.624a.325.325,0,0,1,0,.65Z" transform="translate(-20.5 -12)" fill="#001f4e"/>
    </g>
    <g id="XMLID_92_" transform="translate(5.197 1.299)">
      <g id="XMLID_140_">
        <path id="XMLID_1609_" d="M11.273,3.65H9.324a.325.325,0,0,1,0-.65h1.95a.325.325,0,0,1,0,.65Z" transform="translate(-8.999 -3)" fill="#001f4e"/>
      </g>
      <g id="XMLID_138_" transform="translate(0.65 12.344)">
        <path id="XMLID_1608_" d="M10.974,22.65h-.65a.325.325,0,0,1,0-.65h.65a.325.325,0,0,1,0,.65Z" transform="translate(-9.999 -22)" fill="#001f4e"/>
      </g>
    </g>
  </g>
</svg>
