<svg xmlns="http://www.w3.org/2000/svg" width="20.988" height="20.869" viewBox="0 0 20.988 20.869">
  <g id="GoferCart_-_Instacart_Clone" data-name="GoferCart - Instacart Clone" transform="translate(-10940.447 -13503.279)">
    <rect id="Rectangle_36746" data-name="Rectangle 36746" width="1.295" height="0.648" transform="translate(10946.758 13505.87)" fill="#001f4e"/>
    <rect id="Rectangle_36747" data-name="Rectangle 36747" width="1.295" height="0.648" transform="translate(10946.758 13507.475)" fill="#001f4e"/>
    <rect id="Rectangle_36748" data-name="Rectangle 36748" width="1.295" height="0.648" transform="translate(10946.758 13508.873)" fill="#001f4e"/>
    <path id="Path_368" data-name="Path 368" d="M273.3,88h-.648a.648.648,0,0,1-.648.648V89.3A1.3,1.3,0,0,0,273.3,88Z" transform="translate(10679.665 13418.435)" fill="#001f4e"/>
    <path id="Path_369" data-name="Path 369" d="M313.3,97.3v-.648a.649.649,0,0,1-.648-.648H312A1.3,1.3,0,0,0,313.3,97.3Z" transform="translate(10641.418 13410.785)" fill="#001f4e"/>
    <path id="Path_370" data-name="Path 370" d="M33.961,36.065a6.631,6.631,0,0,1-1.785.08l-6.064-.551a.38.38,0,0,1,.034-.759h4.677a.873.873,0,0,0,.872-.873v-.008a.852.852,0,0,0-.17-.508l-.8-1.064a.393.393,0,0,1-.078-.235v-.06a.391.391,0,0,1,.668-.277l1.527,1.527a.349.349,0,0,0,.247.1h3.836v-.7H33.234l-1.425-1.425a1.106,1.106,0,0,0-.115-.1V23.324a.349.349,0,0,0-.349-.349H31V21.929h.523a1.221,1.221,0,0,0,0-2.441h-.036a1.089,1.089,0,0,0-1.54-1.528,1.4,1.4,0,0,0-2.778,0,1.089,1.089,0,0,0-1.54,1.528h-.036a1.214,1.214,0,0,0-.523.118V18.093a2.093,2.093,0,1,0-4.185,0v4.883h-.349a.349.349,0,0,0-.349.349v1.534l-1.873,1.605H16v.7h2.441a.349.349,0,0,0,.227-.084l2.021-1.733a1.147,1.147,0,0,1,.746-.276.144.144,0,0,1,.1.247l-1.251,1.251a.349.349,0,0,0,.247.6H24.2a.174.174,0,0,1,0,.349H21.58a.349.349,0,0,0,0,.7h3.662a.174.174,0,0,1,0,.349H21.58a.349.349,0,0,0,0,.7h2.965a.174.174,0,0,1,0,.349H21.58a.349.349,0,0,0,0,.7H23.3a.022.022,0,0,1,0,.043l-2.395.3-2.373-.678a.349.349,0,0,0-.1-.013H16v.7h2.393l1.793.512v3.324h0a.346.346,0,0,0,.348.349h4.6a1.078,1.078,0,0,0,.911,1.454l6.064.551q.331.03.663.03a7.327,7.327,0,0,0,1.31-.118l2.9-.528-.125-.686ZM24.37,21.58a.349.349,0,0,1,.349-.349h.7a1.4,1.4,0,0,1,1.4,1.4.349.349,0,0,1-.349.349h-.7A1.4,1.4,0,0,1,24.37,21.58Zm1.221-1.4h.872a.349.349,0,0,0,.247-.6l-.523-.523a.391.391,0,0,1,.553-.553l.523.523a.349.349,0,0,0,.6-.247v-.7a.7.7,0,1,1,1.4,0v.7a.349.349,0,0,0,.6.247l.523-.523a.391.391,0,0,1,.553.553l-.523.523a.349.349,0,0,0,.247.6h.872a.523.523,0,0,1,0,1.046h-.872a.349.349,0,0,0-.349.349v.186a2.088,2.088,0,0,0-2.922.129,2.1,2.1,0,0,0-1.961-1.362H25.1A.524.524,0,0,1,25.591,20.185Zm4.664,2.79h-2.7a1.4,1.4,0,0,1,2.7,0ZM21.58,18.093a1.4,1.4,0,1,1,2.79,0v2.5a1.048,1.048,0,0,0-.7.986,2.084,2.084,0,0,0,.535,1.4H21.58Zm.7,5.58h.7v2.79h-.7Zm-.842.7a1.844,1.844,0,0,0-.553.085v-.783h.7v.711A.844.844,0,0,0,21.436,24.371Zm.144,1.888v.2h-.2Zm.7,4.915.7-.087v2.556l-.7-.7Zm-1.352.169.654-.082v1.684l-.7.7v-2.3Zm.45,2.793.553-.553.553.553Zm2.3-3.2a.72.72,0,0,0,.349-.616c0-.007,0-.015,0-.022h.524a.872.872,0,0,0,.852-1.06.872.872,0,0,0-.154-1.73h-.192a.873.873,0,0,0-.854-1.046h-.523v-2.79H31V31a1.09,1.09,0,0,0-1.046,1.088v.06a1.1,1.1,0,0,0,.218.653l.8,1.064a.15.15,0,0,1,.03.09v.008a.175.175,0,0,1-.175.175h-7.15Z" transform="translate(10924.447 13487.279)" fill="#001f4e"/>
  </g>
</svg>
