<svg id="GoferEats_-_UberEats_Clone" data-name="GoferEats - UberEats Clone" xmlns="http://www.w3.org/2000/svg" width="19.49" height="26.259" viewBox="0 0 19.49 26.259">
  <g id="Group_532" data-name="Group 532" transform="translate(0 0)">
    <path id="Path_333" data-name="Path 333" d="M78.293,101.513a10.783,10.783,0,0,1-2.553,2.169A7.229,7.229,0,0,1,74,102.321c-4.4-4.254-9.919-12.715-5.759-19.3a.385.385,0,0,0-.643-.422c-4.444,7.033,1.284,15.907,6.019,20.418.709.657,1.653,1.44,2.126,1.44.783,0,2.875-2.165,3.11-2.412a.385.385,0,0,0-.556-.531Z" transform="translate(-65.994 -78.197)" fill="#001f4e"/>
    <path id="Path_334" data-name="Path 334" d="M124.846,0a9.659,9.659,0,0,0-6.982,2.953.385.385,0,1,0,.552.536,8.9,8.9,0,0,1,6.43-2.72,9,9,0,0,1,8.975,9c0,5.2-3.285,9.895-5.243,12.233a.385.385,0,1,0,.59.494c2.025-2.418,5.423-7.287,5.423-12.727A9.766,9.766,0,0,0,124.846,0Z" transform="translate(-115.101 0)" fill="#001f4e"/>
    <path id="Path_335" data-name="Path 335" d="M111.327,54.287a7.83,7.83,0,0,0,7.821-7.821c-.43-10.376-15.215-10.373-15.643,0A7.83,7.83,0,0,0,111.327,54.287Zm0-14.874a7.06,7.06,0,0,1,7.052,7.052c-.387,9.356-13.718,9.353-14.1,0A7.06,7.06,0,0,1,111.327,39.413Z" transform="translate(-101.582 -36.7)" fill="#001f4e"/>
    <path id="Path_336" data-name="Path 336" d="M157.572,110.422v.542a1.207,1.207,0,0,0,1.206,1.206h6.754a1.207,1.207,0,0,0,1.206-1.206v-.542a1.1,1.1,0,0,0,0-1.838,4.2,4.2,0,0,0-.781-2.29.385.385,0,1,0-.617.46,3.356,3.356,0,0,1,.615,1.647h-7.6c.091-.914.65-2.935,3.8-2.935a5.061,5.061,0,0,1,1.937.337.385.385,0,0,0,.3-.71,5.816,5.816,0,0,0-2.232-.4c-2.792-.062-4.5,1.625-4.582,3.888A1.1,1.1,0,0,0,157.572,110.422Zm8.4.542a.437.437,0,0,1-.436.436h-6.754a.437.437,0,0,1-.436-.436v-.358h7.626v.358Zm.16-1.794a.333.333,0,0,1,0,.667h-7.947a.333.333,0,0,1,0-.667Z" transform="translate(-152.41 -99.325)" fill="#001f4e"/>
  </g>
</svg>
