<?xml version="1.0" encoding="UTF-8"?>
<svg id="Layer_1" xmlns="http://www.w3.org/2000/svg" viewBox="0 0 512 512">
  <path d="M236.48,467.64c-5.86-1.3-76.88-18.4-104.56-88.78-11.29-28.71-11.26-55.85-6.73-78.7,6.15-30.96,22.84-58.72,46.05-80.11,19.76-18.21,45.4-47.79,61.65-90.49,12.96-34.05,15.45-64.61,15.36-85.2,6.77,6.04,53.72,49.4,51.54,118.65-1.87,59.34-38.5,96.59-46.49,104.35-8.27,8.1-43.55,44.47-46.28,102.66-2.4,51.12,21.82,87.12,29.45,97.61Z" fill="none" stroke="#18234c" stroke-miterlimit="10" stroke-width="16.86"/>
  <path d="M299.88,462.8c-8.22-7.74-26.06-26.75-32.89-56.8-11.18-49.2,16.3-87.88,20.83-94.04,11.43-14.67,24.32-34.11,35.34-58.48,6.82-15.08,11.66-29.26,15.15-41.86,4.34,3.77,60.46,54.26,50.07,129.8-6.55,47.61-35.77,78-52.08,91.67-4.81,4.03-10.2,7.27-15.82,10.07-2.77,1.38-5.87,3.26-9,5.81-6.06,4.95-9.65,10.34-11.6,13.83Z" fill="none" stroke="#18234c" stroke-miterlimit="10" stroke-width="16.86"/>
</svg>