<?xml version="1.0" encoding="UTF-8"?>
<svg id="Layer_1" data-name="Layer 1" xmlns="http://www.w3.org/2000/svg" viewBox="0 0 2744.96 2748.65">
  <defs>
    <style>
      .cls-1 {
        stroke-width: 20px;
      }

      .cls-1, .cls-2 {
        fill: none;
        stroke: #001f4e;
        stroke-miterlimit: 10;
      }

      .cls-3 {
        fill: #001f4e;
      }

      .cls-2 {
        stroke-width: 50px;
      }
    </style>
  </defs>
  <g id="ICO">
    <g>
      <g>
        <path class="cls-3" d="M867.74,1708.9c-46.48,0-84.17-37.68-84.17-84.17v-505c0-46.48,37.68-84.17,84.17-84.17s84.17,37.68,84.17,84.17v505c0,46.48-37.68,84.17-84.17,84.17Z"/>
        <path class="cls-3" d="M1372.74,1708.9h-84.17c-139.45,0-252.5-113.05-252.5-252.5v-168.33c0-139.45,113.05-252.5,252.5-252.5h84.17c46.48,0,84.17,37.68,84.17,84.17s-37.68,84.17-84.17,84.17h-84.17c-46.48,0-84.17,37.68-84.17,84.17v168.33c0,46.48,37.68,84.17,84.17,84.17h84.17c46.48,0,84.17,37.68,84.17,84.17s-37.68,84.17-84.17,84.17v-.02Z"/>
        <path class="cls-3" d="M1793.58,1708.9c-139.45,0-252.5-113.05-252.5-252.5v-168.33c0-139.45,113.05-252.5,252.5-252.5s252.5,113.05,252.5,252.5v168.33c0,139.45-113.05,252.5-252.5,252.5ZM1793.58,1203.89c-46.48,0-84.17,37.68-84.17,84.17v168.33c0,46.48,37.68,84.17,84.17,84.17s84.17-37.68,84.17-84.17v-168.33c0-46.48-37.68-84.17-84.17-84.17Z"/>
      </g>
      <path class="cls-3" d="M2382.75,1456.39h252.5c46.48,0,84.17-37.68,84.17-84.17s-37.68-84.17-84.17-84.17h-252.5c-17.2-209.11-99.63-407.54-235.67-567.29l211.26-215.47c125.77,60.23,276.56,7.1,336.79-118.68,60.23-125.77,7.1-276.56-118.68-336.79-125.77-60.23-276.56-7.1-336.79,118.68-33.02,68.96-33.02,149.16,0,218.12l-215.47,215.47c-159.74-136.04-358.18-218.47-567.29-235.67V109.71c0-46.48-37.68-84.17-84.17-84.17s-84.17,37.68-84.17,84.17v256.71c-209.11,17.2-407.54,99.63-567.29,235.67l-215.47-215.47c60.23-125.77,7.1-276.56-118.68-336.79C261.35-10.4,110.56,42.73,50.33,168.51c-60.23,125.77-7.1,276.56,118.68,336.79,68.96,33.02,149.16,33.02,218.12,0l215.47,215.47c-136.04,159.74-218.47,358.18-235.67,567.29H110.22c-46.48,0-84.17,37.68-84.17,84.17s37.68,84.17,84.17,84.17h257.55c17.01,209,99.14,407.41,234.83,567.29l-215.47,215.47c-125.64-60.52-276.55-7.73-337.06,117.91-60.52,125.64-7.73,276.55,117.91,337.06,125.64,60.52,276.55,7.73,337.06-117.91,33.08-68.68,33.37-148.63.77-217.55l215.47-215.47c35.57,30.67,73.26,58.8,112.78,84.17,39.28,24.87,91.28,13.19,116.15-26.09s13.19-91.28-26.09-116.15c-392.83-248.52-509.82-768.44-261.3-1161.27,248.52-392.83,768.44-509.82,1161.27-261.3,392.83,248.52,509.82,768.44,261.3,1161.27-192.78,304.72-558.25,452.8-908.77,368.19-45.32-10.69-90.73,17.38-101.42,62.7-10.69,45.32,17.38,90.73,62.7,101.42,49.02,11.11,98.83,18.43,148.98,21.88v256.71c0,46.48,37.68,84.17,84.17,84.17s84.17-37.68,84.17-84.17v-252.5c209.11-17.2,407.54-99.63,567.29-235.67l215.47,215.47c-60.23,125.77-7.1,276.56,118.68,336.79,125.77,60.23,276.56,7.1,336.79-118.68,60.23-125.77,7.1-276.56-118.68-336.79-68.96-33.02-149.16-33.02-218.12,0l-215.47-215.47c138.98-160.13,223.56-360.23,241.56-571.5h0ZM278.56,2550.57c-46.48.19-84.32-37.33-84.52-83.81-.19-46.48,37.33-84.32,83.81-84.52,22.32-.09,43.77,8.69,59.62,24.41,33,32.73,33.22,86.03.49,119.03-15.72,15.85-37.09,24.8-59.41,24.9h.01ZM2466.92,193.88c46.48-.19,84.32,37.33,84.52,83.81.19,46.48-37.33,84.32-83.81,84.52-22.32.09-43.77-8.69-59.62-24.41-33-32.73-33.22-86.03-.49-119.03,15.72-15.85,37.09-24.8,59.41-24.9h0ZM194.4,278.05c-.19-46.48,37.33-84.32,83.81-84.52,46.48-.19,84.32,37.33,84.52,83.81.09,22.32-8.69,43.77-24.41,59.62-32.73,33-86.03,33.22-119.03.49-15.85-15.72-24.8-37.09-24.9-59.41h0ZM2551.08,2466.4c.19,46.48-37.33,84.32-83.81,84.52-46.48.19-84.32-37.33-84.52-83.81-.09-22.32,8.69-43.77,24.41-59.62,32.73-33,86.03-33.22,119.03-.49,15.85,15.72,24.8,37.09,24.9,59.41h0Z"/>
    </g>
    <g>
      <g>
        <path class="cls-1" d="M867.74,1708.9c-46.48,0-84.17-37.68-84.17-84.17v-505c0-46.48,37.68-84.17,84.17-84.17s84.17,37.68,84.17,84.17v505c0,46.48-37.68,84.17-84.17,84.17Z"/>
        <path class="cls-1" d="M1372.74,1708.9h-84.17c-139.45,0-252.5-113.05-252.5-252.5v-168.33c0-139.45,113.05-252.5,252.5-252.5h84.17c46.48,0,84.17,37.68,84.17,84.17s-37.68,84.17-84.17,84.17h-84.17c-46.48,0-84.17,37.68-84.17,84.17v168.33c0,46.48,37.68,84.17,84.17,84.17h84.17c46.48,0,84.17,37.68,84.17,84.17s-37.68,84.17-84.17,84.17v-.02Z"/>
        <path class="cls-1" d="M1793.58,1708.9c-139.45,0-252.5-113.05-252.5-252.5v-168.33c0-139.45,113.05-252.5,252.5-252.5s252.5,113.05,252.5,252.5v168.33c0,139.45-113.05,252.5-252.5,252.5ZM1793.58,1203.89c-46.48,0-84.17,37.68-84.17,84.17v168.33c0,46.48,37.68,84.17,84.17,84.17s84.17-37.68,84.17-84.17v-168.33c0-46.48-37.68-84.17-84.17-84.17Z"/>
      </g>
      <path class="cls-2" d="M2382.75,1456.39h252.5c46.48,0,84.17-37.68,84.17-84.17s-37.68-84.17-84.17-84.17h-252.5c-17.2-209.11-99.63-407.54-235.67-567.29l211.26-215.47c125.77,60.23,276.56,7.1,336.79-118.68,60.23-125.77,7.1-276.56-118.68-336.79-125.77-60.23-276.56-7.1-336.79,118.68-33.02,68.96-33.02,149.16,0,218.12l-215.47,215.47c-159.74-136.04-358.18-218.47-567.29-235.67V109.71c0-46.48-37.68-84.17-84.17-84.17s-84.17,37.68-84.17,84.17v256.71c-209.11,17.2-407.54,99.63-567.29,235.67l-215.47-215.47c60.23-125.77,7.1-276.56-118.68-336.79C261.35-10.4,110.56,42.73,50.33,168.51c-60.23,125.77-7.1,276.56,118.68,336.79,68.96,33.02,149.16,33.02,218.12,0l215.47,215.47c-136.04,159.74-218.47,358.18-235.67,567.29H110.22c-46.48,0-84.17,37.68-84.17,84.17s37.68,84.17,84.17,84.17h257.55c17.01,209,99.14,407.41,234.83,567.29l-215.47,215.47c-125.64-60.52-276.55-7.73-337.06,117.91-60.52,125.64-7.73,276.55,117.91,337.06,125.64,60.52,276.55,7.73,337.06-117.91,33.08-68.68,33.37-148.63.77-217.55l215.47-215.47c35.57,30.67,73.26,58.8,112.78,84.17,39.28,24.87,91.28,13.19,116.15-26.09s13.19-91.28-26.09-116.15c-392.83-248.52-509.82-768.44-261.3-1161.27,248.52-392.83,768.44-509.82,1161.27-261.3,392.83,248.52,509.82,768.44,261.3,1161.27-192.78,304.72-558.25,452.8-908.77,368.19-45.32-10.69-90.73,17.38-101.42,62.7-10.69,45.32,17.38,90.73,62.7,101.42,49.02,11.11,98.83,18.43,148.98,21.88v256.71c0,46.48,37.68,84.17,84.17,84.17s84.17-37.68,84.17-84.17v-252.5c209.11-17.2,407.54-99.63,567.29-235.67l215.47,215.47c-60.23,125.77-7.1,276.56,118.68,336.79,125.77,60.23,276.56,7.1,336.79-118.68,60.23-125.77,7.1-276.56-118.68-336.79-68.96-33.02-149.16-33.02-218.12,0l-215.47-215.47c138.98-160.13,223.56-360.23,241.56-571.5h0ZM278.56,2550.57c-46.48.19-84.32-37.33-84.52-83.81-.19-46.48,37.33-84.32,83.81-84.52,22.32-.09,43.77,8.69,59.62,24.41,33,32.73,33.22,86.03.49,119.03-15.72,15.85-37.09,24.8-59.41,24.9h.01ZM2466.92,193.88c46.48-.19,84.32,37.33,84.52,83.81.19,46.48-37.33,84.32-83.81,84.52-22.32.09-43.77-8.69-59.62-24.41-33-32.73-33.22-86.03-.49-119.03,15.72-15.85,37.09-24.8,59.41-24.9h0ZM194.4,278.05c-.19-46.48,37.33-84.32,83.81-84.52,46.48-.19,84.32,37.33,84.52,83.81.09,22.32-8.69,43.77-24.41,59.62-32.73,33-86.03,33.22-119.03.49-15.85-15.72-24.8-37.09-24.9-59.41h0ZM2551.08,2466.4c.19,46.48-37.33,84.32-83.81,84.52-46.48.19-84.32-37.33-84.52-83.81-.09-22.32,8.69-43.77,24.41-59.62,32.73-33,86.03-33.22,119.03-.49,15.85,15.72,24.8,37.09,24.9,59.41h0Z"/>
    </g>
  </g>
</svg>