<?xml version="1.0" encoding="UTF-8"?>
<svg id="Layer_1" xmlns="http://www.w3.org/2000/svg" viewBox="0 0 512 512">
  <path d="M261.64,458.21h-11.34c1.9.09,3.8.14,5.69.14s3.8-.05,5.69-.13h-.02s-.02,0-.03,0Z" fill="#18234c"/>
  <path d="M349.01,198.22h27.34c2.43,0,4.4-1.97,4.4-4.4v-27.34c0-2.43-1.97-4.4-4.4-4.4h-27.34c-2.43,0-4.4,1.97-4.4,4.4v27.34c0,2.43,1.97,4.4,4.4,4.4ZM353.4,170.88h18.54v18.54h-18.54v-18.54Z" fill="#18234c"/>
  <path d="M396.76,286.82h27.34c2.43,0,4.4-1.97,4.4-4.4v-27.34c0-2.43-1.97-4.4-4.4-4.4h-27.34c-2.43,0-4.4,1.97-4.4,4.4v27.34c0,2.43,1.97,4.4,4.4,4.4ZM401.16,259.49h18.54v18.54h-18.54v-18.54Z" fill="#18234c"/>
  <path d="M245.79,97.23h-27.34c-2.43,0-4.4,1.97-4.4,4.4v27.34c0,2.43,1.97,4.4,4.4,4.4h27.34c2.43,0,4.4-1.97,4.4-4.4v-27.34c0-2.43-1.97-4.4-4.4-4.4ZM241.39,124.56h-18.54v-18.54h18.54v18.54Z" fill="#18234c"/>
  <path d="M349.01,242.52h27.34c2.43,0,4.4-1.97,4.4-4.4v-27.34c0-2.43-1.97-4.4-4.4-4.4h-27.34c-2.43,0-4.4,1.97-4.4,4.4v27.34c0,2.43,1.97,4.4,4.4,4.4ZM353.4,215.19h18.54v18.54h-18.54v-18.54Z" fill="#18234c"/>
  <path d="M453.95,119.64h-130.39v-35.3h20.49c2.43,0,4.4-1.97,4.4-4.4v-21.89c0-2.43-1.97-4.4-4.4-4.4h-176.11c-2.43,0-4.4,1.97-4.4,4.4v21.89c0,2.43,1.97,4.4,4.4,4.4h20.49v35.3H58.04c-2.43,0-4.4,1.97-4.4,4.4v329.86c0,2.43,1.97,4.4,4.4,4.4h134.78c.15,0,.29-.07.44-.09h57.04-.18s-.05-.02-.08-.02c.1,0,.19.02.29.03,2.38,0,4.33-1.9,4.4-4.28.06-2.38-1.79-4.39-4.17-4.5h10.97s-11.04,0-11.04,0c-4.94-.26-9.83-.86-14.64-1.79-14.5-2.82-28.29-8.67-40.5-17.26-11.49-8.01-21.12-18.12-28.62-30.07-10.66-16.8-16.3-36.28-16.3-56.33,0-13.11,2.4-25.93,7.14-38.1,7.5-19.48,20.57-36.19,37.8-48.31,17.8-12.54,38.77-19.17,60.64-19.17,5.47,0,10.88.41,16.2,1.23,9.55,1.47,18.79,4.31,27.55,8.31,2.44,1.12,4.84,2.33,7.2,3.63.95.53,1.94,1.01,2.87,1.57,2.32,1.38,4.59,2.85,6.82,4.42,17.22,12.11,30.29,28.82,37.8,48.32,4.73,12.16,7.14,24.97,7.14,38.08,0,2.51-.09,5.01-.26,7.49-1.05,14.9-5.23,29.34-12.28,42.43-1.17,2.18-2.42,4.32-3.76,6.41s0,0,0,.01c-5.62,8.95-12.44,16.87-20.35,23.66-2.63,2.26-5.39,4.39-8.26,6.39h0s0,0,0,0c-16.24,11.42-35.3,18-55.12,19.04-.03,0-.05,0-.07,0-2.38.12-4.23,2.12-4.17,4.5.07,2.37,2,4.26,4.37,4.28h.25-.19,57.04c.15.02.28.09.44.09h134.78c2.43,0,4.4-1.97,4.4-4.4V124.04c0-2.43-1.97-4.4-4.4-4.4h0ZM449.55,128.44v13.09h-125.99v-13.09h125.99ZM172.34,62.45h167.31v13.09h-167.31v-13.09ZM62.44,128.44h125.99v13.09H62.44v-13.09ZM62.44,150.33h125.99v101.38c-.91.67-1.76,1.39-2.64,2.09-1,.78-2.02,1.55-3,2.36-1.17.97-2.28,1.99-3.4,3-.94.84-1.89,1.68-2.8,2.55-1.1,1.06-2.14,2.16-3.19,3.26-.86.89-1.73,1.77-2.56,2.69-1.03,1.15-2,2.34-2.98,3.53-.15.19-.32.37-.47.56v-16.66c0-2.43-1.97-4.4-4.4-4.4h-27.34c-2.43,0-4.4,1.97-4.4,4.4v27.34c0,2.43,1.97,4.4,4.4,4.4h21.3c-.17.3-.35.59-.52.88-.92,1.64-1.76,3.33-2.6,5.02-.39.78-.82,1.53-1.19,2.32-.75,1.58-1.4,3.22-2.08,4.84h-62.65c-2.43,0-4.4,1.97-4.4,4.4v145.21h-21.07V150.33ZM158.59,278.03h-18.54v-18.54h18.54v18.54ZM92.31,449.5v-140.81h54.9c-.25.77-.43,1.56-.66,2.33-.37,1.21-.7,2.42-1.03,3.63-.54,2.01-1.01,4.02-1.43,6.05-.25,1.21-.51,2.41-.72,3.62-.38,2.19-.67,4.4-.92,6.62-.12,1.05-.28,2.1-.37,3.16-.28,3.27-.45,6.56-.45,9.87,0,2.69.1,5.37.28,8.03.06.91.2,1.8.28,2.71.16,1.75.31,3.51.55,5.24.15,1.1.38,2.17.57,3.26.26,1.53.49,3.07.81,4.58.25,1.16.57,2.3.85,3.45.35,1.42.67,2.85,1.07,4.25.34,1.19.76,2.36,1.13,3.54.43,1.34.83,2.68,1.31,4,.43,1.19.94,2.35,1.41,3.53.51,1.28,1,2.57,1.57,3.83.52,1.16,1.1,2.3,1.66,3.44.6,1.24,1.18,2.49,1.83,3.71.59,1.11,1.25,2.2,1.88,3.29.59,1.03,1.14,2.08,1.77,3.1v45.58h-66.28ZM167.98,416.84c1.57,1.9,3.14,3.82,4.83,5.61,1,1.06,2.09,2.03,3.13,3.05,1.57,1.54,3.13,3.11,4.8,4.56,1.19,1.03,2.45,1.98,3.69,2.96,1.34,1.07,2.61,2.2,4,3.22v13.26h-21.02v-33.33c.18.23.39.44.58.67ZM211.67,449.41h-14.45v-7.33c1.02.62,2.09,1.15,3.14,1.74,1.27.71,2.52,1.45,3.81,2.1,1.39.7,2.81,1.32,4.22,1.97,1.02.47,2.01.98,3.04,1.41.08.04.16.08.25.11h0ZM247.65,229.91c-.91.07-1.81.19-2.71.27-1.86.18-3.7.37-5.54.64-1.06.15-2.11.36-3.16.54-1.67.29-3.33.6-4.98.96-1.1.24-2.18.51-3.27.79-1.59.4-3.18.83-4.75,1.3-1.09.33-2.16.66-3.24,1.02-1.57.52-3.11,1.08-4.65,1.67-1.04.4-2.07.78-3.1,1.21-1.59.66-3.16,1.39-4.72,2.12-.93.44-1.87.85-2.78,1.31-1.81.91-3.58,1.9-5.34,2.91-.64.37-1.29.69-1.92,1.07-.08.05-.16.09-.24.13v-99.86s.01-.04.01-.07v-21.89s-.01-.04-.01-.07v-39.63h117.54v39.63s-.01.04-.01.07v21.89s.01.04.01.07v99.86c-.08-.05-.16-.08-.24-.13-.63-.38-1.29-.71-1.93-1.07-1.76-1.01-3.53-2-5.34-2.91-.92-.46-1.86-.88-2.79-1.31-1.57-.73-3.13-1.46-4.72-2.12-1.02-.43-2.06-.81-3.09-1.21-1.54-.59-3.09-1.15-4.66-1.67-1.07-.36-2.15-.69-3.23-1.02-1.57-.47-3.15-.9-4.75-1.3-1.09-.27-2.18-.55-3.27-.79-1.65-.37-3.31-.67-4.98-.96-1.06-.18-2.1-.38-3.16-.54-1.83-.27-3.69-.46-5.54-.64-.91-.09-1.8-.21-2.71-.27-2.77-.2-5.55-.32-8.35-.32s-5.58.12-8.35.32h0ZM300.5,449.33c1.53-.65,3.02-1.38,4.52-2.09.92-.44,1.86-.83,2.77-1.29,1.68-.85,3.31-1.8,4.95-2.74.67-.39,1.37-.73,2.04-1.13v7.33h-14.45c.06-.03.11-.06.18-.08h0ZM323.57,436.24c1.39-1.01,2.66-2.14,3.99-3.2,1.24-.99,2.51-1.93,3.7-2.97,1.67-1.46,3.23-3.02,4.82-4.57,1.03-1.02,2.12-1.98,3.11-3.03,1.69-1.79,3.26-3.71,4.83-5.62.18-.22.39-.44.57-.66v33.32h-21.02v-13.26h0ZM353.39,449.5v-45.58c.62-1.01,1.17-2.06,1.77-3.09.63-1.09,1.28-2.17,1.88-3.28.66-1.24,1.25-2.51,1.86-3.77.55-1.13,1.12-2.23,1.63-3.38.58-1.29,1.08-2.62,1.61-3.93.46-1.14.95-2.27,1.37-3.43.49-1.35.91-2.74,1.35-4.11.37-1.14.77-2.28,1.1-3.43.41-1.43.74-2.89,1.09-4.34.27-1.12.59-2.23.83-3.36.33-1.53.56-3.08.82-4.62.18-1.08.41-2.14.56-3.22.24-1.73.39-3.49.55-5.23.08-.91.22-1.8.28-2.71.18-2.67.28-5.34.28-8.03,0-3.31-.17-6.6-.45-9.88-.09-1.05-.25-2.09-.37-3.14-.26-2.22-.54-4.44-.93-6.64-.21-1.21-.47-2.41-.72-3.61-.42-2.04-.9-4.06-1.43-6.07-.33-1.21-.66-2.42-1.03-3.63-.23-.77-.41-1.56-.66-2.32h54.9v140.81h-66.29ZM449.55,449.5h-21.07v-145.21c0-2.43-1.97-4.4-4.4-4.4h-62.64c-.67-1.61-1.32-3.24-2.07-4.82-.42-.9-.91-1.76-1.36-2.64-.8-1.58-1.57-3.17-2.44-4.71-.17-.3-.36-.6-.53-.9h21.3c2.43,0,4.4-1.97,4.4-4.4v-27.34c0-2.43-1.97-4.4-4.4-4.4h-27.34c-2.43,0-4.4,1.97-4.4,4.4v16.66c-.16-.19-.33-.39-.49-.58-.98-1.18-1.94-2.37-2.96-3.51-.83-.92-1.7-1.79-2.56-2.69-1.05-1.1-2.09-2.2-3.19-3.26-.9-.87-1.85-1.69-2.78-2.53-1.13-1.02-2.24-2.04-3.41-3.01-.98-.81-2-1.59-3.01-2.37-.88-.69-1.73-1.41-2.63-2.08v-101.38h125.99v299.17h0ZM353.4,278.03v-18.54h18.54v18.54h-18.54Z" fill="#18234c"/>
  <path d="M245.79,185.84h-27.34c-2.43,0-4.4,1.97-4.4,4.4v27.34c0,2.43,1.97,4.4,4.4,4.4h27.34c2.43,0,4.4-1.97,4.4-4.4v-27.34c0-2.43-1.97-4.4-4.4-4.4ZM241.39,213.17h-18.54v-18.54h18.54v18.54Z" fill="#18234c"/>
  <path d="M266.21,177.66h27.34c2.43,0,4.4-1.97,4.4-4.4v-27.34c0-2.43-1.97-4.4-4.4-4.4h-27.34c-2.43,0-4.4,1.97-4.4,4.4v27.34c0,2.43,1.97,4.4,4.4,4.4ZM270.61,150.33h18.54v18.54h-18.54v-18.54Z" fill="#18234c"/>
  <path d="M87.9,286.82h27.34c2.43,0,4.4-1.97,4.4-4.4v-27.34c0-2.43-1.97-4.4-4.4-4.4h-27.34c-2.43,0-4.4,1.97-4.4,4.4v27.34c0,2.43,1.97,4.4,4.4,4.4ZM92.29,259.49h18.54v18.54h-18.54v-18.54Z" fill="#18234c"/>
  <path d="M266.21,221.97h27.34c2.43,0,4.4-1.97,4.4-4.4v-27.34c0-2.43-1.97-4.4-4.4-4.4h-27.34c-2.43,0-4.4,1.97-4.4,4.4v27.34c0,2.43,1.97,4.4,4.4,4.4ZM270.61,194.63h18.54v18.54h-18.54v-18.54Z" fill="#18234c"/>
  <path d="M266.21,133.36h27.34c2.43,0,4.4-1.97,4.4-4.4v-27.34c0-2.43-1.97-4.4-4.4-4.4h-27.34c-2.43,0-4.4,1.97-4.4,4.4v27.34c0,2.43,1.97,4.4,4.4,4.4ZM270.61,106.03h18.54v18.54h-18.54v-18.54Z" fill="#18234c"/>
  <path d="M245.79,141.53h-27.34c-2.43,0-4.4,1.97-4.4,4.4v27.34c0,2.43,1.97,4.4,4.4,4.4h27.34c2.43,0,4.4-1.97,4.4-4.4v-27.34c0-2.43-1.97-4.4-4.4-4.4ZM241.39,168.87h-18.54v-18.54h18.54v18.54Z" fill="#18234c"/>
  <path d="M135.66,198.22h27.34c2.43,0,4.4-1.97,4.4-4.4v-27.34c0-2.43-1.97-4.4-4.4-4.4h-27.34c-2.43,0-4.4,1.97-4.4,4.4v27.34c0,2.43,1.97,4.4,4.4,4.4ZM140.05,170.88h18.54v18.54h-18.54v-18.54Z" fill="#18234c"/>
  <path d="M396.76,242.52h27.34c2.43,0,4.4-1.97,4.4-4.4v-27.34c0-2.43-1.97-4.4-4.4-4.4h-27.34c-2.43,0-4.4,1.97-4.4,4.4v27.34c0,2.43,1.97,4.4,4.4,4.4ZM401.16,215.19h18.54v18.54h-18.54v-18.54Z" fill="#18234c"/>
  <path d="M87.9,242.52h27.34c2.43,0,4.4-1.97,4.4-4.4v-27.34c0-2.43-1.97-4.4-4.4-4.4h-27.34c-2.43,0-4.4,1.97-4.4,4.4v27.34c0,2.43,1.97,4.4,4.4,4.4ZM92.29,215.19h18.54v18.54h-18.54v-18.54Z" fill="#18234c"/>
  <path d="M135.66,242.52h27.34c2.43,0,4.4-1.97,4.4-4.4v-27.34c0-2.43-1.97-4.4-4.4-4.4h-27.34c-2.43,0-4.4,1.97-4.4,4.4v27.34c0,2.43,1.97,4.4,4.4,4.4ZM140.05,215.19h18.54v18.54h-18.54v-18.54Z" fill="#18234c"/>
  <path d="M87.9,198.22h27.34c2.43,0,4.4-1.97,4.4-4.4v-27.34c0-2.43-1.97-4.4-4.4-4.4h-27.34c-2.43,0-4.4,1.97-4.4,4.4v27.34c0,2.43,1.97,4.4,4.4,4.4ZM92.29,170.88h18.54v18.54h-18.54v-18.54Z" fill="#18234c"/>
  <path d="M396.76,198.22h27.34c2.43,0,4.4-1.97,4.4-4.4v-27.34c0-2.43-1.97-4.4-4.4-4.4h-27.34c-2.43,0-4.4,1.97-4.4,4.4v27.34c0,2.43,1.97,4.4,4.4,4.4ZM401.16,170.88h18.54v18.54h-18.54v-18.54Z" fill="#18234c"/>
  <g>
    <path d="M216.35,303.3v81.38h-19.31v-81.38h19.31Z" fill="#18234c"/>
    <path d="M224.3,303.3h21.26c16.01,0,23.71,6.23,23.71,25.17v29.94c0,16.99-4.4,26.27-20.9,26.27h-24.07v-81.38ZM243.72,370.14h1.71c3.06,0,4.15-1.71,4.15-5.38v-41.67c0-4.28-1.59-5.25-4.28-5.25h-1.59v52.3Z" fill="#18234c"/>
    <path d="M321.07,324.56v38.86c0,16.5-9.04,22.48-23.22,22.48s-21.75-6.48-21.75-22.48v-39.83c0-15.03,9.29-21.51,22.24-21.51s22.73,6.6,22.73,22.48ZM295.53,322.24v43.5c0,3.05.86,4.89,2.93,4.89,1.83,0,2.93-1.59,2.93-4.89v-43.62c0-3.67-.85-4.77-3.05-4.77-1.83,0-2.81,1.22-2.81,4.89Z" fill="#18234c"/>
  </g>
</svg>