<?xml version="1.0" encoding="UTF-8"?>
<svg id="Layer_1" xmlns="http://www.w3.org/2000/svg" viewBox="0 0 512 512">
  <path d="M57.31,288.36l-.77.46c-20.26,11.75-27.29,37.73-15.54,58.06l28.14,48.71c11.75,20.26,37.8,27.29,58.06,15.54l.85-.46c8.74-5.1,19.25-4.95,27.45.23,5.03,3.25,10.36,6.26,15.77,9.05,8.58,4.33,14.07,13.68,14.07,23.73v1.01c0,23.42,19.1,42.52,42.52,42.52h56.28c23.42,0,42.52-19.1,42.52-42.52v-1.01c0-10.05,5.49-19.33,14.07-23.73,5.41-2.78,10.75-5.8,15.77-9.05,8.12-5.26,18.71-5.33,27.45-.23l.85.46c9.82,5.64,21.26,7.19,32.24,4.25,10.98-2.94,20.1-9.97,25.82-19.79l28.14-48.71c11.67-20.26,4.72-46.31-15.54-58.06l-.77-.46c-8.81-5.1-13.92-14.84-13.45-25.44.15-2.55.15-5.1.15-7.65s0-5.1-.15-7.58c-.54-10.67,4.64-20.41,13.45-25.44l.77-.46c20.26-11.75,27.29-37.73,15.54-58.06l-28.14-48.71c-5.64-9.82-14.84-16.85-25.82-19.79s-22.42-1.47-32.24,4.25l-.85.46c-8.74,5.1-19.25,4.95-27.45-.23-5.03-3.25-10.36-6.26-15.77-9.05-8.58-4.33-14.07-13.68-14.07-23.73v-1.01c0-23.42-19.1-42.52-42.52-42.52h-56.28c-23.42,0-42.52,19.1-42.52,42.52v1.01c0,10.05-5.49,19.33-14.07,23.73-5.41,2.78-10.75,5.8-15.77,9.05-8.12,5.26-18.71,5.33-27.45.31l-.85-.46c-20.26-11.67-46.31-4.72-58.06,15.54l-28.14,48.71c-11.67,20.26-4.72,46.31,15.54,58.06l.77.46c8.81,5.1,13.92,14.84,13.45,25.44-.15,2.55-.15,5.1-.15,7.65s0,5.1.15,7.58c.54,10.67-4.64,20.41-13.45,25.44v-.08ZM65.04,301.74c13.84-7.96,21.96-23.19,21.18-39.66-.08-2.24-.15-4.56-.15-6.88s0-4.56.15-6.88c.77-16.47-7.34-31.62-21.18-39.58l-.77-.46c-12.91-7.42-17.32-24.04-9.9-36.95l28.14-48.71c7.42-12.91,24.04-17.32,36.88-9.9l.85.46c13.84,7.96,30.46,7.73,43.53-.62,4.64-2.94,9.51-5.8,14.46-8.27,13.84-7.11,22.5-21.41,22.5-37.5v-1.01c0-14.92,12.14-27.06,27.06-27.06h56.28c14.92,0,27.06,12.14,27.06,27.06v1.01c0,16,8.66,30.38,22.5,37.5,4.95,2.55,9.82,5.33,14.46,8.27,13.07,8.35,29.69,8.58,43.53.62l.85-.46c6.26-3.63,13.53-4.56,20.49-2.71,6.96,1.86,12.83,6.34,16.39,12.6l28.14,48.71c7.42,12.91,3.02,29.46-9.9,36.95l-.77.46c-13.84,7.96-21.96,23.19-21.18,39.66.08,2.24.15,4.56.15,6.88s0,4.56-.15,6.88c-.77,16.47,7.34,31.62,21.18,39.58l.77.46c12.91,7.42,17.32,24.04,9.9,36.95l-28.14,48.71c-3.63,6.26-9.43,10.75-16.39,12.6s-14.23.93-20.49-2.71l-.85-.46c-13.76-7.96-30.46-7.73-43.53.62-4.64,2.94-9.43,5.72-14.46,8.27-13.84,7.11-22.5,21.41-22.5,37.5v1.01c0,14.92-12.14,27.06-27.06,27.06h-56.28c-14.92,0-27.06-12.14-27.06-27.06v-1.01c0-16-8.66-30.38-22.5-37.5-4.95-2.55-9.82-5.33-14.46-8.27-6.73-4.33-14.38-6.42-22.11-6.42s-14.69,1.93-21.41,5.8l-.85.46c-12.91,7.42-29.46,3.02-36.95-9.9l-28.14-48.71c-7.42-12.91-3.02-29.46,9.9-36.95l.77-.46h.08Z" fill="#18234c"/>
  <circle cx="255.88" cy="255.24" r="133.9" fill="none" stroke="#18234c" stroke-miterlimit="10" stroke-width="11"/>
  <g>
    <path d="M206.66,207.94v108.56h-25.76v-108.56h25.76Z" fill="#17234c"/>
    <path d="M263.06,270.05h-19.89v25.1h23.96l-2.93,21.35h-46.95v-108.56h46.78v21.35h-20.87v19.4h19.89v21.35Z" fill="#17234c"/>
    <path d="M332.99,236.3v51.84c0,22.01-12.06,29.99-30.97,29.99s-29.02-8.64-29.02-29.99v-53.14c0-20.05,12.39-28.69,29.67-28.69s30.32,8.8,30.32,29.99ZM298.92,233.21v58.03c0,4.08,1.14,6.52,3.91,6.52,2.44,0,3.91-2.12,3.91-6.52v-58.19c0-4.89-1.14-6.36-4.08-6.36-2.45,0-3.75,1.63-3.75,6.52Z" fill="#17234c"/>
  </g>
</svg>