<svg xmlns="http://www.w3.org/2000/svg" width="18.161" height="21.025" viewBox="0 0 18.161 21.025">
  <path id="Igniter_-_Tinder_Clone" data-name="Igniter - Tinder Clone" d="M50.712,4.609A12.65,12.65,0,0,0,44.738.038a.616.616,0,0,0-.824.649,20.418,20.418,0,0,1,.136,2.336s0,.006,0,.01a5.338,5.338,0,0,1-3.239,4.911A5.978,5.978,0,0,1,40.2,5.33a.616.616,0,0,0-.893-.547,8.015,8.015,0,0,0-4.417,7.162,9.08,9.08,0,0,0,18.16,0A12.6,12.6,0,0,0,50.712,4.609ZM43.968,19.794a7.857,7.857,0,0,1-7.848-7.848,6.747,6.747,0,0,1,2.924-5.58A7.185,7.185,0,0,0,40,9.025a.616.616,0,0,0,.716.268,6.59,6.59,0,0,0,4.566-6.27s0-.007,0-.01c0-.474-.017-.954-.049-1.435a11.5,11.5,0,0,1,6.584,10.367,7.857,7.857,0,0,1-7.848,7.848Z" transform="translate(-34.888)" fill="#001f4e"/>
</svg>
