<svg xmlns="http://www.w3.org/2000/svg" xmlns:xlink="http://www.w3.org/1999/xlink" width="410.265" height="130" viewBox="0 0 410.265 130">
  <defs>
    <linearGradient id="linear-gradient" x1="0.091" y1="-0.079" x2="0.963" y2="1.092" gradientUnits="objectBoundingBox">
      <stop offset="0" stop-color="#ed8bff"/>
      <stop offset="1" stop-color="#81fffa"/>
    </linearGradient>
    <filter id="Rectangle_1752" x="0" y="0" width="130" height="130" filterUnits="userSpaceOnUse">
      <feOffset dx="-8" dy="-5" input="SourceAlpha"/>
      <feGaussianBlur stdDeviation="6" result="blur"/>
      <feFlood flood-opacity="0.161"/>
      <feComposite operator="in" in2="blur"/>
      <feComposite in="SourceGraphic"/>
    </filter>
    <filter id="Rectangle_1752-2" x="0" y="0" width="130" height="130" filterUnits="userSpaceOnUse">
      <feOffset input="SourceAlpha"/>
      <feGaussianBlur stdDeviation="2.5" result="blur-2"/>
      <feFlood flood-opacity="0.251" result="color"/>
      <feComposite operator="out" in="SourceGraphic" in2="blur-2"/>
      <feComposite operator="in" in="color"/>
      <feComposite operator="in" in2="SourceGraphic"/>
    </filter>
    <filter id="Path_44" x="40.061" y="40.874" width="27.919" height="41.521" filterUnits="userSpaceOnUse">
      <feOffset dx="-3" dy="-2" input="SourceAlpha"/>
      <feGaussianBlur stdDeviation="1.5" result="blur-3"/>
      <feFlood flood-opacity="0.161"/>
      <feComposite operator="in" in2="blur-3"/>
      <feComposite in="SourceGraphic"/>
    </filter>
    <filter id="Path_45" x="54.072" y="65.217" width="27.7" height="17.182" filterUnits="userSpaceOnUse">
      <feOffset dx="-3" dy="-2" input="SourceAlpha"/>
      <feGaussianBlur stdDeviation="1.5" result="blur-4"/>
      <feFlood flood-opacity="0.161"/>
      <feComposite operator="in" in2="blur-4"/>
      <feComposite in="SourceGraphic"/>
    </filter>
    <filter id="Path_46" x="44.671" y="40.82" width="24.428" height="17.927" filterUnits="userSpaceOnUse">
      <feOffset dx="-3" dy="-2" input="SourceAlpha"/>
      <feGaussianBlur stdDeviation="1.5" result="blur-5"/>
      <feFlood flood-opacity="0.161"/>
      <feComposite operator="in" in2="blur-5"/>
      <feComposite in="SourceGraphic"/>
    </filter>
    <filter id="Path_47" x="54.95" y="40.684" width="21.39" height="29.78" filterUnits="userSpaceOnUse">
      <feOffset dx="-3" dy="-2" input="SourceAlpha"/>
      <feGaussianBlur stdDeviation="1.5" result="blur-6"/>
      <feFlood flood-opacity="0.161"/>
      <feComposite operator="in" in2="blur-6"/>
      <feComposite in="SourceGraphic"/>
    </filter>
    <filter id="Path_48" x="63.024" y="40.642" width="41.188" height="17.514" filterUnits="userSpaceOnUse">
      <feOffset dx="-3" dy="-2" input="SourceAlpha"/>
      <feGaussianBlur stdDeviation="1.5" result="blur-7"/>
      <feFlood flood-opacity="0.161"/>
      <feComposite operator="in" in2="blur-7"/>
      <feComposite in="SourceGraphic"/>
    </filter>
    <filter id="Path_49" x="82.758" y="49.147" width="21.451" height="22.462" filterUnits="userSpaceOnUse">
      <feOffset dx="-3" dy="-2" input="SourceAlpha"/>
      <feGaussianBlur stdDeviation="1.5" result="blur-8"/>
      <feFlood flood-opacity="0.161"/>
      <feComposite operator="in" in2="blur-8"/>
      <feComposite in="SourceGraphic"/>
    </filter>
    <filter id="Path_50" x="69.266" y="51.771" width="25.515" height="21.224" filterUnits="userSpaceOnUse">
      <feOffset dx="-3" dy="-2" input="SourceAlpha"/>
      <feGaussianBlur stdDeviation="1.5" result="blur-9"/>
      <feFlood flood-opacity="0.161"/>
      <feComposite operator="in" in2="blur-9"/>
      <feComposite in="SourceGraphic"/>
    </filter>
    <filter id="Path_51" x="61.612" y="63.992" width="33.163" height="33.466" filterUnits="userSpaceOnUse">
      <feOffset dx="-3" dy="-2" input="SourceAlpha"/>
      <feGaussianBlur stdDeviation="1.5" result="blur-10"/>
      <feFlood flood-opacity="0.161"/>
      <feComposite operator="in" in2="blur-10"/>
      <feComposite in="SourceGraphic"/>
    </filter>
    <filter id="Path_52" x="55.228" y="75.526" width="20.445" height="21.931" filterUnits="userSpaceOnUse">
      <feOffset dx="-3" dy="-2" input="SourceAlpha"/>
      <feGaussianBlur stdDeviation="1.5" result="blur-11"/>
      <feFlood flood-opacity="0.161"/>
      <feComposite operator="in" in2="blur-11"/>
      <feComposite in="SourceGraphic"/>
    </filter>
    <filter id="Path_65" x="135" y="19.081" width="53.715" height="54.651" filterUnits="userSpaceOnUse">
      <feOffset dy="3" input="SourceAlpha"/>
      <feGaussianBlur stdDeviation="5" result="blur-12"/>
      <feFlood flood-opacity="0.141"/>
      <feComposite operator="in" in2="blur-12"/>
      <feComposite in="SourceGraphic"/>
    </filter>
    <filter id="Path_66" x="161.2" y="19.066" width="59.344" height="54.668" filterUnits="userSpaceOnUse">
      <feOffset dy="3" input="SourceAlpha"/>
      <feGaussianBlur stdDeviation="5" result="blur-13"/>
      <feFlood flood-opacity="0.141"/>
      <feComposite operator="in" in2="blur-13"/>
      <feComposite in="SourceGraphic"/>
    </filter>
    <filter id="Path_67" x="195.197" y="19.081" width="34.296" height="54.654" filterUnits="userSpaceOnUse">
      <feOffset dy="3" input="SourceAlpha"/>
      <feGaussianBlur stdDeviation="5" result="blur-14"/>
      <feFlood flood-opacity="0.141"/>
      <feComposite operator="in" in2="blur-14"/>
      <feComposite in="SourceGraphic"/>
    </filter>
    <filter id="Path_68" x="204.721" y="19.071" width="61.75" height="54.67" filterUnits="userSpaceOnUse">
      <feOffset dy="3" input="SourceAlpha"/>
      <feGaussianBlur stdDeviation="5" result="blur-15"/>
      <feFlood flood-opacity="0.141"/>
      <feComposite operator="in" in2="blur-15"/>
      <feComposite in="SourceGraphic"/>
    </filter>
    <filter id="Path_69" x="238.516" y="19" width="63.168" height="54.727" filterUnits="userSpaceOnUse">
      <feOffset dy="3" input="SourceAlpha"/>
      <feGaussianBlur stdDeviation="5" result="blur-16"/>
      <feFlood flood-opacity="0.141"/>
      <feComposite operator="in" in2="blur-16"/>
      <feComposite in="SourceGraphic"/>
    </filter>
    <filter id="Path_70" x="274.001" y="19.077" width="54.364" height="54.911" filterUnits="userSpaceOnUse">
      <feOffset dy="3" input="SourceAlpha"/>
      <feGaussianBlur stdDeviation="5" result="blur-17"/>
      <feFlood flood-opacity="0.141"/>
      <feComposite operator="in" in2="blur-17"/>
      <feComposite in="SourceGraphic"/>
    </filter>
    <filter id="Path_71" x="303.584" y="19.072" width="58.09" height="54.668" filterUnits="userSpaceOnUse">
      <feOffset dy="3" input="SourceAlpha"/>
      <feGaussianBlur stdDeviation="5" result="blur-18"/>
      <feFlood flood-opacity="0.141"/>
      <feComposite operator="in" in2="blur-18"/>
      <feComposite in="SourceGraphic"/>
    </filter>
    <filter id="Path_72" x="334.493" y="19.081" width="51.262" height="54.654" filterUnits="userSpaceOnUse">
      <feOffset dy="3" input="SourceAlpha"/>
      <feGaussianBlur stdDeviation="5" result="blur-19"/>
      <feFlood flood-opacity="0.141"/>
      <feComposite operator="in" in2="blur-19"/>
      <feComposite in="SourceGraphic"/>
    </filter>
    <filter id="Path_73" x="358.968" y="19.081" width="51.297" height="54.654" filterUnits="userSpaceOnUse">
      <feOffset dy="3" input="SourceAlpha"/>
      <feGaussianBlur stdDeviation="5" result="blur-20"/>
      <feFlood flood-opacity="0.141"/>
      <feComposite operator="in" in2="blur-20"/>
      <feComposite in="SourceGraphic"/>
    </filter>
  </defs>
  <g id="Group_3050" data-name="Group 3050" transform="translate(-11837 13565)">
    <g id="Group_143" data-name="Group 143" transform="translate(11638.889 -13588.111)">
      <rect id="Rectangle_1753" data-name="Rectangle 1753" width="94" height="94" rx="20" transform="translate(224.111 46.111)" fill="url(#linear-gradient)"/>
      <g data-type="innerShadowGroup">
        <g transform="matrix(1, 0, 0, 1, 198.11, 23.11)" filter="url(#Rectangle_1752)">
          <rect id="Rectangle_1752-3" data-name="Rectangle 1752" width="94" height="94" rx="20" transform="translate(26 23)" fill="#fff" opacity="0.514"/>
        </g>
        <g transform="matrix(1, 0, 0, 1, 198.11, 23.11)" filter="url(#Rectangle_1752-2)">
          <rect id="Rectangle_1752-4" data-name="Rectangle 1752" width="94" height="94" rx="20" transform="translate(26 23)" fill="#fff" opacity="0.514"/>
        </g>
      </g>
      <g id="Group_136" data-name="Group 136" transform="translate(245.672 70.253)">
        <g transform="matrix(1, 0, 0, 1, -47.56, -47.14)" filter="url(#Path_44)">
          <path id="Path_44-2" data-name="Path 44" d="M15.174,39.712,1.164,15.883l4.6-8.693L20.083,31.53Z" transform="translate(46.4 40.18)" fill="#f43f00"/>
        </g>
        <g transform="matrix(1, 0, 0, 1, -47.56, -47.14)" filter="url(#Path_45)">
          <path id="Path_45-2" data-name="Path 45" d="M29.5,23.926H15.7l-4.9,8.181H24.745Z" transform="translate(50.77 47.79)" fill="#f78c00"/>
        </g>
        <g transform="matrix(1, 0, 0, 1, -47.56, -47.14)" filter="url(#Path_46)">
          <path id="Path_46-2" data-name="Path 46" d="M19.757,7.15,4.329,7.2l5.215,8.874h4.806Z" transform="translate(47.84 40.17)" fill="#f78c00"/>
        </g>
        <g transform="matrix(1, 0, 0, 1, -47.56, -47.14)" filter="url(#Path_47)">
          <path id="Path_47-2" data-name="Path 47" d="M16.1,27.833,23.79,15.324l-4.3-8.271L11.4,19.935Z" transform="translate(51.05 40.13)" fill="#0031cc"/>
        </g>
        <g transform="matrix(1, 0, 0, 1, -47.56, -47.14)" filter="url(#Path_48)">
          <path id="Path_48-2" data-name="Path 48" d="M44.268,7.023l4.871,8.514H21.066l-4.115-8.45Z" transform="translate(53.57 40.12)" fill="#3865f4"/>
        </g>
        <g transform="matrix(1, 0, 0, 1, -47.56, -47.14)" filter="url(#Path_49)">
          <path id="Path_49-2" data-name="Path 49" d="M35.225,26.339l-4.7-8.182,3.056-5.28h9.4Z" transform="translate(59.74 42.77)" fill="#0031cc"/>
        </g>
        <g transform="matrix(1, 0, 0, 1, -47.56, -47.14)" filter="url(#Path_50)">
          <path id="Path_50-2" data-name="Path 50" d="M21.24,14.678H30.7L37.755,26.9H28.011Z" transform="translate(55.53 43.59)" fill="#209604"/>
        </g>
        <g transform="matrix(1, 0, 0, 1, -47.56, -47.14)" filter="url(#Path_51)">
          <path id="Path_51-2" data-name="Path 51" d="M26.261,47.548H15.982L30.4,23.082h9.743Z" transform="translate(53.13 47.41)" fill="#28ce05"/>
        </g>
        <g transform="matrix(1, 0, 0, 1, -47.56, -47.14)" filter="url(#Path_52)">
          <path id="Path_52-2" data-name="Path 52" d="M11.589,31.014l9.109.011,2.336,4.343L17.98,43.944Z" transform="translate(51.14 51.01)" fill="#209604"/>
        </g>
      </g>
    </g>
    <g id="Group_137" data-name="Group 137" transform="translate(12020 -13494)">
      <path id="Path_53" data-name="Path 53" d="M64.3,30.651l-2.274.051c-.885.018-1.251.122-1.476.457a1.766,1.766,0,0,0-.262.5c-.035.122-.07.192-.174.192s-.14-.089-.14-.243c0-.243.295-1.667.33-1.789.035-.192.087-.279.174-.279.122,0,.276.122.658.175a14.487,14.487,0,0,0,1.529.069h6.2a6.993,6.993,0,0,0,1.042-.069c.243-.037.365-.07.417-.07.105,0,.122.087.122.313,0,.312-.035,1.407-.035,1.789-.017.155-.051.243-.138.243-.122,0-.155-.07-.174-.295l-.017-.156c-.035-.381-.433-.834-1.806-.85l-1.927-.037v5.973c0,1.353.017,2.513.087,3.159.051.419.138.7.59.763a5.382,5.382,0,0,0,.78.051c.174,0,.243.089.243.156,0,.105-.122.156-.295.156-1.007,0-2.032-.051-2.466-.051-.343,0-1.389.051-2,.051-.192,0-.295-.051-.295-.156,0-.069.051-.156.243-.156a2.138,2.138,0,0,0,.538-.051c.312-.069.4-.343.457-.78.07-.625.07-1.789.07-3.142Z" transform="translate(-59.975 -29.489)" fill="#001f4e"/>
      <path id="Path_54" data-name="Path 54" d="M69.882,33.978c0-2.241,0-2.655-.018-3.126-.035-.5-.174-.658-.658-.8A2.814,2.814,0,0,0,68.6,30c-.156,0-.262-.051-.262-.156s.122-.138.343-.138c.8,0,1.77.035,2.205.035.487,0,3.873.018,4.165,0a5.986,5.986,0,0,0,.644-.087,1.6,1.6,0,0,1,.243-.069c.087,0,.1.069.1.138a6.518,6.518,0,0,0-.122.955c-.017.156-.051.8-.087.972-.017.069-.051.243-.174.243s-.122-.07-.122-.192a1.382,1.382,0,0,0-.1-.538c-.122-.262-.243-.468-1.007-.538-.26-.035-2.084-.07-2.4-.07-.07,0-.1.051-.1.14v3.646c0,.087.017.156.1.156.343,0,2.328,0,2.674-.035a1.227,1.227,0,0,0,.73-.228c.114-.105.174-.192.242-.192a.142.142,0,0,1,.122.156c0,.087-.035.33-.122,1.077-.035.295-.07.883-.07.988s-.017.33-.155.33c-.105,0-.138-.051-.138-.114-.018-.156-.018-.343-.051-.538-.087-.295-.279-.52-.85-.571-.279-.035-2.014-.07-2.4-.07-.07,0-.087.07-.087.156v1.182c0,.5-.018,1.752,0,2.187.035,1.007.5,1.233,2.065,1.233a4.137,4.137,0,0,0,1.442-.192c.381-.175.555-.487.658-1.1.035-.155.07-.228.174-.228.122,0,.138.192.138.343a9.994,9.994,0,0,1-.208,1.632c-.105.381-.243.381-.815.381-1.142,0-2.067-.017-2.812-.051-.747-.017-1.318-.035-1.77-.035-.174,0-.5.018-.868.018s-.747.035-1.059.035c-.192,0-.295-.051-.295-.156,0-.069.051-.156.243-.156a2.228,2.228,0,0,0,.538-.051c.312-.069.4-.343.457-.78.07-.625.07-1.789.07-3.142V33.978Z" transform="translate(-52.918 -29.449)" fill="#001f4e"/>
      <path id="Path_55" data-name="Path 55" d="M77.6,39.507a5.7,5.7,0,0,1-.122-8.4,6.892,6.892,0,0,1,4.851-1.565,15.675,15.675,0,0,1,2.223.156c.571.087,1.075.192,1.529.243.174.018.228.087.228.174,0,.122-.035.295-.07.817-.035.487-.035,1.3-.051,1.6-.017.208-.07.365-.208.365s-.156-.122-.156-.313a2.074,2.074,0,0,0-.59-1.371,4.326,4.326,0,0,0-2.952-.868,4.119,4.119,0,0,0-2.883.834,4.782,4.782,0,0,0-1.4,3.835,4.921,4.921,0,0,0,4.758,5.175c1.353,0,2.1-.105,2.709-.782a2.385,2.385,0,0,0,.52-.988c.035-.228.07-.295.192-.295s.174.138.174.26a12.968,12.968,0,0,1-.33,1.962.517.517,0,0,1-.4.433,8.952,8.952,0,0,1-2.761.33,7.838,7.838,0,0,1-5.255-1.6Z" transform="translate(-46.711 -29.492)" fill="#001f4e"/>
      <path id="Path_56" data-name="Path 56" d="M93.847,34.463c.035,0,.087-.017.087-.1v-.313c0-2.241-.017-2.778-.035-3.247-.035-.5-.174-.658-.66-.8a2.733,2.733,0,0,0-.59-.051c-.174,0-.26-.051-.26-.156s.105-.138.33-.138c.817,0,1.893.035,2.292.035.363,0,1.371-.035,1.96-.035.228,0,.33.035.33.138s-.105.156-.279.156a2.719,2.719,0,0,0-.457.051c-.4.069-.522.276-.555.8-.035.471-.035.885-.035,3.126v2.6c0,1.353,0,2.513.07,3.159.051.419.14.7.609.763a5.236,5.236,0,0,0,.782.051c.155,0,.243.089.243.156,0,.105-.114.156-.312.156-.99,0-2-.051-2.414-.051-.343,0-1.424.051-2.014.051-.208,0-.33-.051-.33-.156,0-.069.07-.156.243-.156a2.284,2.284,0,0,0,.555-.051c.312-.069.4-.343.457-.78.07-.625.07-1.754.07-3.109V35.435a.092.092,0,0,0-.087-.087H88.084c-.051,0-.1.018-.1.087V36.56c0,1.353.017,2.484.087,3.124.051.419.138.7.59.763a5.382,5.382,0,0,0,.78.051c.174,0,.243.089.243.156,0,.105-.122.156-.312.156-.99,0-2.049-.051-2.482-.051-.343,0-1.353.051-1.962.051-.192,0-.295-.051-.295-.156,0-.069.051-.156.243-.156a2.228,2.228,0,0,0,.538-.051c.312-.069.4-.343.457-.78.07-.625.07-1.789.07-3.142v-2.6c0-2.241,0-2.655-.018-3.126-.035-.5-.174-.658-.658-.8a2.814,2.814,0,0,0-.609-.051c-.156,0-.262-.051-.262-.156s.122-.138.33-.138c.815,0,1.827.035,2.239.035.365,0,1.424-.035,2.032-.035.208,0,.312.035.312.138s-.087.156-.276.156A2.331,2.331,0,0,0,88.6,30c-.417.069-.538.276-.571.8-.035.471-.035,1.007-.035,3.247v.313a.09.09,0,0,0,.1.1h5.763Z" transform="translate(-39.367 -29.395)" fill="#001f4e"/>
      <path id="Path_57" data-name="Path 57" d="M97.153,38.922c.037,1.142.228,1.494.52,1.6a2.606,2.606,0,0,0,.8.1c.175,0,.264.07.264.156,0,.122-.14.156-.348.156-.988,0-1.7-.051-1.977-.051-.14,0-.869.051-1.65.051-.208,0-.343-.018-.343-.156,0-.087.1-.156.243-.156a3.175,3.175,0,0,0,.7-.069c.4-.105.45-.5.468-1.789l.138-8.75c0-.295.1-.5.262-.5.192,0,.4.228.658.487.192.192,2.482,2.535,4.7,4.707,1.042,1.028,3.072,3.109,3.3,3.312h.069l-.155-6.563c-.018-.9-.156-1.164-.522-1.3a2.551,2.551,0,0,0-.8-.087c-.192,0-.243-.07-.243-.156,0-.114.156-.138.381-.138.8,0,1.615.035,1.942.035.174,0,.745-.035,1.494-.035.208,0,.343.018.343.138,0,.087-.087.156-.26.156a1.567,1.567,0,0,0-.471.051c-.417.114-.538.381-.557,1.215l-.174,9.3c0,.33-.122.468-.243.468a.9.9,0,0,1-.625-.312c-.955-.885-2.864-2.709-4.462-4.254-1.665-1.6-3.28-3.385-3.576-3.648h-.05Z" transform="translate(-30.905 -29.513)" fill="#001f4e"/>
      <path id="Path_58" data-name="Path 58" d="M104.3,35.32c0-2.513,1.773-5.784,6.408-5.784,3.855,0,6.252,2.136,6.252,5.521s-2.466,6.042-6.406,6.042C106.1,41.1,104.3,37.947,104.3,35.32Zm10.384.276c0-3.266-1.962-5.278-4.426-5.278-1.7,0-3.7.9-3.7,4.549,0,3.037,1.735,5.434,4.618,5.434,1.071,0,3.5-.5,3.5-4.7Z" transform="translate(-22.562 -29.49)" fill="#001f4e"/>
      <path id="Path_59" data-name="Path 59" d="M117.407,36.526c0,1.892,0,2.829.332,3.108.26.228.85.313,2.032.313.813,0,1.4-.018,1.787-.417a1.761,1.761,0,0,0,.381-.885c.018-.138.054-.228.175-.228s.138.155.138.33a11.224,11.224,0,0,1-.228,1.7c-.1.332-.174.4-.97.4-1.093,0-1.978-.017-2.741-.051-.763-.017-1.407-.035-2.032-.035-.174,0-.5.018-.868.018s-.747.035-1.059.035c-.192,0-.295-.051-.295-.156,0-.069.05-.156.242-.156a2.255,2.255,0,0,0,.54-.051c.312-.069.4-.343.45-.78.069-.625.069-1.789.069-3.142v-2.6c0-2.241,0-2.655-.017-3.126-.035-.5-.175-.658-.658-.8a2.021,2.021,0,0,0-.5-.051c-.174,0-.262-.051-.262-.156s.105-.138.332-.138c.712,0,1.684.035,2.1.035.363,0,1.615-.035,2.2-.035.228,0,.332.035.332.138s-.087.156-.276.156a3.51,3.51,0,0,0-.59.051c-.419.069-.538.276-.571.8-.037.471-.037.885-.037,3.126v2.6Z" transform="translate(-14.44 -29.392)" fill="#001f4e"/>
      <path id="Path_60" data-name="Path 60" d="M120.8,35.32c0-2.513,1.768-5.784,6.405-5.784,3.856,0,6.253,2.136,6.253,5.521S130.991,41.1,127.05,41.1C122.6,41.1,120.8,37.947,120.8,35.32Zm10.381.276c0-3.266-1.96-5.278-4.426-5.278-1.7,0-3.7.9-3.7,4.549,0,3.037,1.735,5.434,4.62,5.434,1.074,0,3.506-.5,3.506-4.7Z" transform="translate(-8.631 -29.49)" fill="#001f4e"/>
      <path id="Path_61" data-name="Path 61" d="M141.568,39.924c0,.4,0,.419-.192.522a9.238,9.238,0,0,1-3.732.658c-3.751,0-7.065-1.7-7.065-5.781a5.463,5.463,0,0,1,2.673-4.827,7.643,7.643,0,0,1,4.112-.957,17.54,17.54,0,0,1,2.709.243c.313.051.852.138,1.217.156.174.018.207.07.207.174a20.284,20.284,0,0,0-.1,2.43c0,.228-.088.33-.208.33s-.14-.069-.156-.192a1.959,1.959,0,0,0-.52-1.215,4.742,4.742,0,0,0-3.312-1.127,3.948,3.948,0,0,0-4.359,4.461,5.122,5.122,0,0,0,5.313,5.488,2.491,2.491,0,0,0,1.077-.156.488.488,0,0,0,.295-.52V38.258c0-.73,0-1.285-.018-1.735-.017-.5-.174-.658-.658-.8a2.733,2.733,0,0,0-.59-.051c-.136,0-.242-.069-.242-.155,0-.122.114-.138.328-.138.8,0,1.894.035,2.344.035.487,0,1.285-.035,1.789-.035.208,0,.312.017.312.138a.176.176,0,0,1-.192.155,2.23,2.23,0,0,0-.417.051c-.417.07-.571.279-.588.8-.018.45-.018,1.04-.018,1.77v1.63Z" transform="translate(-0.375 -29.491)" fill="#001f4e"/>
      <path id="Path_62" data-name="Path 62" d="M141.466,33.923c0-2.241,0-2.655-.018-3.126-.033-.5-.192-.677-.518-.782a2.049,2.049,0,0,0-.557-.069c-.156,0-.243-.035-.243-.175,0-.087.122-.114.363-.114.571,0,1.615.035,2.049.035.381,0,1.371-.035,1.962-.035.192,0,.312.035.312.114,0,.14-.089.175-.243.175a2.2,2.2,0,0,0-.45.051c-.419.069-.54.276-.571.8-.035.471-.035.885-.035,3.126v2.6c0,1.422,0,2.6.069,3.229.054.4.156.625.609.693a5.39,5.39,0,0,0,.782.051c.174,0,.242.088.242.156,0,.105-.114.156-.295.156-1.005,0-2.047-.051-2.464-.051-.343,0-1.39.051-2,.051-.192,0-.295-.051-.295-.156,0-.069.051-.156.243-.156a2.229,2.229,0,0,0,.539-.051c.312-.069.4-.276.457-.712.069-.606.069-1.789.069-3.21v-2.6Z" transform="translate(7.683 -29.393)" fill="#001f4e"/>
      <path id="Path_63" data-name="Path 63" d="M147.392,33.978c0-2.241,0-2.655-.018-3.126-.037-.5-.175-.658-.658-.8a2.815,2.815,0,0,0-.609-.051c-.156,0-.262-.051-.262-.156s.114-.138.343-.138c.8,0,1.773.035,2.2.035.487,0,3.873.018,4.168,0a6.055,6.055,0,0,0,.643-.087,1.662,1.662,0,0,1,.243-.069c.087,0,.105.069.105.138a6.523,6.523,0,0,0-.122.955c-.018.156-.05.8-.087.972-.018.069-.051.243-.174.243s-.122-.07-.122-.192a1.389,1.389,0,0,0-.105-.538c-.114-.262-.242-.468-1.007-.538-.262-.035-2.084-.07-2.4-.07-.069,0-.1.051-.1.14v3.646c0,.087.017.156.1.156.348,0,2.328,0,2.676-.035a1.22,1.22,0,0,0,.729-.228c.122-.105.174-.192.243-.192s.114.07.114.156-.033.33-.114,1.077c-.035.295-.07.883-.07.988s-.017.33-.155.33c-.105,0-.138-.051-.138-.114-.018-.156-.018-.343-.051-.538-.087-.295-.276-.52-.85-.571-.279-.035-2.016-.07-2.4-.07-.07,0-.087.07-.087.156v1.182c0,.5-.018,1.752,0,2.187.035,1.007.5,1.233,2.065,1.233a4.128,4.128,0,0,0,1.44-.192c.381-.175.555-.487.658-1.1.037-.155.07-.228.175-.228s.138.192.138.343a9.99,9.99,0,0,1-.208,1.632c-.105.381-.242.381-.813.381-1.142,0-2.067-.017-2.812-.051-.747-.017-1.32-.035-1.773-.035-.174,0-.5.018-.868.018s-.745.035-1.059.035c-.192,0-.295-.051-.295-.156,0-.069.051-.156.243-.156a2.239,2.239,0,0,0,.538-.051c.314-.069.4-.343.45-.78.072-.625.072-1.789.072-3.142V33.978Z" transform="translate(12.507 -29.449)" fill="#001f4e"/>
      <path id="Path_64" data-name="Path 64" d="M153.781,40.72c-.243-.105-.295-.175-.295-.5,0-.8.07-1.713.089-1.96,0-.228.069-.381.192-.381s.155.138.155.243a2.7,2.7,0,0,0,.14.763,2.36,2.36,0,0,0,2.427,1.463,1.914,1.914,0,0,0,2.117-1.875c0-.644-.156-1.285-1.51-2.084l-.885-.52c-1.806-1.06-2.4-2.049-2.4-3.351,0-1.806,1.735-2.97,3.855-2.97a9.03,9.03,0,0,1,2.17.243c.136.037.209.087.209.192,0,.192-.054.609-.054,1.773,0,.312-.069.468-.192.468-.105,0-.155-.087-.155-.262a1.673,1.673,0,0,0-.4-.972,2.056,2.056,0,0,0-1.7-.693c-1.093,0-2.084.571-2.084,1.578,0,.658.243,1.182,1.614,1.942l.627.343c2.014,1.112,2.639,2.239,2.639,3.576a3.157,3.157,0,0,1-1.527,2.76,4.463,4.463,0,0,1-2.553.606A6.534,6.534,0,0,1,153.781,40.72Z" transform="translate(18.96 -29.488)" fill="#001f4e"/>
    </g>
    <g id="Group_138" data-name="Group 138" transform="translate(11987 -13534)">
      <g transform="matrix(1, 0, 0, 1, -150, -31)" filter="url(#Path_65)">
        <path id="Path_65-2" data-name="Path 65" d="M70.72,12.758H61.012V33.115h-4.26V12.758H47.005V8.464H70.719v4.294Z" transform="translate(102.99 22.62)" fill="#001f4e"/>
      </g>
      <g transform="matrix(1, 0, 0, 1, -150, -31)" filter="url(#Path_66)">
        <path id="Path_66-2" data-name="Path 66" d="M90.558,33.12H84.207l-6.9-6.93H68.037V21.928H79.586a7.261,7.261,0,0,0,4.008-1.044,3.964,3.964,0,0,0,1.84-3.5q0-4.62-5.848-4.62H65.511V33.12h-4.3V8.466H78.9a13.089,13.089,0,0,1,7.688,2.056,7.881,7.881,0,0,1,3.357,6.894A7.865,7.865,0,0,1,88,22.756a9.518,9.518,0,0,1-4.911,2.923Z" transform="translate(114.99 22.62)" fill="#001f4e"/>
      </g>
      <g transform="matrix(1, 0, 0, 1, -150, -31)" filter="url(#Path_67)">
        <path id="Path_67-2" data-name="Path 67" d="M83.948,33.118h-4.3V8.464h4.3Z" transform="translate(130.55 22.62)" fill="#001f4e"/>
      </g>
      <g transform="matrix(1, 0, 0, 1, -150, -31)" filter="url(#Path_68)">
        <path id="Path_68-2" data-name="Path 68" d="M116.55,20.523a12.37,12.37,0,0,1-3.5,9.023,11.945,11.945,0,0,1-8.917,3.574h-6.9a11.959,11.959,0,0,1-8.9-3.574,12.327,12.327,0,0,1-3.52-9.023A11.512,11.512,0,0,1,88.3,11.786a12.422,12.422,0,0,1,8.934-3.321h6.894a12.4,12.4,0,0,1,8.952,3.321,11.547,11.547,0,0,1,3.467,8.736Zm-4.258.361A7.881,7.881,0,0,0,110,15.036a7.975,7.975,0,0,0-5.866-2.274h-6.9a7.819,7.819,0,0,0-8.122,8.122,7.6,7.6,0,0,0,2.295,5.739,8.068,8.068,0,0,0,5.825,2.2h6.894a8.109,8.109,0,0,0,5.866-2.2,7.6,7.6,0,0,0,2.295-5.739Z" transform="translate(134.91 22.62)" fill="#001f4e"/>
      </g>
      <g transform="matrix(1, 0, 0, 1, -150, -31)" filter="url(#Path_69)">
        <path id="Path_69-2" data-name="Path 69" d="M136.307,33.15l-5.521-.037-4.152-6.894h-11.7l2.6-4.261h6.534l-4.3-7.109L108.66,33.112h-5.52l13.388-22.271a5.746,5.746,0,0,1,1.409-1.588,3.346,3.346,0,0,1,1.95-.83,3.232,3.232,0,0,1,1.953.793,5.72,5.72,0,0,1,1.407,1.624Z" transform="translate(150.38 22.58)" fill="#001f4e"/>
      </g>
      <g transform="matrix(1, 0, 0, 1, -150, -31)" filter="url(#Path_70)">
        <path id="Path_70-2" data-name="Path 70" d="M146.742,30.989q0,2.381-1.621,2.382a4.082,4.082,0,0,1-2.673-1.479L126.64,16.011V33.119h-4.261V10.6a2.445,2.445,0,0,1,.471-1.5,1.56,1.56,0,0,1,1.335-.633,3.577,3.577,0,0,1,2.457,1.265L142.45,25.573V8.466h4.293Z" transform="translate(166.62 22.62)" fill="#001f4e"/>
      </g>
      <g transform="matrix(1, 0, 0, 1, -150, -31)" filter="url(#Path_71)">
        <path id="Path_71-2" data-name="Path 71" d="M166.51,33.119H150.846a11.953,11.953,0,0,1-8.9-3.574,12.326,12.326,0,0,1-3.519-9.023,11.506,11.506,0,0,1,3.484-8.736,12.423,12.423,0,0,1,8.931-3.321h13.9v4.294h-13.9a7.813,7.813,0,0,0-8.119,8.122,7.6,7.6,0,0,0,2.295,5.739,8.073,8.073,0,0,0,5.825,2.2h11.369V23.443h-11.7V19.512h15.99V33.119Z" transform="translate(180.16 22.62)" fill="#001f4e"/>
      </g>
      <g transform="matrix(1, 0, 0, 1, -150, -31)" filter="url(#Path_72)">
        <path id="Path_72-2" data-name="Path 72" d="M176.446,33.118H155.184V8.464h4.293V28.821h16.969Z" transform="translate(194.31 22.62)" fill="#001f4e"/>
      </g>
      <g transform="matrix(1, 0, 0, 1, -150, -31)" filter="url(#Path_73)">
        <path id="Path_73-2" data-name="Path 73" d="M189.75,33.118h-21.3V8.464h21.3v4.294h-17V28.821h17Zm-1.116-10.36H174.553V18.463h14.078Z" transform="translate(205.51 22.62)" fill="#001f4e"/>
      </g>
    </g>
    <path id="Path_1086" data-name="Path 1086" d="M2.76-8.484V0H.708V-8.484Zm8.7,6.1a2.339,2.339,0,0,1-.342,1.236,2.412,2.412,0,0,1-1.008.9A3.551,3.551,0,0,1,8.5.084a3.8,3.8,0,0,1-2.352-.7A2.522,2.522,0,0,1,5.136-2.556H7.32a1.153,1.153,0,0,0,.342.756,1.052,1.052,0,0,0,.75.276.87.87,0,0,0,.624-.216.756.756,0,0,0,.228-.576.744.744,0,0,0-.21-.54,1.647,1.647,0,0,0-.522-.354q-.312-.138-.864-.33a10.608,10.608,0,0,1-1.314-.534,2.42,2.42,0,0,1-.876-.768,2.222,2.222,0,0,1-.366-1.326A2.233,2.233,0,0,1,5.5-7.476a2.441,2.441,0,0,1,1.062-.846,3.874,3.874,0,0,1,1.554-.294,3.484,3.484,0,0,1,2.25.672A2.564,2.564,0,0,1,11.3-6.1H9.084a1.139,1.139,0,0,0-.306-.666.9.9,0,0,0-.666-.246.858.858,0,0,0-.582.192.705.705,0,0,0-.222.564.716.716,0,0,0,.2.51A1.509,1.509,0,0,0,8-5.4q.3.132.864.336a9.5,9.5,0,0,1,1.332.546,2.548,2.548,0,0,1,.888.786A2.245,2.245,0,0,1,11.46-2.388Zm6.36-6.228A4.317,4.317,0,0,1,20-8.058,4.065,4.065,0,0,1,21.54-6.51,4.44,4.44,0,0,1,22.1-4.272a4.436,4.436,0,0,1-.57,2.244A4.1,4.1,0,0,1,19.986-.474,4.293,4.293,0,0,1,17.82.084a4.293,4.293,0,0,1-2.166-.558,4.1,4.1,0,0,1-1.548-1.554,4.436,4.436,0,0,1-.57-2.244,4.4,4.4,0,0,1,.57-2.238,4.109,4.109,0,0,1,1.548-1.548A4.293,4.293,0,0,1,17.82-8.616Zm0,1.908a2.057,2.057,0,0,0-1.6.654,2.551,2.551,0,0,0-.594,1.782A2.556,2.556,0,0,0,16.218-2.5a2.048,2.048,0,0,0,1.6.66,2.052,2.052,0,0,0,1.6-.66,2.54,2.54,0,0,0,.6-1.776,2.556,2.556,0,0,0-.594-1.776A2.048,2.048,0,0,0,17.82-6.708ZM29.94-2.6Q30.108-1.56,31-1.56a.992.992,0,0,0,.978-.636,4.961,4.961,0,0,0,.258-1.98,1.566,1.566,0,0,1-.7.774,2.31,2.31,0,0,1-1.158.282,2.5,2.5,0,0,1-1.9-.726,2.891,2.891,0,0,1-.7-2.082,3.193,3.193,0,0,1,.348-1.512,2.441,2.441,0,0,1,1.026-1.026,3.378,3.378,0,0,1,1.626-.366,3.278,3.278,0,0,1,2,.54,2.761,2.761,0,0,1,1,1.47,7.935,7.935,0,0,1,.276,2.238,6.941,6.941,0,0,1-.7,3.486A2.522,2.522,0,0,1,31,.084,3.159,3.159,0,0,1,29.43-.282a2.606,2.606,0,0,1-1.008-.978,3.045,3.045,0,0,1-.4-1.344Zm2.136-3.228a1.275,1.275,0,0,0-.312-.894,1.172,1.172,0,0,0-.912-.342,1.157,1.157,0,0,0-.846.3,1.173,1.173,0,0,0-.306.876,1.18,1.18,0,0,0,.312.882,1.164,1.164,0,0,0,.852.306A1.293,1.293,0,0,0,31.728-5,1.031,1.031,0,0,0,32.076-5.832Zm4.152,1.5a5.471,5.471,0,0,0,.8,3.156A2.9,2.9,0,0,0,39.6-.012a2.9,2.9,0,0,0,2.562-1.164,5.44,5.44,0,0,0,.81-3.156,5.387,5.387,0,0,0-.81-3.138A2.908,2.908,0,0,0,39.6-8.628,2.905,2.905,0,0,0,37.032-7.47,5.418,5.418,0,0,0,36.228-4.332Zm4.7,0a4.533,4.533,0,0,1-.27,1.758,1.045,1.045,0,0,1-1.062.618,1.066,1.066,0,0,1-1.08-.618,4.444,4.444,0,0,1-.276-1.758,4.36,4.36,0,0,1,.276-1.74,1.068,1.068,0,0,1,1.08-.612,1.047,1.047,0,0,1,1.062.606A4.439,4.439,0,0,1,40.932-4.332Zm4.212,0a5.471,5.471,0,0,0,.8,3.156A2.9,2.9,0,0,0,48.516-.012a2.9,2.9,0,0,0,2.562-1.164,5.44,5.44,0,0,0,.81-3.156,5.387,5.387,0,0,0-.81-3.138,2.908,2.908,0,0,0-2.562-1.158A2.905,2.905,0,0,0,45.948-7.47,5.418,5.418,0,0,0,45.144-4.332Zm4.7,0a4.533,4.533,0,0,1-.27,1.758,1.045,1.045,0,0,1-1.062.618,1.066,1.066,0,0,1-1.08-.618,4.444,4.444,0,0,1-.276-1.758,4.36,4.36,0,0,1,.276-1.74,1.068,1.068,0,0,1,1.08-.612,1.047,1.047,0,0,1,1.062.606A4.439,4.439,0,0,1,49.848-4.332Zm3.84-2.232v-1.92H57.12V0H54.96V-6.564ZM61.8-6.936v2.052H59.664V-6.936Zm0,4.884V0H59.664V-2.052Zm2.136.42q3.816-2.724,3.816-4.332,0-.984-.852-.984a.781.781,0,0,0-.7.336,2.06,2.06,0,0,0-.246,1.044h-2A3.19,3.19,0,0,1,64.884-7.9a3.136,3.136,0,0,1,2.184-.78,2.84,2.84,0,0,1,2.082.7,2.44,2.44,0,0,1,.7,1.812A3.839,3.839,0,0,1,68.9-3.75a8.84,8.84,0,0,1-2.268,2h3.348V-.1H63.936Zm8.076-2.7a5.471,5.471,0,0,0,.8,3.156A2.9,2.9,0,0,0,75.384-.012a2.9,2.9,0,0,0,2.562-1.164,5.44,5.44,0,0,0,.81-3.156,5.387,5.387,0,0,0-.81-3.138,2.908,2.908,0,0,0-2.562-1.158A2.905,2.905,0,0,0,72.816-7.47,5.418,5.418,0,0,0,72.012-4.332Zm4.7,0a4.533,4.533,0,0,1-.27,1.758,1.045,1.045,0,0,1-1.062.618,1.066,1.066,0,0,1-1.08-.618,4.444,4.444,0,0,1-.276-1.758,4.36,4.36,0,0,1,.276-1.74,1.068,1.068,0,0,1,1.08-.612,1.047,1.047,0,0,1,1.062.606A4.44,4.44,0,0,1,76.716-4.332Zm3.84-2.232v-1.92h3.432V0h-2.16V-6.564Zm12.1-.324H88.836v1.716a1.654,1.654,0,0,1,.7-.45,2.867,2.867,0,0,1,.978-.162,2.549,2.549,0,0,1,1.428.378A2.266,2.266,0,0,1,92.8-4.392a3.49,3.49,0,0,1,.276,1.4,3.041,3.041,0,0,1-.78,2.2,2.906,2.906,0,0,1-2.2.81,3.8,3.8,0,0,1-1.668-.342,2.575,2.575,0,0,1-1.092-.954,2.768,2.768,0,0,1-.408-1.416h2a1.143,1.143,0,0,0,.33.672A1.01,1.01,0,0,0,90-1.752a.962.962,0,0,0,.81-.348,1.467,1.467,0,0,0,.27-.924,1.181,1.181,0,0,0-.288-.852,1.062,1.062,0,0,0-.8-.3,1.175,1.175,0,0,0-.66.174.876.876,0,0,0-.36.45H86.976V-8.688h5.676Zm10.308-1.68a4.15,4.15,0,0,1,2.682.852,3.9,3.9,0,0,1,1.374,2.3h-2.172a1.993,1.993,0,0,0-.738-.924,2.063,2.063,0,0,0-1.182-.336,1.8,1.8,0,0,0-1.452.66,2.661,2.661,0,0,0-.552,1.764,2.637,2.637,0,0,0,.552,1.758,1.807,1.807,0,0,0,1.452.654,2.063,2.063,0,0,0,1.182-.336,2,2,0,0,0,.738-.912h2.172a3.92,3.92,0,0,1-1.374,2.3,4.131,4.131,0,0,1-2.682.858,4.232,4.232,0,0,1-2.172-.546A3.706,3.706,0,0,1,99.342-2a4.806,4.806,0,0,1-.51-2.244,4.806,4.806,0,0,1,.51-2.244,3.706,3.706,0,0,1,1.446-1.53A4.232,4.232,0,0,1,102.96-8.568Zm8.448,1.716v1.776h2.868v1.548h-2.868v1.884h3.228V0h-5.28V-8.484h5.28v1.632ZM121.344,0l-1.836-3.2h-.468V0h-2.052V-8.484h3.5a3.783,3.783,0,0,1,1.7.348,2.4,2.4,0,0,1,1.044.954,2.733,2.733,0,0,1,.348,1.386,2.464,2.464,0,0,1-.51,1.572,2.607,2.607,0,0,1-1.482.888L123.612,0Zm-2.3-4.608h1.272a1.281,1.281,0,0,0,.9-.27,1.042,1.042,0,0,0,.288-.8,1.058,1.058,0,0,0-.294-.792,1.232,1.232,0,0,0-.894-.288H119.04ZM131.9-8.484v1.632h-2.3V0h-2.064V-6.852h-2.28V-8.484Zm4.1,0V0h-2.052V-8.484Zm8.136,0v1.632h-3.48v1.86h2.688v1.56h-2.688V0h-2.052V-8.484Zm4.3,0V0h-2.052V-8.484ZM153.1-6.852v1.776h2.868v1.548H153.1v1.884h3.228V0h-5.28V-8.484h5.28v1.632ZM166.308-4.26a4.5,4.5,0,0,1-.534,2.214A3.741,3.741,0,0,1,164.238-.54,4.9,4.9,0,0,1,161.88,0h-3.2V-8.484h3.2a4.981,4.981,0,0,1,2.364.528,3.684,3.684,0,0,1,1.53,1.488A4.466,4.466,0,0,1,166.308-4.26ZM161.7-1.836a2.593,2.593,0,0,0,1.866-.636,2.355,2.355,0,0,0,.666-1.788,2.355,2.355,0,0,0-.666-1.788,2.593,2.593,0,0,0-1.866-.636h-.972v4.848Zm14.424-6.732a4.15,4.15,0,0,1,2.682.852,3.9,3.9,0,0,1,1.374,2.3h-2.172a1.993,1.993,0,0,0-.738-.924,2.063,2.063,0,0,0-1.182-.336,1.8,1.8,0,0,0-1.452.66,2.661,2.661,0,0,0-.552,1.764,2.637,2.637,0,0,0,.552,1.758,1.807,1.807,0,0,0,1.452.654,2.063,2.063,0,0,0,1.182-.336,2,2,0,0,0,.738-.912h2.172a3.92,3.92,0,0,1-1.374,2.3,4.131,4.131,0,0,1-2.682.858,4.232,4.232,0,0,1-2.172-.546A3.706,3.706,0,0,1,172.506-2,4.805,4.805,0,0,1,172-4.248a4.805,4.805,0,0,1,.51-2.244,3.706,3.706,0,0,1,1.446-1.53A4.232,4.232,0,0,1,176.124-8.568Zm10.428-.048a4.317,4.317,0,0,1,2.178.558,4.065,4.065,0,0,1,1.542,1.548,4.44,4.44,0,0,1,.564,2.238,4.436,4.436,0,0,1-.57,2.244,4.1,4.1,0,0,1-1.548,1.554,4.293,4.293,0,0,1-2.166.558,4.293,4.293,0,0,1-2.166-.558,4.1,4.1,0,0,1-1.548-1.554,4.436,4.436,0,0,1-.57-2.244,4.4,4.4,0,0,1,.57-2.238,4.108,4.108,0,0,1,1.548-1.548A4.293,4.293,0,0,1,186.552-8.616Zm0,1.908a2.057,2.057,0,0,0-1.6.654,2.551,2.551,0,0,0-.594,1.782A2.556,2.556,0,0,0,184.95-2.5a2.048,2.048,0,0,0,1.6.66,2.052,2.052,0,0,0,1.6-.66,2.539,2.539,0,0,0,.6-1.776,2.555,2.555,0,0,0-.594-1.776A2.048,2.048,0,0,0,186.552-6.708Zm16.164-1.716V0h-2.052V-5.268L198.84,0h-1.776l-1.836-5.28V0h-2.052V-8.424h2.508l2.292,5.868,2.244-5.868Zm4.656,5.448V0H205.32V-8.484h3.324a3.228,3.228,0,0,1,2.3.75,2.652,2.652,0,0,1,.792,2.022,2.786,2.786,0,0,1-.354,1.41,2.454,2.454,0,0,1-1.05.972,3.7,3.7,0,0,1-1.692.354Zm1.044-1.644q1.236,0,1.236-1.092,0-1.116-1.236-1.116h-1.044V-4.62Zm10.776,3.072h-3.18L215.484,0h-2.16l3.108-8.424H218.8L221.9,0H219.72Zm-.528-1.56-1.056-3.12-1.068,3.12ZM231.42,0h-2.052l-3.432-5.208V0h-2.052V-8.484h2.052l3.432,5.256V-8.484h2.052Zm9.936-8.484-2.94,5.664V0h-2.064V-2.82l-2.94-5.664h2.352L237.4-5.028l1.632-3.456Z" transform="translate(11989 -13459)" fill="#001f4e"/>
  </g>
</svg>
