<?xml version="1.0" encoding="UTF-8"?>
<svg id="Layer_1" xmlns="http://www.w3.org/2000/svg" viewBox="0 0 512 512">
  <circle cx="256" cy="249.86" r="145.67" fill="none" stroke="#16224c" stroke-linecap="round" stroke-linejoin="round" stroke-width="11"/>
  <path d="M146.15,121.22l-32.19-32.19c21.71-19.21,47.33-34.08,75.53-43.23l10.35,44.46c-19.85,6.97-38.02,17.56-53.69,30.97Z" fill="none" stroke="#16224c" stroke-linecap="round" stroke-linejoin="round" stroke-width="11"/>
  <path d="M225.33,83.47l-10.3-44.27c13.25-2.58,26.95-3.94,40.97-3.94,15.24,0,30.14,1.6,44.48,4.63l-13.49,43.63c-10.06-1.84-20.41-2.82-30.99-2.82s-20.72.96-30.67,2.77Z" fill="none" stroke="#16224c" stroke-linecap="round" stroke-linejoin="round" stroke-width="11"/>
  <path d="M366.94,122.12c-15.86-13.75-34.29-24.64-54.49-31.77l13.44-43.44h.03c27.32,9.39,52.12,24.16,73.19,43.05l-32.16,32.16Z" fill="none" stroke="#16224c" stroke-linecap="round" stroke-linejoin="round" stroke-width="11"/>
  <path d="M415.62,193.69c-6.84-19.47-17.16-37.33-30.22-52.78l32.22-32.22c18.81,21.5,33.39,46.82,42.43,74.65l-44.43,10.35Z" fill="none" stroke="#16224c" stroke-linecap="round" stroke-linejoin="round" stroke-width="11"/>
  <path d="M86.83,249.85c0,11.01,1.06,21.79,3.06,32.22l-44.24,10.3c-2.79-13.73-4.23-27.96-4.23-42.51s1.44-28.55,4.15-42.19l44.22,10.64c-1.94,10.22-2.95,20.78-2.95,31.55Z" fill="none" stroke="#16224c" stroke-linecap="round" stroke-linejoin="round" stroke-width="11"/>
  <path d="M127.5,139.81c-13.28,15.48-23.81,33.41-30.83,53.05l-44.35-10.67c9.2-27.8,23.97-53.1,42.99-74.54l32.19,32.16Z" fill="none" stroke="#16224c" stroke-linecap="round" stroke-linejoin="round" stroke-width="11"/>
  <path d="M96.91,307.47c7,19.34,17.43,37.03,30.54,52.33l-32.19,32.19c-18.92-21.34-33.63-46.48-42.83-74.15l44.48-10.38Z" fill="none" stroke="#16224c" stroke-linecap="round" stroke-linejoin="round" stroke-width="11"/>
  <path d="M200,409.53l-10.64,44.32c-28.17-9.15-53.79-24.02-75.48-43.23l32.19-32.16c15.72,13.46,33.97,24.08,53.93,31.07Z" fill="none" stroke="#16224c" stroke-linecap="round" stroke-linejoin="round" stroke-width="11"/>
  <path d="M298.97,460.13c-13.89,2.82-28.25,4.31-42.97,4.31s-27.85-1.36-41.16-3.96l10.62-44.19c9.92,1.81,20.11,2.74,30.54,2.74,11.17,0,22.08-1.09,32.64-3.14l10.32,44.24Z" fill="none" stroke="#16224c" stroke-linecap="round" stroke-linejoin="round" stroke-width="11"/>
  <path d="M398.22,410.54c-21.26,18.84-46.29,33.52-73.83,42.75l-10.32-44.48c19.18-7.02,36.74-17.4,51.96-30.46l32.19,32.19Z" fill="none" stroke="#16224c" stroke-linecap="round" stroke-linejoin="round" stroke-width="11"/>
  <path d="M459.84,317c-9.18,27.96-23.94,53.37-42.99,74.92l-32.19-32.19c13.3-15.59,23.86-33.65,30.83-53.39l44.35,10.67Z" fill="none" stroke="#16224c" stroke-linecap="round" stroke-linejoin="round" stroke-width="11"/>
  <path d="M470.59,249.85c0,14.26-1.38,28.17-4.04,41.64l-44.22-10.61c1.86-10.06,2.85-20.43,2.85-31.02s-.96-20.75-2.77-30.7l44.24-10.3c2.58,13.28,3.94,26.98,3.94,41Z" fill="none" stroke="#16224c" stroke-linecap="round" stroke-linejoin="round" stroke-width="11"/>
  <path d="M191.49,330.36v-24.03h16.46v-117.16h-16.46v-23.7h51.34v-16.79h30.61v17.11l17.11.66c21.1,2.73,37.29,18.75,39.49,37.85,2.67,23.15-16.64,38.43-17.6,39.17,20.1,11.9,28.98,35.31,22.21,54.96-5.2,15.08-19.02,26.21-35.7,29.29-8.73.33-17.45.66-26.18.99l.33,18.1h-29.29l-.33-16.79-52,.33Z" fill="none" stroke="#16224c" stroke-linecap="round" stroke-linejoin="round" stroke-width="11"/>
  <path d="M234.94,233.27v-42.46h47.72c1.48.22,9.14,1.5,14.32,8.56,4.41,6,4.23,12.36,4.11,14.15-.25,2.03-1.22,7.59-5.76,12.67-4.43,4.96-9.69,6.57-11.68,7.08h-48.71Z" fill="none" stroke="#16224c" stroke-linecap="round" stroke-linejoin="round" stroke-width="11"/>
  <path d="M234.94,257.63v47.06h52.33c1.94-.24,9.23-1.36,15.14-7.73,5.96-6.43,6.5-13.86,6.58-15.8-.1-2.4-.67-8.49-5.1-14.15-6.96-8.89-17.68-9.34-19.25-9.38h-49.7Z" fill="none" stroke="#16224c" stroke-linecap="round" stroke-linejoin="round" stroke-width="11"/>
</svg>