<svg xmlns="http://www.w3.org/2000/svg" width="20.805" height="23.099" viewBox="0 0 20.805 23.099">
  <g id="Makent_Hotels_Icon" data-name="Makent Hotels Icon" transform="translate(-25.418)">
    <path id="Path_407" data-name="Path 407" d="M98.488,309.992H97.5a1.16,1.16,0,0,0-1.159,1.159v1.974a1.16,1.16,0,0,0,1.159,1.159h.984a1.16,1.16,0,0,0,1.159-1.159v-1.974A1.16,1.16,0,0,0,98.488,309.992Zm.482,3.133a.483.483,0,0,1-.482.482H97.5a.483.483,0,0,1-.482-.482v-1.974a.483.483,0,0,1,.482-.482h.984a.483.483,0,0,1,.482.482Z" transform="translate(-67.727 -296.007)" fill="#001f4e"/>
    <path id="Path_408" data-name="Path 408" d="M99.647,180.522a1.16,1.16,0,0,0-1.159-1.159H97.5a1.16,1.16,0,0,0-1.159,1.159V182.5a1.16,1.16,0,0,0,1.159,1.159h.984a1.16,1.16,0,0,0,1.159-1.159ZM98.97,182.5a.483.483,0,0,1-.482.482H97.5a.483.483,0,0,1-.482-.482v-1.974a.483.483,0,0,1,.482-.482h.984a.483.483,0,0,1,.482.482Z" transform="translate(-67.727 -171.271)" fill="#001f4e"/>
    <path id="Path_409" data-name="Path 409" d="M220.566,179.363a1.16,1.16,0,0,0-1.159,1.159V182.5a1.16,1.16,0,0,0,1.159,1.159h.984a1.16,1.16,0,0,0,1.159-1.159v-1.974a1.16,1.16,0,0,0-1.159-1.159Zm1.466,1.159V182.5a.483.483,0,0,1-.482.482h-.984a.483.483,0,0,1-.482-.482v-1.974a.483.483,0,0,1,.482-.482h.984A.483.483,0,0,1,222.032,180.522Z" transform="translate(-185.237 -171.271)" fill="#001f4e"/>
    <path id="Path_410" data-name="Path 410" d="M344.613,309.992h-.984a1.16,1.16,0,0,0-1.159,1.159v1.974a1.16,1.16,0,0,0,1.159,1.159h.984a1.16,1.16,0,0,0,1.159-1.159v-1.974A1.16,1.16,0,0,0,344.613,309.992Zm.482,3.133a.483.483,0,0,1-.482.482h-.984a.483.483,0,0,1-.482-.482v-1.974a.483.483,0,0,1,.482-.482h.984a.483.483,0,0,1,.482.482Z" transform="translate(-302.748 -296.007)" fill="#001f4e"/>
    <path id="Path_411" data-name="Path 411" d="M345.773,180.522a1.16,1.16,0,0,0-1.159-1.159h-.984a1.16,1.16,0,0,0-1.159,1.159V182.5a1.16,1.16,0,0,0,1.159,1.159h.984a1.16,1.16,0,0,0,1.159-1.159ZM345.1,182.5a.483.483,0,0,1-.482.482h-.984a.483.483,0,0,1-.482-.482v-1.974a.483.483,0,0,1,.482-.482h.984a.483.483,0,0,1,.482.482Z" transform="translate(-302.749 -171.271)" fill="#001f4e"/>
    <path id="Path_412" data-name="Path 412" d="M361.973,35.063l-.558,0V32.838a.338.338,0,1,0-.677,0V35.4a.338.338,0,0,0,.281.333c.072.012.806.006.958,0a.338.338,0,1,0,0-.677Z" transform="translate(-320.192 -31.034)" fill="#001f4e"/>
    <path id="Path_413" data-name="Path 413" d="M118.463,32.5a.338.338,0,0,0-.338.338v.9h-1.1v-.9a.338.338,0,1,0-.677,0V35.4a.338.338,0,1,0,.677,0v-.988h1.1V35.4a.338.338,0,1,0,.677,0V32.838A.338.338,0,0,0,118.463,32.5Z" transform="translate(-86.829 -31.034)" fill="#001f4e"/>
    <path id="Path_414" data-name="Path 414" d="M311.633,33.7a.338.338,0,0,0,0-.677h-1.071a.338.338,0,0,0-.338.338V35.9a.338.338,0,0,0,.338.338h1.071a.338.338,0,0,0,0-.677H310.9v-.594h.654a.338.338,0,0,0,0-.677H310.9V33.7Z" transform="translate(-271.957 -31.53)" fill="#001f4e"/>
    <path id="Path_415" data-name="Path 415" d="M254.514,32.5H253.1a.338.338,0,1,0,0,.677h.367V35.4a.338.338,0,1,0,.677,0V33.177h.373a.338.338,0,0,0,0-.677Z" transform="translate(-217.084 -31.034)" fill="#001f4e"/>
    <path id="Path_416" data-name="Path 416" d="M180.969,32.5a1.621,1.621,0,1,0,1.621,1.621A1.623,1.623,0,0,0,180.969,32.5Zm0,2.565a.944.944,0,1,1,.944-.944A.945.945,0,0,1,180.969,35.065Z" transform="translate(-146.985 -31.034)" fill="#001f4e"/>
    <path id="Path_417" data-name="Path 417" d="M67.377,0H55.918a2.168,2.168,0,0,0-2.166,2.166V5.9a2.757,2.757,0,0,0-1.288,2.331v6.9a.338.338,0,1,0,.677,0v-6.9a2.084,2.084,0,0,1,2.08-2.08H68.073a2.083,2.083,0,0,1,2.08,2.08v2.074a.338.338,0,1,0,.677,0V8.233A2.757,2.757,0,0,0,69.542,5.9V2.166A2.168,2.168,0,0,0,67.377,0ZM55.222,5.476a2.806,2.806,0,0,0-.792.116V2.166A1.491,1.491,0,0,1,55.918.677H67.377a1.491,1.491,0,0,1,1.489,1.489V5.593a2.8,2.8,0,0,0-.792-.116Z" transform="translate(-25.827)" fill="#001f4e"/>
    <path id="Path_418" data-name="Path 418" d="M26.638,259.144a1.721,1.721,0,0,0-1.22,1.644v.851a1.106,1.106,0,0,0,1.105,1.105h18.6a1.106,1.106,0,0,0,1.105-1.105v-.851A1.721,1.721,0,0,0,45,259.144v-7.838a.338.338,0,1,0-.677,0v7.764H38.419V255.1a1.47,1.47,0,0,0-1.468-1.468h-2.26a1.47,1.47,0,0,0-1.468,1.468v3.971H27.315v-2.942a.338.338,0,0,0-.677,0Zm18.909,1.644v.851a.429.429,0,0,1-.429.428h-18.6a.429.429,0,0,1-.429-.428v-.851a1.043,1.043,0,0,1,.92-1.034h0a1.047,1.047,0,0,1,.121-.007H44.505a1.042,1.042,0,0,1,.121.007h0A1.043,1.043,0,0,1,45.547,260.788ZM33.9,255.1a.792.792,0,0,1,.791-.791h2.26a.792.792,0,0,1,.791.791v3.971H33.9Z" transform="translate(0 -239.645)" fill="#001f4e"/>
  </g>
</svg>
