<svg xmlns="http://www.w3.org/2000/svg" width="20.805" height="16.343" viewBox="0 0 20.805 16.343">
  <g id="Group_495" data-name="Group 495" transform="translate(-4 -10.006)">
    <path id="Path_298" data-name="Path 298" d="M24.748,18.192a1.758,1.758,0,0,0-.535-.869c-.735-.613-1.564-1.341-1.969-1.746h1.174a1.01,1.01,0,1,0,0-2.021c-.556.031-1.595-.126-2.061.23-.331-.832-.728-1.85-1.033-2.637a1.854,1.854,0,0,0-1.716-1.144H10.192a1.858,1.858,0,0,0-1.72,1.151c-.3.784-.7,1.8-1.029,2.63-.467-.359-1.516-.2-2.061-.23a1.01,1.01,0,1,0,0,2.021H6.555c-.409.409-1.237,1.137-1.991,1.764A1.709,1.709,0,0,0,4,18.627v3.636a1.835,1.835,0,0,0,.371,1.114v1.857a1.118,1.118,0,0,0,1.114,1.114H7.714a1.118,1.118,0,0,0,1.114-1.114V24.12H19.971v1.114a1.116,1.116,0,0,0,1.114,1.114h2.229a1.116,1.116,0,0,0,1.114-1.114V23.377a1.835,1.835,0,0,0,.371-1.114C24.782,22.025,24.849,18.29,24.748,18.192Zm-2.6-3.893h1.274a.267.267,0,1,1,0,.535H21.788c-.045-.1-.089-.215-.137-.338A.74.74,0,0,1,22.144,14.3ZM9.163,11.436a1.1,1.1,0,0,1,1.029-.687h8.417a1.1,1.1,0,0,1,1.025.676c.1.264,1.434,3.61,1.508,3.781H7.658C8.119,14.14,9.044,11.748,9.163,11.436Zm-3.781,3.4a.267.267,0,1,1,0-.535H6.656a.74.74,0,0,1,.494.2c-.048.123-.093.238-.137.338Zm2.7,10.4a.373.373,0,0,1-.371.371H5.486a.373.373,0,0,1-.371-.371V23.968a1.9,1.9,0,0,0,.743.152H8.086Zm1.955-1.857.273-.743h8.253l.254.743Zm13.645,1.857a.372.372,0,0,1-.371.371H21.086a.372.372,0,0,1-.371-.371V24.12a12.541,12.541,0,0,0,2.971-.152Zm-.743-1.857H19.605l-.423-1.235a.372.372,0,0,0-.351-.251H10.054a.371.371,0,0,0-.349.243l-.456,1.242c-.555,0-2.8,0-3.392,0a1.114,1.114,0,0,1-1.114-1.114V18.627a1.012,1.012,0,0,1,.319-.732c.416-.349,1.634-1.374,2.162-1.946H21.576c.527.572,1.746,1.593,2.143,1.928a1.018,1.018,0,0,1,.338.75v3.636a1.118,1.118,0,0,1-1.114,1.114Z" transform="translate(0)" fill="#001f4e"/>
    <path id="Path_299" data-name="Path 299" d="M11.625,32.165A.371.371,0,0,0,11.316,32H8.37A.371.371,0,0,0,8,32.371a1.859,1.859,0,0,0,1.857,1.857h2.451a.374.374,0,0,0,.309-.578ZM9.856,33.486a1.116,1.116,0,0,1-1.051-.743h2.312l.5.743Z" transform="translate(-2.513 -13.823)" fill="#001f4e"/>
    <path id="Path_300" data-name="Path 300" d="M28.73,32H21.1a.374.374,0,0,0-.309.578l.992,1.486a.371.371,0,0,0,.309.165h5.646a.371.371,0,0,0,.309-.165l.992-1.486A.374.374,0,0,0,28.73,32Zm-1.19,1.486H22.291l-.5-.743h6.24Z" transform="translate(-10.516 -13.823)" fill="#001f4e"/>
    <path id="Path_301" data-name="Path 301" d="M47.7,32H44.756a.371.371,0,0,0-.309.165l-.992,1.486a.374.374,0,0,0,.309.578h2.451a1.859,1.859,0,0,0,1.857-1.857A.371.371,0,0,0,47.7,32Zm-1.486,1.486H44.459l.5-.743h2.312a1.116,1.116,0,0,1-1.051.743Z" transform="translate(-24.759 -13.823)" fill="#001f4e"/>
  </g>
</svg>
