<?xml version="1.0" encoding="UTF-8"?>
<svg id="Layer_1" xmlns="http://www.w3.org/2000/svg" viewBox="0 0 512 512">
  <g>
    <polyline points="50.56 239.99 167.12 167.59 256.37 221.59 338.17 188.67" fill="none" stroke="#16224c" stroke-linecap="round" stroke-linejoin="round" stroke-width="20"/>
    <line x1="50" y1="10" x2="50" y2="502" fill="none" stroke="#16224c" stroke-linecap="round" stroke-linejoin="round" stroke-width="20"/>
    <line x1="10" y1="462" x2="502" y2="462" fill="none" stroke="#16224c" stroke-linecap="round" stroke-linejoin="round" stroke-width="20"/>
    <line x1="302.89" y1="402.27" x2="302.89" y2="422" fill="none" stroke="#16224c" stroke-linecap="round" stroke-linejoin="round" stroke-width="20"/>
    <line x1="213.75" y1="387.43" x2="213.75" y2="422" fill="none" stroke="#16224c" stroke-linecap="round" stroke-linejoin="round" stroke-width="20"/>
    <line x1="124.61" y1="357.75" x2="124.61" y2="422" fill="none" stroke="#16224c" stroke-linecap="round" stroke-linejoin="round" stroke-width="20"/>
    <line x1="392.04" y1="337.79" x2="392.04" y2="422" fill="none" stroke="#16224c" stroke-linecap="round" stroke-linejoin="round" stroke-width="20"/>
    <line x1="302.89" y1="269.72" x2="302.89" y2="352.7" fill="none" stroke="#16224c" stroke-linecap="round" stroke-linejoin="round" stroke-width="20"/>
    <line x1="213.75" y1="269.72" x2="213.75" y2="337.86" fill="none" stroke="#16224c" stroke-linecap="round" stroke-linejoin="round" stroke-width="20"/>
    <line x1="124.61" y1="269.72" x2="124.61" y2="308.18" fill="none" stroke="#16224c" stroke-linecap="round" stroke-linejoin="round" stroke-width="20"/>
    <line x1="392.04" y1="269.72" x2="392.04" y2="288.22" fill="none" stroke="#16224c" stroke-linecap="round" stroke-linejoin="round" stroke-width="20"/>
    <rect x="104.82" y="313.18" width="39.57" height="39.57" fill="none" stroke="#16224c" stroke-linecap="round" stroke-linejoin="round" stroke-width="20"/>
    <rect x="193.96" y="342.86" width="39.57" height="39.57" fill="none" stroke="#16224c" stroke-linecap="round" stroke-linejoin="round" stroke-width="20"/>
    <rect x="283.11" y="357.7" width="39.57" height="39.57" fill="none" stroke="#16224c" stroke-linecap="round" stroke-linejoin="round" stroke-width="20"/>
    <rect x="372.25" y="293.22" width="39.57" height="39.57" fill="none" stroke="#16224c" stroke-linecap="round" stroke-linejoin="round" stroke-width="20"/>
  </g>
  <circle cx="402" cy="110" r="100" fill="none" stroke="#16224c" stroke-linecap="round" stroke-linejoin="round" stroke-width="20"/>
  <g>
    <path d="M417.04,73.69l-5.32-2.2c-9.99-4.14-21.54.65-25.67,10.64-4.14,9.99.65,21.54,10.63,25.67l5.32,2.2,5.32,2.2c9.98,4.14,14.77,15.69,10.63,25.67-4.14,9.99-15.69,14.77-25.67,10.63l-5.32-2.2" fill="none" stroke="#16224c" stroke-linecap="round" stroke-linejoin="round" stroke-width="20"/>
    <line x1="402" y1="169.94" x2="402" y2="154.87" fill="none" stroke="#16224c" stroke-linecap="round" stroke-linejoin="round" stroke-width="20"/>
    <line x1="402" y1="65.13" x2="402" y2="50.06" fill="none" stroke="#16224c" stroke-linecap="round" stroke-linejoin="round" stroke-width="20"/>
  </g>
</svg>