<?xml version="1.0" encoding="UTF-8"?><svg id="Layer_1" xmlns="http://www.w3.org/2000/svg" viewBox="0 0 19.12 19.13"><defs><style>.cls-1{fill:#001f4e;}</style></defs><path class="cls-1" d="m7.34,10.25l.24-.58.97.4-.24.58-.97-.4Z"/><path class="cls-1" d="m10.91,10.07l.97-.4.24.58-.97.4-.24-.58Z"/><path class="cls-1" d="m15.12,5.38v-.51l-2.5,1.27c-.86-.54-1.85-.84-2.89-.84s-2.03.29-2.89.84l-2.5-1.27v.51c0,.9.12,1.66.37,2.27.09.23.19.39.26.51-.41.77-.63,1.63-.63,2.53v.53l1.22.35c.56.16,1.06.47,1.46.89l.04.05c.17.18.33.4.47.65.39.69,1.13,1.12,1.92,1.12h.56c.79,0,1.53-.43,1.92-1.12.14-.25.3-.46.47-.65l.04-.05c.4-.42.9-.73,1.46-.89l1.22-.35v-.53c0-.9-.22-1.76-.63-2.53.08-.11.17-.28.26-.51.24-.61.37-1.37.37-2.27h0Zm-5.39.55c1.27,0,2.47.49,3.36,1.39.77.77,1.24,1.75,1.36,2.81l-1.6-1.75c-.43-.47-1.05-.74-1.69-.73-.53,0-1.04.19-1.44.53-.4-.34-.91-.53-1.44-.53-.64,0-1.25.26-1.69.73l-1.6,1.75c.12-1.06.59-2.05,1.36-2.81.9-.9,2.09-1.39,3.36-1.39h0Zm-4.74-.03l1.28.65c-.12.1-.24.21-.35.32-.21.21-.4.43-.57.67-.14-.31-.31-.83-.36-1.64Zm5.02,6.46h-.56c-.17,0-.32-.14-.32-.32s.14-.32.32-.32h.56c.17,0,.32.14.32.32s-.14.32-.32.32Zm3.72-1.41c-.67.19-1.27.56-1.74,1.06l-.04.05c-.21.22-.39.48-.56.77-.28.48-.79.78-1.34.8v-.63c.51-.02.91-.44.91-.95s-.43-.95-.95-.95h-.56c-.52,0-.95.43-.95.95s.41.93.91.95v.63c-.55-.01-1.06-.32-1.34-.8-.17-.29-.35-.55-.56-.77l-.04-.05c-.47-.5-1.08-.87-1.74-1.06l-.49-.14,1.84-2c.31-.34.75-.53,1.2-.53,0,0,0,0,.01,0,.46,0,.9.2,1.21.55l.24.27.24-.27c.31-.34.75-.54,1.21-.55.46,0,.9.19,1.22.53l1.84,2-.49.14Zm-.19-4.08c-.11-.11-.23-.22-.35-.32l1.28-.65c-.05.81-.22,1.33-.36,1.64-.17-.23-.36-.46-.57-.67Z"/><path class="cls-1" d="m6.63,18.66c4.75,1.53,9.63-.86,11.6-5.07,1.69-3.62.97-8.09-2.12-11-1.78-1.67-4.11-2.6-6.55-2.6C4.29,0,0,4.29,0,9.56c0,3.19,1.57,6.04,4.01,7.78.17.12.41.08.54-.09s.08-.41-.09-.54c-2.31-1.65-3.68-4.32-3.68-7.15C.77,4.71,4.71.77,9.56.77s8.47,3.61,8.77,8.21c.4,6.29-5.66,10.8-11.46,8.94-.2-.07-.42.05-.49.25-.07.2.05.42.25.49h0Z"/></svg>